<?xml version="1.0" encoding="UTF-8"?><svg id="_イヤー_1" xmlns="http://www.w3.org/2000/svg" viewBox="0 0 36.13 36.06"><defs><style>.cls-1{fill:#550e0f;stroke:#550e0f;stroke-miterlimit:10;stroke-width:2px;}</style></defs><path class="cls-1" d="M21.83,16.52l-.17,1.79-.28,2.13c-.08,.37-.15,.73-.22,1.06-.08,.34-.15,.67-.22,1.01-.08,.37-.14,.73-.2,1.06-.06,.34-.14,.67-.25,1.01-.22,.67-.47,1.34-.73,2.02-.15,.34-.3,.66-.45,.98-.15,.32-.32,.63-.5,.92-.19,.3-.36,.61-.5,.92-.15,.32-.34,.63-.56,.92-.34,.49-.78,1.01-1.34,1.57-.26,.26-.52,.49-.78,.67-.26,.19-.52,.37-.78,.56-.3,.19-.61,.37-.92,.56-.32,.19-.63,.32-.92,.39-.67,.22-1.34,.34-2.02,.34l-.22,.06c-.6,0-1.2-.06-1.79-.17-.3-.07-.58-.17-.84-.28-.26-.11-.54-.22-.84-.34-.26-.15-.5-.31-.73-.48s-.47-.34-.73-.53c-.49-.37-.92-.76-1.29-1.18-.22-.22-.46-.48-.7-.76-.24-.28-.46-.59-.64-.92-.19-.3-.35-.61-.48-.92-.13-.32-.27-.64-.42-.98-.15-.3-.27-.62-.36-.98-.09-.35-.18-.72-.25-1.09-.08-.3-.15-.62-.22-.98-.08-.35-.13-.72-.17-1.09-.08-.34-.12-.68-.14-1.04-.02-.35-.05-.72-.08-1.09-.04-.34-.06-.68-.06-1.04v-1.15c0-.34,.03-.67,.08-1.01s.1-.71,.14-1.12c.04-.37,.06-.74,.08-1.09,.02-.35,.06-.7,.14-1.04,.07-.37,.16-.73,.25-1.06,.09-.34,.18-.67,.25-1.01,.07-.37,.16-.74,.25-1.09,.09-.35,.2-.68,.31-.98,.15-.37,.3-.73,.45-1.06,.15-.34,.3-.65,.45-.95,.19-.34,.34-.66,.48-.98,.13-.32,.29-.62,.48-.92,.22-.34,.44-.65,.64-.95,.21-.3,.4-.58,.59-.84,.22-.3,.46-.56,.7-.78,.24-.22,.49-.47,.76-.73,.3-.26,.59-.49,.87-.7,.28-.2,.57-.4,.87-.59,.56-.37,1.19-.67,1.9-.9,.15-.04,.33-.08,.53-.14,.2-.06,.46-.1,.76-.14,.3-.04,.67-.05,1.12-.03,.45,.02,1.01,.07,1.68,.14,.3,.08,.6,.16,.9,.25,.3,.09,.58,.22,.84,.36,.6,.3,1.1,.65,1.51,1.06,.41,.37,.8,.86,1.18,1.46,.48,.52,.86,1.12,1.12,1.79,.15,.3,.28,.62,.39,.95,.11,.34,.22,.67,.34,1.01,.07,.34,.16,.67,.25,1.01,.09,.34,.18,.69,.25,1.06,.07,.34,.12,.68,.14,1.04,.02,.36,.05,.72,.08,1.09,.04,.34,.06,.68,.06,1.04v2.88Zm-.73,0c.04-.3,.04-.6,0-.9-.04-.3-.06-.6-.06-.9v-2.02c-.04-.37-.07-.73-.08-1.06-.02-.34-.07-.65-.14-.95-.08-.37-.16-.72-.25-1.04-.09-.32-.18-.64-.25-.98-.08-.34-.17-.66-.28-.98-.11-.32-.22-.62-.34-.92-.19-.34-.36-.64-.5-.92-.15-.28-.32-.57-.5-.87-.41-.6-.93-1.14-1.57-1.62-.56-.41-1.23-.77-2.02-1.06-.34-.11-.69-.19-1.06-.22-.37-.04-.77-.07-1.18-.11-.52,.04-1.1,.19-1.74,.45-.3,.15-.56,.31-.78,.48-.22,.17-.47,.35-.73,.53-.52,.45-.93,.88-1.23,1.29-.19,.26-.36,.52-.5,.78-.15,.26-.3,.52-.45,.78-.19,.3-.33,.6-.42,.9-.09,.3-.22,.6-.36,.9l-.73,1.79-.56,1.85-.39,1.9c-.08,.3-.13,.62-.17,.95-.04,.34-.08,.65-.11,.95-.08,.34-.11,.66-.11,.98s-.02,.64-.06,.98c-.08,.37-.13,.74-.17,1.09-.04,.35-.08,.7-.11,1.04v2.18c0,.37,0,.74-.03,1.09-.02,.36,0,.7,.03,1.04,.04,.41,.07,.78,.11,1.12,.04,.34,.09,.67,.17,1.01,.07,.41,.13,.79,.17,1.15,.04,.35,.11,.68,.22,.98,.07,.41,.18,.78,.31,1.12,.13,.34,.27,.65,.42,.95,.19,.34,.38,.65,.59,.95,.21,.3,.42,.58,.64,.84,.56,.63,1.16,1.08,1.79,1.34,.71,.3,1.44,.45,2.18,.45,.63,0,1.27-.11,1.9-.34,.48-.19,1.04-.5,1.68-.95,.56-.37,1.04-.76,1.46-1.18,.22-.22,.44-.46,.64-.7,.2-.24,.4-.51,.59-.81,.19-.26,.36-.54,.53-.84,.17-.3,.34-.6,.53-.9,.19-.3,.35-.6,.5-.9,.15-.3,.3-.62,.45-.95l.67-1.96,.45-1.96c.07-.34,.14-.67,.2-1.01s.12-.69,.2-1.06c.07-.3,.14-.62,.2-.95s.1-.69,.14-1.06l.11-1.74Z"/><path class="cls-1" d="M34.66,1.18c.07,.04,.15,.04,.22,0s.13-.02,.17,.06l-.34,1.01c-.08,.3-.1,.61-.08,.92,.02,.32,0,.64-.08,.98-.04,.3-.08,.61-.14,.92s-.1,.66-.14,1.04c-.04,.3-.07,.61-.08,.92-.02,.32-.03,.64-.03,.98-.04,.3-.05,.62-.03,.95,.02,.34,0,.65-.03,.95,0,.34-.02,.66-.06,.98-.04,.32-.06,.64-.06,.98v1.9c0,.34-.02,.66-.06,.98-.04,.32-.06,.64-.06,.98v1.9c0,.34,0,.67,.03,1.01,.02,.34,.03,.67,.03,1.01l-.17,2.02c0,.37,.02,.73,.06,1.06,.04,.34,.04,.67,0,1.01,0,.34,0,.67-.03,1.01-.02,.34-.03,.67-.03,1.01l-.17,2.02-.11,2.02-.34,2.02c-.19,.82-.36,1.47-.52,1.96-.34,.86-.82,1.29-1.44,1.29-.11,0-.22-.06-.34-.17-.04-.08-.08-.23-.14-.48-.06-.24-.07-.87-.03-1.88,0-.3,0-.65-.03-1.06-.02-.41,0-.88,.03-1.4,0-.3,0-.61,.03-.92,.02-.32,.05-.64,.08-.98l.17-1.96,.17-1.9,.11-1.96c.04-.3,.09-.62,.14-.95,.06-.34,.1-.65,.14-.95,.04-.34,.05-.67,.03-1.01-.02-.34,0-.69,.03-1.06,.08-.3,.13-.62,.17-.95,.04-.34,.08-.69,.11-1.06,.04-.3,.09-.62,.14-.95,.06-.34,.1-.67,.14-1.01,.08-.34,.12-.67,.14-1.01s.05-.67,.09-1.01l.34-2.02c.04-.34,.07-.67,.09-1.01,.02-.34,.07-.67,.14-1.01l-.67,1.79-.84,1.68c-.15,.3-.3,.58-.45,.84-.15,.26-.32,.54-.5,.84-.15,.3-.32,.57-.5,.81-.19,.24-.37,.5-.56,.76-.19,.3-.36,.58-.5,.84-.15,.26-.32,.52-.5,.78-.34,0-.52-.15-.56-.45l1.12-1.74c.19-.3,.38-.6,.59-.9,.2-.3,.4-.6,.59-.9,.19-.3,.35-.61,.5-.92,.15-.32,.3-.62,.45-.92,.3-.52,.6-1.16,.9-1.9,.15-.3,.27-.62,.36-.98,.09-.35,.2-.7,.31-1.04l.73-1.96,.45-2.07c.07-.34,.14-.66,.2-.98,.06-.32,.12-.61,.2-.87,.07-.07,.14-.08,.2-.03,.06,.06,.12,.1,.2,.14Z"/></svg>