<?xml version="1.0" encoding="UTF-8"?><svg id="_イヤー_1" xmlns="http://www.w3.org/2000/svg" viewBox="0 0 47.19 35.71"><defs><style>.cls-1{fill:#550e0f;stroke:#550e0f;stroke-miterlimit:10;stroke-width:2px;}</style></defs><path class="cls-1" d="M21.83,16.34l-.17,1.79-.28,2.13c-.08,.37-.15,.73-.22,1.06-.08,.34-.15,.67-.22,1.01-.08,.37-.14,.73-.2,1.06-.06,.34-.14,.67-.25,1.01-.22,.67-.47,1.34-.73,2.02-.15,.34-.3,.66-.45,.98-.15,.32-.32,.63-.5,.92-.19,.3-.36,.61-.5,.92-.15,.32-.34,.63-.56,.92-.34,.49-.78,1.01-1.34,1.57-.26,.26-.52,.49-.78,.67-.26,.19-.52,.37-.78,.56-.3,.19-.61,.37-.92,.56-.32,.19-.63,.32-.92,.39-.67,.22-1.34,.34-2.02,.34l-.22,.06c-.6,0-1.2-.06-1.79-.17-.3-.07-.58-.17-.84-.28-.26-.11-.54-.22-.84-.34-.26-.15-.5-.31-.73-.48s-.47-.34-.73-.53c-.49-.37-.92-.76-1.29-1.18-.22-.22-.46-.48-.7-.76-.24-.28-.46-.59-.64-.92-.19-.3-.35-.61-.48-.92-.13-.32-.27-.64-.42-.98-.15-.3-.27-.62-.36-.98-.09-.35-.18-.72-.25-1.09-.08-.3-.15-.62-.22-.98-.08-.35-.13-.72-.17-1.09-.08-.34-.12-.68-.14-1.04-.02-.35-.05-.72-.08-1.09-.04-.34-.06-.68-.06-1.04v-1.15c0-.34,.03-.67,.08-1.01s.1-.71,.14-1.12c.04-.37,.06-.74,.08-1.09,.02-.35,.06-.7,.14-1.04,.07-.37,.16-.73,.25-1.06,.09-.34,.18-.67,.25-1.01,.07-.37,.16-.74,.25-1.09,.09-.35,.2-.68,.31-.98,.15-.37,.3-.73,.45-1.06,.15-.34,.3-.65,.45-.95,.19-.34,.34-.66,.48-.98,.13-.32,.29-.62,.48-.92,.22-.34,.44-.65,.64-.95,.21-.3,.4-.58,.59-.84,.22-.3,.46-.56,.7-.78,.24-.22,.49-.47,.76-.73,.3-.26,.59-.49,.87-.7,.28-.2,.57-.4,.87-.59,.56-.37,1.19-.67,1.9-.9,.15-.04,.33-.08,.53-.14,.2-.06,.46-.1,.76-.14,.3-.04,.67-.05,1.12-.03,.45,.02,1.01,.07,1.68,.14,.3,.08,.6,.16,.9,.25,.3,.09,.58,.22,.84,.36,.6,.3,1.1,.65,1.51,1.06,.41,.37,.8,.86,1.18,1.46,.48,.52,.86,1.12,1.12,1.79,.15,.3,.28,.62,.39,.95,.11,.34,.22,.67,.34,1.01,.07,.34,.16,.67,.25,1.01,.09,.34,.18,.69,.25,1.06,.07,.34,.12,.68,.14,1.04,.02,.36,.05,.72,.08,1.09,.04,.34,.06,.68,.06,1.04v2.88Zm-.73,0c.04-.3,.04-.6,0-.9-.04-.3-.06-.6-.06-.9v-2.02c-.04-.37-.07-.73-.08-1.06-.02-.34-.07-.65-.14-.95-.08-.37-.16-.72-.25-1.04-.09-.32-.18-.64-.25-.98-.08-.34-.17-.66-.28-.98-.11-.32-.22-.62-.34-.92-.19-.34-.36-.64-.5-.92-.15-.28-.32-.57-.5-.87-.41-.6-.93-1.14-1.57-1.62-.56-.41-1.23-.77-2.02-1.06-.34-.11-.69-.19-1.06-.22-.37-.04-.77-.07-1.18-.11-.52,.04-1.1,.19-1.74,.45-.3,.15-.56,.31-.78,.48-.22,.17-.47,.35-.73,.53-.52,.45-.93,.88-1.23,1.29-.19,.26-.36,.52-.5,.78-.15,.26-.3,.52-.45,.78-.19,.3-.33,.6-.42,.9-.09,.3-.22,.6-.36,.9l-.73,1.79-.56,1.85-.39,1.9c-.08,.3-.13,.62-.17,.95-.04,.34-.08,.65-.11,.95-.08,.34-.11,.66-.11,.98s-.02,.64-.06,.98c-.08,.37-.13,.74-.17,1.09-.04,.35-.08,.7-.11,1.04v2.18c0,.37,0,.74-.03,1.09-.02,.36,0,.7,.03,1.04,.04,.41,.07,.78,.11,1.12,.04,.34,.09,.67,.17,1.01,.07,.41,.13,.79,.17,1.15,.04,.35,.11,.68,.22,.98,.07,.41,.18,.78,.31,1.12,.13,.34,.27,.65,.42,.95,.19,.34,.38,.65,.59,.95,.21,.3,.42,.58,.64,.84,.56,.63,1.16,1.08,1.79,1.34,.71,.3,1.44,.45,2.18,.45,.63,0,1.27-.11,1.9-.34,.48-.19,1.04-.5,1.68-.95,.56-.37,1.04-.76,1.46-1.18,.22-.22,.44-.46,.64-.7,.2-.24,.4-.51,.59-.81,.19-.26,.36-.54,.53-.84,.17-.3,.34-.6,.53-.9,.19-.3,.35-.6,.5-.9,.15-.3,.3-.62,.45-.95l.67-1.96,.45-1.96c.07-.34,.14-.67,.2-1.01s.12-.69,.2-1.06c.07-.3,.14-.62,.2-.95s.1-.69,.14-1.06l.11-1.74Z"/><path class="cls-1" d="M45.18,4.75c.19,.3,.34,.61,.48,.92,.13,.32,.23,.64,.31,.98,.07,.34,.13,.68,.17,1.04,.04,.36,.06,.7,.06,1.04v.98c0,.32-.04,.64-.11,.98-.08,.34-.16,.66-.25,.98-.09,.32-.2,.63-.31,.92-.08,.3-.16,.62-.25,.95-.09,.34-.22,.65-.36,.95-.11,.3-.24,.6-.39,.9-.15,.3-.3,.6-.45,.9-.15,.3-.31,.58-.48,.84-.17,.26-.35,.54-.53,.84-.19,.3-.36,.58-.53,.84-.17,.26-.35,.54-.53,.84-.19,.3-.36,.58-.53,.84-.17,.26-.35,.54-.53,.84-.19,.26-.39,.51-.62,.76-.22,.24-.45,.5-.67,.76-.19,.26-.37,.53-.56,.81-.19,.28-.37,.53-.56,.76-.22,.3-.46,.56-.7,.78-.24,.22-.5,.47-.76,.73-.22,.3-.46,.56-.7,.78-.24,.22-.48,.47-.7,.73l-1.46,1.51-1.57,1.34c-.3,.26-.56,.51-.78,.76-.22,.24-.49,.46-.78,.64-.3,.26-.58,.5-.84,.7-.26,.21-.52,.4-.78,.59,.19-.04,.4-.07,.64-.11,.24-.04,.48-.07,.7-.11,.26-.04,.54-.07,.84-.11,.37,0,.72,.03,1.04,.08,.32,.06,.62,.12,.92,.2l1.9,.5c.3,.08,.57,.14,.81,.2,.24,.06,.51,.12,.81,.2,.3,.08,.58,.11,.84,.11h.84c.26,0,.54-.02,.84-.06,.22-.04,.48-.06,.76-.08,.28-.02,.51-.06,.7-.14,.34-.11,.66-.26,.98-.45,.32-.19,.66-.39,1.04-.62,.3-.19,.59-.39,.87-.62,.28-.22,.62-.43,1.04-.62,.04,0,.1,.08,.2,.22,.09,.15,.16,.26,.2,.34-.45,.41-.93,.78-1.46,1.12-.3,.19-.57,.35-.81,.48-.24,.13-.51,.25-.81,.36-.49,.26-1.05,.45-1.68,.56-.19,.07-.38,.11-.59,.11s-.4,.02-.59,.06c-.22,.04-.45,.06-.67,.06-.64,0-1.23-.06-1.79-.17-.3-.08-.58-.15-.84-.22-.26-.08-.54-.15-.84-.22-.3-.07-.61-.14-.92-.2-.32-.06-.63-.12-.92-.2-.3-.07-.6-.12-.9-.14s-.6-.05-.9-.08h-.11c-.52,0-1.08,.06-1.68,.17-.26,.08-.52,.14-.78,.2-.26,.06-.54,.14-.84,.25-.52,.19-1.03,.41-1.51,.67-.07,0-.11-.03-.11-.08s-.04-.12-.11-.2c-.04-.08-.08-.13-.14-.17-.06-.04-.06-.09-.03-.17,.6-.3,1.2-.69,1.79-1.18,.3-.22,.57-.46,.81-.7,.24-.24,.51-.5,.81-.76l1.57-1.51,1.4-1.62c.22-.26,.44-.54,.64-.84,.21-.3,.42-.6,.64-.9l1.4-1.62,1.23-1.74c.19-.3,.36-.59,.53-.87s.34-.57,.53-.87l1.01-1.68c.19-.3,.36-.59,.53-.87s.33-.57,.48-.87c.19-.3,.36-.59,.53-.87,.17-.28,.33-.57,.48-.87,.15-.3,.27-.61,.36-.92,.09-.32,.21-.62,.36-.92,.15-.34,.29-.65,.42-.95,.13-.3,.23-.6,.31-.9,.22-.63,.39-1.29,.5-1.96,.07-.34,.12-.67,.14-1.01,.02-.34,.03-.65,.03-.95s0-.59,.03-.87c.02-.28,0-.57-.03-.87-.04-.3-.09-.59-.17-.87-.08-.28-.15-.55-.22-.81-.08-.3-.16-.59-.25-.87-.09-.28-.22-.53-.36-.76-.41-.63-.95-1.1-1.62-1.4-.64-.34-1.33-.5-2.07-.5h-1.01c-.3,0-.6,.04-.9,.11-.34,.08-.65,.16-.95,.25-.3,.09-.6,.2-.9,.31-.67,.3-1.21,.64-1.62,1.01-.26,.19-.48,.41-.64,.67-.17,.26-.35,.52-.53,.78-.19,.3-.36,.59-.53,.87-.17,.28-.29,.57-.36,.87-.15,.56-.22,1.18-.22,1.85s.07,1.23,.22,1.68c.07,.3,.17,.58,.28,.84,.11,.26,.26,.5,.45,.73,.3,.41,.75,.75,1.34,1.01,.04,.37-.08,.6-.34,.67-.3-.15-.57-.34-.81-.56-.24-.22-.46-.47-.64-.73-.41-.56-.73-1.12-.95-1.68-.15-.56-.22-1.21-.22-1.96h-.06c0-.3,.03-.6,.08-.9s.12-.6,.2-.9c.19-.67,.41-1.25,.67-1.74,.3-.6,.65-1.1,1.06-1.51,.63-.63,1.25-1.1,1.85-1.4,.75-.37,1.47-.63,2.18-.78,.37-.07,.76-.14,1.15-.2,.39-.06,.79-.08,1.2-.08,.37,0,.73,.03,1.06,.08,.34,.06,.67,.12,1.01,.2,.82,.11,1.47,.3,1.96,.56,.67,.34,1.25,.75,1.74,1.23,.26,.22,.48,.49,.67,.78,.19,.3,.37,.6,.56,.9Z"/></svg>