<?xml version="1.0" encoding="UTF-8"?><svg id="_イヤー_1" xmlns="http://www.w3.org/2000/svg" viewBox="0 0 47.36 35.24"><defs><style>.cls-1{fill:#550e0f;stroke:#550e0f;stroke-miterlimit:10;stroke-width:2px;}</style></defs><path class="cls-1" d="M21.83,16.27l-.17,1.79-.28,2.13c-.08,.37-.15,.73-.22,1.06-.08,.34-.15,.67-.22,1.01-.08,.37-.14,.73-.2,1.06-.06,.34-.14,.67-.25,1.01-.22,.67-.47,1.34-.73,2.02-.15,.34-.3,.66-.45,.98-.15,.32-.32,.63-.5,.92-.19,.3-.36,.61-.5,.92-.15,.32-.34,.63-.56,.92-.34,.49-.78,1.01-1.34,1.57-.26,.26-.52,.49-.78,.67-.26,.19-.52,.37-.78,.56-.3,.19-.61,.37-.92,.56-.32,.19-.63,.32-.92,.39-.67,.22-1.34,.34-2.02,.34l-.22,.06c-.6,0-1.2-.06-1.79-.17-.3-.07-.58-.17-.84-.28-.26-.11-.54-.22-.84-.34-.26-.15-.5-.31-.73-.48s-.47-.34-.73-.53c-.49-.37-.92-.76-1.29-1.18-.22-.22-.46-.48-.7-.76-.24-.28-.46-.59-.64-.92-.19-.3-.35-.61-.48-.92-.13-.32-.27-.64-.42-.98-.15-.3-.27-.62-.36-.98-.09-.35-.18-.72-.25-1.09-.08-.3-.15-.62-.22-.98-.08-.35-.13-.72-.17-1.09-.08-.34-.12-.68-.14-1.04-.02-.35-.05-.72-.08-1.09-.04-.34-.06-.68-.06-1.04v-1.15c0-.34,.03-.67,.08-1.01s.1-.71,.14-1.12c.04-.37,.06-.74,.08-1.09,.02-.35,.06-.7,.14-1.04,.07-.37,.16-.73,.25-1.06,.09-.34,.18-.67,.25-1.01,.07-.37,.16-.74,.25-1.09,.09-.35,.2-.68,.31-.98,.15-.37,.3-.73,.45-1.06,.15-.34,.3-.65,.45-.95,.19-.34,.34-.66,.48-.98,.13-.32,.29-.62,.48-.92,.22-.34,.44-.65,.64-.95,.21-.3,.4-.58,.59-.84,.22-.3,.46-.56,.7-.78,.24-.22,.49-.47,.76-.73,.3-.26,.59-.49,.87-.7,.28-.2,.57-.4,.87-.59,.56-.37,1.19-.67,1.9-.9,.15-.04,.33-.08,.53-.14,.2-.06,.46-.1,.76-.14,.3-.04,.67-.05,1.12-.03,.45,.02,1.01,.07,1.68,.14,.3,.08,.6,.16,.9,.25,.3,.09,.58,.22,.84,.36,.6,.3,1.1,.65,1.51,1.06,.41,.37,.8,.86,1.18,1.46,.48,.52,.86,1.12,1.12,1.79,.15,.3,.28,.62,.39,.95,.11,.34,.22,.67,.34,1.01,.07,.34,.16,.67,.25,1.01,.09,.34,.18,.69,.25,1.06,.07,.34,.12,.68,.14,1.04,.02,.36,.05,.72,.08,1.09,.04,.34,.06,.68,.06,1.04v2.88Zm-.73,0c.04-.3,.04-.6,0-.9-.04-.3-.06-.6-.06-.9v-2.02c-.04-.37-.07-.73-.08-1.06-.02-.34-.07-.65-.14-.95-.08-.37-.16-.72-.25-1.04-.09-.32-.18-.64-.25-.98-.08-.34-.17-.66-.28-.98-.11-.32-.22-.62-.34-.92-.19-.34-.36-.64-.5-.92-.15-.28-.32-.57-.5-.87-.41-.6-.93-1.14-1.57-1.62-.56-.41-1.23-.77-2.02-1.06-.34-.11-.69-.19-1.06-.22-.37-.04-.77-.07-1.18-.11-.52,.04-1.1,.19-1.74,.45-.3,.15-.56,.31-.78,.48-.22,.17-.47,.35-.73,.53-.52,.45-.93,.88-1.23,1.29-.19,.26-.36,.52-.5,.78-.15,.26-.3,.52-.45,.78-.19,.3-.33,.6-.42,.9-.09,.3-.22,.6-.36,.9l-.73,1.79-.56,1.85-.39,1.9c-.08,.3-.13,.62-.17,.95-.04,.34-.08,.65-.11,.95-.08,.34-.11,.66-.11,.98s-.02,.64-.06,.98c-.08,.37-.13,.74-.17,1.09-.04,.35-.08,.7-.11,1.04v2.18c0,.37,0,.74-.03,1.09-.02,.36,0,.7,.03,1.04,.04,.41,.07,.78,.11,1.12,.04,.34,.09,.67,.17,1.01,.07,.41,.13,.79,.17,1.15,.04,.35,.11,.68,.22,.98,.07,.41,.18,.78,.31,1.12,.13,.34,.27,.65,.42,.95,.19,.34,.38,.65,.59,.95,.21,.3,.42,.58,.64,.84,.56,.63,1.16,1.08,1.79,1.34,.71,.3,1.44,.45,2.18,.45,.63,0,1.27-.11,1.9-.34,.48-.19,1.04-.5,1.68-.95,.56-.37,1.04-.76,1.46-1.18,.22-.22,.44-.46,.64-.7,.2-.24,.4-.51,.59-.81,.19-.26,.36-.54,.53-.84,.17-.3,.34-.6,.53-.9,.19-.3,.35-.6,.5-.9,.15-.3,.3-.62,.45-.95l.67-1.96,.45-1.96c.07-.34,.14-.67,.2-1.01s.12-.69,.2-1.06c.07-.3,.14-.62,.2-.95s.1-.69,.14-1.06l.11-1.74Z"/><path class="cls-1" d="M45.69,4.73c.19,.34,.31,.67,.36,1.01s.12,.65,.2,.95c.07,.37,.11,.73,.11,1.06v.9c-.04,.67-.15,1.38-.34,2.13-.08,.34-.16,.68-.25,1.04-.09,.36-.22,.68-.36,.98-.15,.34-.34,.64-.56,.92-.22,.28-.43,.57-.62,.87-.34,.45-.77,.9-1.29,1.34-.22,.22-.44,.44-.64,.64-.21,.21-.46,.4-.76,.59-.26,.15-.53,.28-.81,.39-.28,.11-.57,.22-.87,.34,.45,.08,.86,.17,1.23,.28,.37,.11,.73,.24,1.06,.39,.41,.19,.78,.37,1.12,.56,.34,.19,.65,.43,.95,.73,.41,.49,.76,1.06,1.06,1.74,.11,.3,.21,.61,.31,.92,.09,.32,.18,.66,.25,1.04,.04,.3,.05,.62,.03,.95-.02,.34-.03,.69-.03,1.06-.04,.3-.06,.6-.06,.9s-.04,.6-.11,.9c-.19,.63-.41,1.2-.67,1.68-.26,.64-.54,1.16-.84,1.57-.19,.26-.38,.5-.59,.73-.21,.22-.42,.43-.64,.62-.3,.26-.61,.49-.92,.67-.32,.19-.64,.37-.98,.56-.6,.3-1.33,.54-2.18,.73-.37,.08-.74,.15-1.09,.22-.35,.08-.74,.11-1.15,.11-.26,0-.5-.02-.73-.06-.41,0-.8-.04-1.18-.11-.75-.07-1.36-.21-1.85-.39-.56-.15-1.12-.41-1.68-.78-.52-.34-1.01-.75-1.46-1.23-.22-.22-.43-.47-.62-.73-.19-.26-.36-.52-.5-.78-.26-.48-.45-1.08-.56-1.79-.08-.3-.12-.62-.14-.95-.02-.34-.03-.65-.03-.95,0-.11,0-.24-.03-.39-.02-.15-.03-.3-.03-.45,.19-.07,.31-.08,.36-.03,.06,.06,.18,.12,.36,.2-.04,.11-.05,.22-.03,.34,.02,.11,.03,.22,.03,.34,0,.34,0,.67,.03,1.01,.02,.34,.08,.67,.2,1.01,.07,.3,.19,.6,.34,.9,.15,.3,.32,.6,.5,.9,.19,.3,.38,.57,.59,.81,.21,.24,.46,.48,.76,.7,.52,.41,1.1,.75,1.74,1.01,.56,.22,1.19,.39,1.9,.5,.15,.04,.34,.07,.56,.08,.22,.02,.45,.05,.67,.08,.26,.04,.52,.06,.78,.06,.34,0,.64-.04,.92-.11,.28-.07,.57-.17,.87-.28,.71-.26,1.25-.58,1.62-.95,.22-.22,.42-.46,.59-.7s.34-.51,.53-.81c.3-.45,.54-.99,.73-1.62,.11-.3,.21-.59,.31-.87,.09-.28,.18-.57,.25-.87,.07-.3,.12-.6,.14-.9,.02-.3,.05-.6,.08-.9,0-.34,0-.67-.03-1.01-.02-.34-.05-.65-.08-.95-.08-.71-.19-1.34-.34-1.9-.15-.3-.31-.6-.48-.9-.17-.3-.35-.56-.53-.78-.56-.48-1.23-.88-2.02-1.18-.75-.19-1.51-.28-2.3-.28-.08-.04-.1-.08-.08-.14,.02-.06,.03-.12,.03-.2s0-.13-.03-.17c-.02-.04,0-.09,.08-.17,.22-.04,.45-.06,.67-.08,.22-.02,.45-.06,.67-.14,.78-.19,1.42-.52,1.9-1.01,.52-.41,.97-.97,1.34-1.68,.19-.34,.34-.67,.48-1.01,.13-.34,.25-.67,.36-1.01,.3-.78,.5-1.49,.62-2.13,.07-.48,.12-.91,.14-1.29,.02-.37,.03-.65,.03-.84,.07-.71,.06-1.4-.06-2.07-.08-.34-.15-.67-.22-1.01-.08-.34-.19-.65-.34-.95-.15-.34-.3-.65-.45-.95-.15-.3-.36-.58-.62-.84-.78-.78-1.68-1.18-2.69-1.18-.9,0-1.64,.08-2.24,.22-.78,.19-1.48,.45-2.07,.78-.41,.19-.76,.41-1.04,.67-.28,.26-.51,.5-.7,.73-.22,.19-.42,.39-.59,.62-.17,.22-.35,.47-.53,.73-.15,.26-.26,.53-.34,.81-.08,.28-.15,.57-.22,.87-.08,.3-.16,.58-.25,.84-.09,.26-.14,.54-.14,.84,0,.78,.19,1.55,.56,2.3,.34,.71,.86,1.27,1.57,1.68,.07,.26-.04,.45-.34,.56-.26-.15-.51-.31-.76-.48-.24-.17-.46-.38-.64-.64-.19-.22-.34-.48-.45-.76-.11-.28-.22-.57-.34-.87-.08-.3-.14-.59-.2-.87-.06-.28-.08-.59-.08-.92,0-.6,.09-1.23,.28-1.9,.15-.6,.41-1.19,.78-1.79,.22-.49,.6-1.01,1.12-1.57,.19-.19,.4-.36,.64-.53,.24-.17,.51-.34,.81-.53,.48-.3,1.03-.56,1.62-.78,.26-.11,.53-.21,.81-.31,.28-.09,.59-.18,.92-.25,.26-.07,.54-.1,.84-.08,.3,.02,.62,.03,.95,.03h1.12c.34,0,.67,.04,1.01,.11,.37,.08,.73,.17,1.06,.28,.34,.11,.65,.24,.95,.39,.3,.19,.6,.37,.9,.56,.3,.19,.56,.43,.78,.73,.26,.26,.48,.52,.64,.78s.33,.54,.48,.84Z"/></svg>