<?xml version="1.0" encoding="UTF-8"?><svg id="_イヤー_1" xmlns="http://www.w3.org/2000/svg" viewBox="0 0 116.66 35.67"><defs><style>.cls-1{fill:#550e0f;stroke:#550e0f;stroke-miterlimit:10;}</style></defs><path class="cls-1" d="M27.86,13.22c.03,.21,.03,.44,.02,.68-.01,.24,0,.47,.02,.68,0,.24,.01,.48,.04,.72,.03,.24,.04,.47,.04,.68,0,.24-.01,.48-.04,.72-.03,.24-.05,.47-.08,.68,0,.24-.01,.47-.04,.7-.03,.23-.07,.46-.12,.7-.03,.24-.05,.47-.08,.7-.03,.23-.07,.45-.12,.66l-.28,1.36c-.05,.24-.11,.47-.16,.7-.05,.23-.12,.45-.2,.66-.05,.21-.11,.44-.16,.68-.05,.24-.12,.47-.2,.68l-.48,1.28c-.11,.21-.21,.42-.32,.62-.11,.2-.23,.41-.36,.62-.21,.45-.45,.85-.72,1.2-.24,.37-.51,.76-.8,1.16-.13,.19-.29,.36-.46,.52-.17,.16-.34,.32-.5,.48-.16,.19-.31,.37-.46,.54-.15,.17-.31,.34-.5,.5l-1.12,.92c-.4,.29-.78,.56-1.16,.8-.37,.24-.79,.49-1.24,.76-.21,.11-.43,.2-.66,.28-.23,.08-.45,.16-.66,.24l-1.36,.44c-.24,.05-.47,.1-.7,.14s-.46,.09-.7,.14c-.51,.13-.97,.21-1.4,.24-.24,.03-.48,.04-.72,.04h-.72c-.24,0-.48,0-.72,.02-.24,.01-.47,0-.68-.02l-1.4-.12c-.24-.03-.48-.05-.72-.08-.24-.03-.47-.07-.68-.12-.24-.05-.47-.1-.7-.14-.23-.04-.45-.09-.66-.14-.24-.08-.47-.16-.7-.24-.23-.08-.45-.17-.66-.28-.21-.11-.42-.21-.62-.32-.2-.11-.39-.23-.58-.36-.45-.32-.8-.61-1.04-.88-.16-.16-.29-.34-.38-.54-.09-.2-.19-.39-.3-.58-.21-.37-.39-.79-.52-1.24-.05-.21-.11-.43-.16-.64-.05-.21-.08-.43-.08-.64,0-.53,.05-1.01,.16-1.44,.05-.24,.13-.47,.24-.7s.21-.45,.32-.66c.08-.21,.17-.43,.26-.66,.09-.23,.21-.45,.34-.66,.24-.4,.52-.8,.84-1.2,.13-.19,.29-.36,.48-.52,.19-.16,.37-.32,.56-.48,.19-.16,.37-.31,.56-.44,.19-.13,.39-.27,.6-.4,.21-.13,.41-.27,.6-.42s.39-.29,.6-.42c.21-.13,.43-.23,.64-.3,.21-.07,.43-.15,.64-.26,.21,.11,.28,.25,.2,.44-.21,.08-.43,.16-.64,.24s-.43,.17-.64,.28c-.21,.13-.4,.27-.56,.4-.16,.13-.35,.27-.56,.4-.19,.13-.37,.27-.54,.42-.17,.15-.34,.3-.5,.46-.19,.16-.37,.31-.54,.44-.17,.13-.33,.29-.46,.48-.32,.37-.6,.73-.84,1.08-.13,.21-.24,.43-.32,.64-.08,.21-.16,.43-.24,.64-.11,.21-.2,.43-.28,.64-.08,.21-.15,.43-.2,.64-.11,.4-.16,.85-.16,1.36,0,.29,.01,.57,.04,.82,.03,.25,.08,.51,.16,.78,.19,.43,.48,.87,.88,1.32,.16,.21,.33,.43,.5,.64,.17,.21,.38,.4,.62,.56,.19,.13,.38,.24,.58,.32,.2,.08,.41,.17,.62,.28,.21,.11,.43,.19,.64,.24,.21,.05,.43,.11,.64,.16,.21,.08,.43,.15,.64,.2,.21,.05,.44,.11,.68,.16,.21,.05,.43,.09,.66,.12,.23,.03,.45,.05,.66,.08,.21,.05,.43,.09,.66,.12,.23,.03,.46,.05,.7,.08,.21,.03,.43,.03,.66,0,.23-.03,.46-.04,.7-.04h.74c.25,0,.49-.01,.7-.04,.27-.03,.51-.07,.74-.12,.23-.05,.46-.11,.7-.16,.24-.05,.47-.12,.7-.2,.23-.08,.45-.16,.66-.24,.24-.08,.48-.15,.72-.22,.24-.07,.47-.17,.68-.3,.21-.11,.42-.22,.62-.34,.2-.12,.41-.25,.62-.38,.21-.13,.4-.29,.56-.46,.16-.17,.33-.34,.52-.5,.19-.16,.37-.31,.56-.46,.19-.15,.36-.31,.52-.5l.92-1.12c.13-.21,.29-.41,.46-.58s.33-.37,.46-.58c.13-.21,.24-.43,.32-.64,.08-.21,.19-.43,.32-.64,.11-.21,.23-.43,.36-.64,.13-.21,.24-.43,.32-.64,.11-.21,.21-.43,.3-.66,.09-.23,.18-.46,.26-.7,.08-.21,.15-.44,.22-.68,.07-.24,.13-.48,.18-.72,.16-.43,.28-.89,.36-1.4,.05-.21,.1-.44,.14-.68s.09-.48,.14-.72c.05-.24,.09-.48,.12-.72,.03-.24,.05-.48,.08-.72l.12-1.48c0-.24,.02-.48,.06-.72,.04-.24,.06-.48,.06-.72v-.72c0-.24-.01-.47-.04-.68,0-.24-.02-.48-.06-.72-.04-.24-.09-.48-.14-.72-.03-.24-.05-.47-.06-.7-.01-.23-.05-.46-.1-.7-.05-.24-.11-.47-.16-.7-.05-.23-.11-.46-.16-.7-.05-.21-.1-.44-.14-.68-.04-.24-.1-.47-.18-.68-.08-.24-.18-.46-.3-.66-.12-.2-.23-.41-.34-.62-.11-.21-.2-.43-.28-.64-.08-.21-.19-.43-.32-.64-.13-.21-.27-.42-.4-.62-.13-.2-.27-.39-.4-.58-.13-.21-.29-.39-.46-.54-.17-.15-.35-.3-.54-.46-.29-.32-.64-.64-1.04-.96-.21-.16-.41-.32-.58-.48-.17-.16-.37-.31-.58-.44-.21-.13-.43-.23-.66-.3-.23-.07-.46-.15-.7-.26-.21-.08-.43-.17-.64-.28-.21-.11-.44-.19-.68-.24-.24-.05-.48-.09-.72-.1-.24-.01-.48-.03-.72-.06-.48-.08-.97-.12-1.48-.12-.21,0-.44,0-.68,.02-.24,.01-.48,.03-.72,.06-.24,.03-.47,.04-.7,.04s-.46,.03-.7,.08c-.24,.03-.47,.07-.7,.14-.23,.07-.45,.13-.66,.18-.24,.05-.48,.09-.72,.1-.24,.01-.47,.06-.68,.14-.21,.08-.43,.16-.66,.24-.23,.08-.45,.17-.66,.28-.4,.13-.83,.32-1.28,.56-.21,.13-.42,.26-.62,.38-.2,.12-.39,.25-.58,.38-.24,.13-.45,.29-.64,.48-.19,.19-.37,.37-.56,.56-.21,.19-.41,.37-.6,.54-.19,.17-.36,.37-.52,.58-.29,.4-.55,.84-.76,1.32-.27,.59-.4,1.09-.4,1.52,0,.48,.09,.89,.28,1.24,.08,.19,.2,.35,.36,.48,.16,.13,.33,.27,.52,.4,.16,.13,.33,.25,.5,.36,.17,.11,.37,.2,.58,.28,.08,.27,.03,.44-.16,.52-.53-.19-.97-.43-1.32-.72-.37-.29-.67-.68-.88-1.16-.27-.48-.4-.95-.4-1.4,0-.21,.03-.43,.1-.66,.07-.23,.13-.45,.18-.66,.08-.21,.16-.42,.24-.62,.08-.2,.19-.41,.32-.62,.13-.19,.26-.37,.38-.56,.12-.19,.26-.37,.42-.56,.13-.16,.29-.31,.48-.44,.19-.13,.37-.28,.56-.44,.16-.13,.32-.27,.48-.42,.16-.15,.35-.29,.56-.42,.21-.13,.42-.27,.62-.4,.2-.13,.41-.27,.62-.4,.21-.13,.43-.23,.66-.28,.23-.05,.46-.13,.7-.24,.21-.08,.43-.18,.64-.3,.21-.12,.44-.21,.68-.26,.21-.08,.45-.13,.7-.16,.25-.03,.5-.07,.74-.12,.21-.05,.44-.11,.68-.16,.24-.05,.48-.11,.72-.16,.24-.05,.48-.09,.72-.1,.24-.01,.48-.03,.72-.06,.24,0,.48,0,.72-.02,.24-.01,.48-.02,.72-.02h.72c.24,0,.47,.01,.68,.04h.72c.24,0,.47,.03,.68,.08,.24,.05,.47,.11,.7,.16,.23,.05,.45,.11,.66,.16,.24,.05,.47,.11,.7,.18,.23,.07,.45,.14,.66,.22,.4,.13,.83,.32,1.28,.56,.21,.11,.41,.23,.6,.36,.19,.13,.39,.27,.6,.4,.21,.13,.41,.25,.6,.36,.19,.11,.37,.24,.56,.4,.19,.13,.35,.29,.5,.48,.15,.19,.3,.37,.46,.56,.16,.16,.32,.32,.48,.48,.16,.16,.31,.33,.44,.52,.13,.21,.27,.41,.4,.58,.13,.17,.27,.37,.4,.58,.13,.21,.26,.41,.39,.6,.13,.19,.25,.39,.35,.6,.1,.21,.19,.43,.25,.64,.06,.21,.14,.44,.22,.68,.08,.21,.16,.43,.23,.64,.08,.21,.14,.44,.2,.68,.05,.21,.1,.43,.16,.66,.05,.23,.1,.46,.16,.7l.2,1.4ZM10.46,24.54c.03-.27,.03-.53,.02-.78-.01-.25,0-.51,.02-.78l.16-1.6c.03-.27,.04-.53,.04-.78s.03-.51,.08-.78l.16-1.4,.12-1.4c.03-.21,.06-.43,.1-.66,.04-.23,.07-.46,.1-.7l.16-1.4c.05-.21,.07-.44,.06-.68-.01-.24,0-.48,.02-.72l.24-1.36,.16-1.4,.24-1.36c.05-.24,.08-.48,.08-.72s.03-.47,.08-.68l.56-2.72c.05-.05,.09-.06,.12-.02s.08,.07,.16,.1h.04l-.04-.04c.05,.03,.1,.03,.14,.02,.04-.01,.07,0,.1,.06-.05,.21-.11,.43-.16,.66-.05,.23-.11,.47-.16,.74-.03,.21-.05,.44-.06,.68-.01,.24-.05,.48-.1,.72l-.08,1.44-.12,1.4-.08,1.44v2.84c0,.21,0,.44-.02,.68-.01,.24-.03,.48-.06,.72v1.44c-.03,.21-.03,.44,0,.68,.03,.24,.03,.47,0,.68,0,.24-.01,.47-.04,.7-.03,.23-.04,.45-.04,.66-.03,.24-.03,.48,0,.72,.03,.24,.03,.47,0,.68,0,.21,0,.44-.02,.68-.01,.24-.02,.47-.02,.68,0,.24-.01,.47-.04,.7-.03,.23-.04,.46-.04,.7l-.08,1.36c-.03,.24-.03,.47-.02,.7,.01,.23,0,.45-.02,.66-.03,.24-.07,.46-.12,.66-.05,.2-.09,.41-.12,.62-.03,.24-.04,.47-.04,.68s-.03,.41-.08,.6c-.05,.27-.12,.5-.2,.7-.08,.2-.15,.38-.2,.54-.24,.53-.53,.8-.88,.8-.08,0-.16-.04-.24-.12-.03-.05-.06-.15-.1-.28-.04-.13-.06-.47-.06-1v-1.32c0-.19,.01-.39,.04-.6,.03-.21,.04-.44,.04-.68,.03-.24,.05-.49,.06-.76,.01-.27,.02-.55,.02-.84l.12-1.56Z"/><path class="cls-1" d="M42.34,31.5h.4c.13,0,.27-.01,.4-.04,.24-.03,.51-.09,.8-.2,.32-.08,.57-.19,.76-.32,.13-.05,.25-.12,.36-.2,.11-.08,.23-.16,.36-.24l.6-.56,.44-.72c.16-.27,.29-.51,.4-.72,.05-.13,.11-.26,.16-.38,.05-.12,.11-.25,.16-.38,.05-.13,.1-.27,.14-.4,.04-.13,.07-.27,.1-.4,.13-.03,.23-.03,.28-.02,.05,.01,.13,.07,.24,.18l-.24,.8c-.05,.13-.11,.26-.18,.38-.07,.12-.13,.25-.18,.38l-.36,.72-.48,.68-.56,.64c-.08,.08-.17,.17-.26,.26s-.21,.17-.34,.22c-.11,.08-.22,.15-.34,.2-.12,.05-.25,.11-.38,.16-.24,.13-.48,.21-.72,.24-.13,.05-.27,.1-.4,.14-.13,.04-.27,.07-.4,.1-.13,0-.26,0-.38,.02-.12,.01-.25,.02-.38,.02-.35,0-.68-.04-1-.12-.16-.05-.32-.09-.48-.12-.16-.03-.31-.08-.44-.16-.11,.13-.21,.24-.3,.32-.09,.08-.19,.17-.3,.28-.13,.13-.25,.24-.34,.32-.09,.08-.21,.17-.34,.28-.21,.19-.47,.36-.76,.52-.13,.08-.27,.15-.4,.22s-.27,.13-.4,.18c-.35,.11-.64,.17-.88,.2-.29,.08-.59,.12-.88,.12h-.04c-.13,0-.28,0-.44-.02-.16-.01-.31-.03-.44-.06-.13-.03-.27-.06-.42-.1-.15-.04-.29-.09-.42-.14-.13-.05-.27-.1-.42-.14-.15-.04-.29-.1-.42-.18-.13-.05-.25-.13-.36-.22-.11-.09-.23-.19-.36-.3l-.72-.56-.48-.72-.44-.76c-.05-.13-.11-.27-.16-.42-.05-.15-.11-.29-.16-.42-.13-.29-.24-.56-.32-.8-.05-.13-.08-.28-.08-.44s-.03-.31-.08-.44l-.12-.88c0-.13,0-.27-.02-.42-.01-.15-.02-.3-.02-.46v-.42c0-.15,.01-.3,.04-.46,0-.13,0-.27,.02-.42,.01-.15,.02-.3,.02-.46l.12-.84,.2-.8c.05-.13,.08-.27,.08-.42s.03-.29,.08-.42l.36-.76c.05-.13,.1-.27,.14-.4,.04-.13,.09-.27,.14-.4l.4-.72,.48-.72c.08-.13,.17-.25,.26-.34s.18-.19,.26-.3c.11-.13,.21-.25,.32-.34,.11-.09,.21-.18,.32-.26,.13-.11,.25-.21,.36-.3,.11-.09,.23-.18,.36-.26,.13-.08,.25-.17,.36-.26,.11-.09,.23-.17,.36-.22,.13-.08,.27-.15,.42-.2,.15-.05,.29-.11,.42-.16,.13-.05,.27-.09,.42-.12,.15-.03,.29-.05,.42-.08,.13-.03,.27-.05,.42-.06,.15-.01,.3-.02,.46-.02,.11,.16,.11,.32,0,.48-.27,0-.53,.04-.8,.12-.24,.11-.47,.25-.68,.44-.13,.05-.25,.13-.34,.22s-.19,.19-.3,.3l-.26,.26c-.09,.09-.18,.21-.26,.34-.19,.21-.33,.44-.44,.68l-.48,.72c-.05,.13-.11,.27-.16,.4-.05,.13-.11,.27-.16,.4l-.32,.76-.4,1.68-.16,.8c-.03,.13-.04,.27-.04,.42v.46c-.03,.13-.05,.27-.08,.42-.03,.15-.04,.3-.04,.46-.03,.13-.03,.28-.02,.44,.01,.16,.02,.31,.02,.44-.03,.16-.04,.31-.04,.46v.88c0,.15,.01,.3,.04,.46,0,.13,0,.28,.02,.44,.01,.16,.03,.31,.06,.44l.16,.88,.28,.84c.05,.13,.11,.27,.16,.4,.05,.13,.12,.27,.2,.4,.13,.32,.29,.57,.48,.76,.19,.19,.41,.35,.68,.48,.16,.11,.4,.21,.72,.32,.27,.08,.53,.12,.8,.12v.04c.08,0,.15,0,.22-.02,.07-.01,.13-.02,.18-.02,.13-.03,.28-.05,.44-.08,.16-.03,.31-.07,.44-.12,.29-.11,.55-.23,.76-.36,.24-.16,.47-.35,.68-.56l.6-.64c.16-.19,.32-.43,.48-.72-.11-.08-.2-.17-.28-.26-.08-.09-.17-.19-.28-.3-.11-.11-.21-.2-.3-.28-.09-.08-.18-.19-.26-.32-.08-.13-.16-.25-.24-.36-.08-.11-.15-.23-.2-.36-.08-.13-.16-.25-.24-.36-.08-.11-.15-.23-.2-.36-.05-.13-.1-.26-.14-.38s-.09-.25-.14-.38l-.24-.8c-.05-.13-.09-.27-.1-.4-.01-.13-.03-.27-.06-.4-.05-.13-.1-.27-.14-.4-.04-.13-.07-.27-.1-.4l-.08-.84c0-.13-.01-.27-.04-.4-.03-.13-.04-.27-.04-.4-.03-.13-.03-.27-.02-.42,.01-.15,.02-.29,.02-.42v-.46c0-.15,.01-.29,.04-.42,0-.16,0-.31,.02-.46,.01-.15,.03-.3,.06-.46,.03-.13,.04-.28,.04-.44s.03-.31,.08-.44l.24-.84c.05-.16,.11-.31,.16-.44,.05-.13,.11-.27,.16-.4,.05-.13,.12-.27,.2-.4,.08-.13,.15-.25,.2-.36l.6-.64c.27-.21,.51-.36,.72-.44,.24-.11,.52-.16,.84-.16,.37,0,.72,.08,1.04,.24,.35,.16,.63,.37,.84,.64,.24,.24,.43,.48,.56,.72l.36,.84,.24,.88c.05,.13,.09,.28,.1,.44,.01,.16,.03,.31,.06,.44l.12,.92c0,.13,.01,.28,.04,.44,.03,.16,.04,.32,.04,.48v.44c0,.16-.01,.31-.04,.44,0,.16,0,.31,.02,.46,.01,.15,0,.3-.02,.46,0,.16,0,.31-.02,.46-.01,.15-.03,.3-.06,.46-.03,.13-.05,.27-.06,.4-.01,.13-.05,.27-.1,.4-.03,.13-.04,.27-.04,.4s-.03,.27-.08,.4c-.05,.13-.1,.26-.14,.38-.04,.12-.09,.25-.14,.38l-.28,.76c-.05,.13-.1,.26-.14,.38-.04,.12-.09,.25-.14,.38l-.4,.68c-.05,.13-.11,.25-.18,.36-.07,.11-.14,.23-.22,.36-.08,.13-.15,.25-.22,.34-.07,.09-.15,.21-.26,.34l.8,.2c.13,.03,.27,.05,.4,.06,.13,.01,.27,.02,.4,.02Zm-2.48-14.48c-.29,0-.57,.08-.84,.24-.27,.13-.51,.31-.72,.52-.08,.11-.15,.23-.22,.36-.07,.13-.14,.27-.22,.4-.05,.13-.11,.27-.18,.4s-.13,.27-.18,.4l-.24,.88c-.05,.21-.11,.51-.16,.88l-.08,.88c0,.13,0,.28-.02,.44-.01,.16-.02,.31-.02,.44s0,.27,.02,.42c.01,.15,.02,.29,.02,.42l.08,.88c.03,.13,.04,.27,.04,.42s.03,.29,.08,.42c.03,.13,.05,.27,.08,.42,.03,.15,.07,.29,.12,.42,.03,.13,.05,.27,.08,.42,.03,.15,.07,.29,.12,.42,.05,.13,.11,.27,.16,.4,.05,.13,.11,.27,.16,.4,.05,.13,.11,.26,.16,.38,.05,.12,.12,.25,.2,.38,.13,.29,.27,.55,.4,.76l.52,.68,.64,.6,.36-.76c.05-.13,.1-.26,.14-.38s.09-.25,.14-.38l.28-.8c.11-.29,.17-.55,.2-.76l.24-.8,.12-.8,.08-.84,.12-.88c.03-.13,.03-.27,.02-.42-.01-.15,0-.29,.02-.42,.03-.16,.05-.31,.06-.46,.01-.15,.02-.29,.02-.42,.03-.16,.05-.31,.06-.46,.01-.15,.02-.29,.02-.42,0-.16,0-.31-.02-.46-.01-.15-.02-.29-.02-.42,0-.16,.01-.31,.04-.46,.03-.15,.03-.29,0-.42,0-.16,0-.31-.02-.46-.01-.15-.03-.29-.06-.42l-.24-.84c-.05-.13-.11-.27-.18-.4-.07-.13-.15-.25-.26-.36-.24-.27-.56-.43-.96-.48h-.16v.04Z"/><path class="cls-1" d="M67.42,33.58c.13,0,.27,0,.42-.02,.15-.01,.29-.06,.42-.14,.11-.05,.21-.12,.32-.2,.11-.08,.21-.17,.32-.28,.24-.19,.43-.39,.56-.6,.08-.11,.15-.22,.22-.34,.07-.12,.13-.25,.18-.38,.08-.13,.16-.25,.24-.36s.15-.23,.2-.36c.05-.13,.1-.27,.14-.4,.04-.13,.09-.27,.14-.4,.05-.13,.11-.25,.18-.36,.07-.11,.13-.23,.18-.36,.05-.13,.09-.27,.12-.4,.03-.13,.07-.27,.12-.4l.48-1.6c.13-.05,.23-.07,.28-.06,.05,.01,.13,.07,.24,.18l-.24,.88c-.05,.16-.11,.31-.16,.44-.05,.13-.11,.27-.16,.4-.08,.37-.17,.67-.28,.88-.05,.13-.11,.27-.18,.4-.07,.13-.13,.27-.18,.4l-.36,.8-.44,.8c-.11,.13-.19,.26-.26,.38-.07,.12-.14,.25-.22,.38-.19,.24-.4,.45-.64,.64-.19,.16-.44,.31-.76,.44-.24,.11-.53,.16-.88,.16h-.48c-.16,0-.31-.03-.44-.08-.16-.03-.31-.07-.46-.14-.15-.07-.29-.13-.42-.18-.13-.08-.26-.17-.38-.26-.12-.09-.23-.21-.34-.34-.08-.11-.17-.22-.26-.34-.09-.12-.17-.25-.22-.38-.05-.13-.1-.27-.14-.4-.04-.13-.09-.27-.14-.4-.11-.29-.17-.57-.2-.84-.05-.19-.11-.47-.16-.84-.03-.13-.05-.27-.06-.4-.01-.13-.02-.28-.02-.44v-.42c0-.15,.01-.29,.04-.42v-.84c.03-.13,.05-.27,.08-.42,.03-.15,.04-.3,.04-.46l.16-.8,.12-.8,.2-.84,.16-.8,.08-.84,.2-.8c.03-.16,.05-.31,.08-.44,.03-.13,.05-.27,.08-.4l.08-.84c.03-.16,.05-.31,.06-.44,.01-.13,.02-.27,.02-.4-.03-.16-.05-.31-.08-.44-.03-.13-.05-.27-.08-.4-.05-.13-.1-.27-.14-.4-.04-.13-.1-.25-.18-.36-.19-.21-.39-.36-.6-.44-.24-.08-.49-.12-.76-.12v.04h-.04v-.04c-.13,0-.27,.02-.4,.06-.13,.04-.27,.09-.4,.14-.29,.11-.55,.23-.76,.36-.11,.08-.21,.16-.32,.24-.11,.08-.21,.17-.32,.28s-.19,.22-.26,.34c-.07,.12-.14,.25-.22,.38-.08,.11-.15,.22-.22,.34-.07,.12-.14,.25-.22,.38-.05,.13-.12,.25-.2,.36-.08,.11-.15,.23-.2,.36l-.36,.76c-.13,.29-.24,.56-.32,.8-.05,.13-.1,.27-.14,.42-.04,.15-.09,.29-.14,.42l-.28,.8c-.05,.13-.09,.27-.12,.42-.03,.15-.07,.29-.12,.42l-.28,.84c-.05,.13-.09,.27-.12,.42-.03,.15-.05,.29-.08,.42l-.24,.84-.2,.84-.24,.84c-.03,.13-.04,.28-.04,.44s-.03,.31-.08,.44c-.03,.13-.06,.27-.1,.42s-.09,.29-.14,.42c-.03,.13-.05,.27-.08,.42-.03,.15-.07,.29-.12,.42l-.16,.84c-.05,.16-.09,.31-.1,.46-.01,.15-.03,.29-.06,.42l-.28,1.2c0,.05,.02,.09,.06,.1,.04,.01,.03,.05-.02,.1-.05,.05-.1,.06-.14,.02s-.09-.06-.14-.06c-.24,0-.4,0-.48,.02-.08,.01-.25,.02-.52,.02s-.45,.01-.54,.04c-.09,.03-.26,.01-.5-.04-.05-.03-.06-.06-.02-.1s.06-.1,.06-.18v-.84c.03-.13,.05-.27,.06-.4,.01-.13,.02-.28,.02-.44,0-.13,0-.27-.02-.42-.01-.15-.02-.3-.02-.46,.03-.13,.05-.27,.08-.4,.03-.13,.04-.28,.04-.44,.03-.13,.03-.27,.02-.42-.01-.15-.02-.29-.02-.42,.03-.13,.05-.27,.06-.42,.01-.15,.02-.3,.02-.46l.36-2.52,.12-.88,.16-.84,.08-.84c.05-.13,.09-.27,.1-.4,.01-.13,.03-.27,.06-.4l.12-.8c.03-.13,.05-.27,.06-.4,.01-.13,.02-.27,.02-.4l.08-.84c.03-.13,.05-.27,.06-.4,.01-.13,.02-.27,.02-.4,.03-.13,.03-.27,.02-.42-.01-.15-.02-.29-.02-.42-.03-.13-.03-.27-.02-.4,.01-.13,0-.27-.02-.4-.05-.16-.1-.31-.14-.44-.04-.13-.1-.24-.18-.32-.08-.11-.23-.19-.44-.24-.03,0-.04,.01-.04,.04s-.01,.04-.04,.04v-.04c-.21,0-.45,.11-.72,.32-.11,.05-.2,.13-.28,.22-.08,.09-.17,.21-.28,.34l-.44,.72-.32,.72c-.05,.13-.11,.27-.16,.42-.05,.15-.11,.3-.16,.46-.05,.13-.09,.27-.12,.42-.03,.15-.07,.3-.12,.46l-.2,.88c-.05,.13-.1,.27-.14,.42-.04,.15-.09,.3-.14,.46l-.2,.88-.24,.88c-.05,.16-.09,.32-.1,.48-.01,.16-.03,.31-.06,.44l-.28,.92-.24,.92c-.13,.05-.22,.07-.26,.04-.04-.03-.1-.08-.18-.16l.24-.92c.03-.13,.05-.28,.08-.44,.03-.16,.07-.32,.12-.48l.2-.92,.24-.84c.03-.13,.05-.27,.06-.42,.01-.15,.05-.29,.1-.42l.2-.8c.05-.13,.1-.27,.14-.42,.04-.15,.07-.29,.1-.42l.28-.8c.05-.13,.09-.27,.12-.42,.03-.15,.07-.29,.12-.42,.08-.24,.19-.51,.32-.8l.36-.76c.08-.13,.15-.26,.22-.38,.07-.12,.15-.23,.26-.34,.11-.13,.21-.24,.32-.32,.11-.08,.23-.16,.36-.24,.21-.11,.48-.16,.8-.16l.04-.04c.4,0,.75,.17,1.04,.52,.11,.11,.19,.23,.26,.36,.07,.13,.13,.27,.18,.4,.05,.13,.11,.26,.18,.38,.07,.12,.13,.25,.18,.38,.05,.13,.08,.27,.08,.42s.01,.3,.04,.46c.05,.13,.09,.27,.1,.42,.01,.15,.03,.29,.06,.42l.12,.84c0,.13,.01,.27,.04,.42,.03,.15,.04,.3,.04,.46,0,.13,0,.27,.02,.42,.01,.15,.02,.29,.02,.42v.88c0,.13,0,.27-.02,.42-.01,.15-.03,.29-.06,.42,0,.16,0,.31,.02,.46,.01,.15,0,.29-.02,.42v.42c0,.15-.01,.29-.04,.42l-.16,.88c-.03,.13-.03,.28-.02,.44,.01,.16,0,.31-.02,.44,0,.16,0,.32-.02,.48-.01,.16-.03,.31-.06,.44l-.08,.92c0,.16,0,.31-.02,.46-.01,.15-.03,.29-.06,.42,.05-.13,.08-.27,.08-.4s.03-.27,.08-.4c.03-.13,.05-.27,.06-.42,.01-.15,.05-.29,.1-.42,.03-.13,.06-.27,.1-.4,.04-.13,.09-.27,.14-.4,.03-.13,.05-.27,.06-.42,.01-.15,.05-.29,.1-.42l.2-.8c.03-.13,.05-.27,.08-.42,.03-.15,.07-.29,.12-.42l.28-.8,.2-.8,.2-.84,.28-.76,.28-.8c.05-.13,.11-.27,.16-.4,.05-.13,.11-.27,.16-.4l.72-1.52c.08-.13,.15-.26,.2-.38,.05-.12,.11-.25,.16-.38l.52-.68,.6-.56c.11-.11,.21-.21,.3-.32,.09-.11,.21-.19,.34-.24,.21-.13,.47-.25,.76-.36,.13-.05,.27-.08,.42-.08h.42s.04,.01,.04,.04h.4c.13,0,.27,.01,.4,.04,.13,.05,.26,.1,.38,.14s.23,.09,.34,.14c.24,.16,.45,.33,.64,.52,.11,.11,.2,.22,.28,.34,.08,.12,.15,.25,.2,.38,.13,.29,.24,.56,.32,.8,.05,.13,.09,.27,.1,.42,.01,.15,.03,.29,.06,.42l.08,.88c.03,.13,.04,.27,.04,.42v1.72c0,.15-.01,.29-.04,.42,0,.13,0,.28,.02,.44,.01,.16,0,.31-.02,.44,0,.13,0,.27-.02,.42-.01,.15-.02,.29-.02,.42-.03,.13-.05,.27-.08,.42-.03,.15-.04,.3-.04,.46l-.16,.84c0,.08,0,.16,.02,.24,.01,.08,0,.16-.02,.24,0,.13-.02,.27-.06,.42-.04,.15-.06,.3-.06,.46-.03,.13-.04,.28-.04,.44v.44c-.03,.16-.05,.31-.08,.46-.03,.15-.04,.3-.04,.46-.03,.13-.03,.28-.02,.44,.01,.16,.02,.31,.02,.44,0,.16,0,.31,.02,.46,.01,.15,.03,.29,.06,.42,.03,.16,.03,.32,.02,.48-.01,.16,0,.31,.06,.44,.08,.29,.21,.56,.4,.8,.21,.24,.55,.36,1,.36Z"/><path class="cls-1" d="M87.5,33.58c.29,0,.56-.08,.8-.24,.13-.05,.25-.11,.36-.16,.11-.05,.23-.15,.36-.28,.11-.08,.2-.17,.28-.28,.08-.11,.16-.23,.24-.36l.48-.68c.05-.13,.11-.25,.18-.36,.07-.11,.14-.23,.22-.36,.05-.13,.11-.26,.18-.38,.07-.12,.13-.25,.18-.38l.32-.76c.05-.13,.11-.27,.16-.4,.05-.13,.11-.27,.16-.4l.24-.8c.05-.13,.1-.26,.14-.38,.04-.12,.07-.25,.1-.38,.13-.05,.23-.07,.28-.04,.05,.03,.12,.08,.2,.16-.03,.11-.05,.23-.08,.36-.03,.13-.07,.27-.12,.4-.05,.27-.13,.53-.24,.8l-.28,.72c-.05,.13-.11,.26-.16,.38-.05,.12-.11,.25-.16,.38l-.32,.72c-.05,.13-.12,.25-.2,.36-.08,.11-.16,.23-.24,.36-.11,.24-.25,.47-.44,.68-.08,.13-.15,.26-.22,.38-.07,.12-.15,.23-.26,.34l-.3,.3c-.09,.09-.19,.17-.3,.22-.21,.19-.45,.32-.72,.4-.32,.13-.6,.2-.84,.2-.13,0-.26-.01-.38-.04s-.25-.07-.38-.12c-.13-.03-.25-.07-.36-.12-.11-.05-.23-.11-.36-.16-.25-.13-.44-.31-.57-.52-.25-.24-.42-.48-.53-.72-.05-.13-.1-.27-.14-.4-.04-.13-.09-.27-.14-.4-.06-.21-.11-.51-.16-.88-.05-.13-.09-.27-.1-.42-.01-.15-.03-.29-.06-.42v-.88c0-.13,0-.28-.02-.44-.01-.16-.02-.31-.02-.44s0-.28,.02-.44c.01-.16,.02-.31,.02-.44,.03-.13,.04-.28,.04-.44v-.44l.08-.88,.16-.88c-.05,.13-.1,.27-.14,.42-.04,.15-.09,.29-.14,.42-.05,.13-.1,.26-.14,.38-.04,.12-.09,.25-.14,.38-.05,.13-.09,.27-.12,.4-.03,.13-.07,.27-.12,.4l-.32,.76c-.05,.13-.1,.27-.14,.4-.04,.13-.09,.27-.14,.4l-.4,.8c-.05,.13-.11,.27-.16,.4-.05,.13-.11,.27-.16,.4l-.48,.72c-.05,.13-.11,.27-.18,.4s-.14,.27-.22,.4l-.48,.72-.52,.6c-.11,.11-.21,.2-.32,.28-.11,.08-.21,.16-.32,.24-.19,.16-.41,.28-.68,.36-.24,.11-.51,.16-.8,.16-.32,0-.64-.04-.96-.12-.29-.08-.59-.2-.88-.36-.13-.11-.27-.2-.4-.28-.13-.08-.25-.19-.36-.32-.21-.27-.37-.52-.48-.76-.08-.13-.15-.27-.2-.4-.05-.13-.11-.27-.16-.4l-.2-.88-.16-.84-.08-.88c0-.13,0-.28-.02-.44-.01-.16-.02-.31-.02-.44v-.88c0-.13,0-.28,.02-.44,.01-.16,.02-.31,.02-.44,.03-.13,.05-.27,.06-.42,.01-.15,.02-.3,.02-.46l.12-.88v-.42c0-.15,.01-.3,.04-.46l.16-.84,.12-.88,.08-.88,.16-.88,.16-.84,.16-.88,.2-1.16c0-.05-.01-.1-.04-.14-.03-.04-.01-.07,.04-.1,.21-.03,.35-.03,.4,0,.05,.03,.19,.05,.4,.08l.72,.12c.21,.03,.35,.03,.42,0,.07-.03,.18,0,.34,.08,.05,.03,.06,.06,.02,.1-.04,.04-.06,.09-.06,.14-.05,.13-.09,.27-.1,.4-.01,.13-.05,.29-.1,.48l-.16,.84c-.03,.13-.06,.27-.1,.42-.04,.15-.09,.29-.14,.42l-.16,.84-.12,.88c-.05,.13-.09,.27-.1,.42-.01,.15-.03,.29-.06,.42-.05,.13-.09,.27-.1,.42-.01,.15-.03,.29-.06,.42l-.12,.88-.16,.84-.08,.88c0,.13-.01,.28-.04,.44-.03,.16-.04,.31-.04,.44-.03,.16-.04,.31-.04,.46v.42c-.03,.16-.05,.31-.06,.46-.01,.15-.02,.29-.02,.42,0,.16,0,.32-.02,.48-.01,.16-.02,.31-.02,.44l.08,.88c.03,.16,.04,.31,.04,.46s.03,.29,.08,.42c.03,.16,.07,.31,.12,.44,.05,.13,.11,.27,.16,.4,.13,.37,.27,.64,.4,.8,.16,.19,.35,.35,.56,.48,.13,.05,.25,.09,.36,.12,.11,.03,.23,.04,.36,.04,.27,0,.55-.08,.84-.24,.13-.05,.25-.13,.36-.22,.11-.09,.23-.19,.36-.3,.11-.11,.21-.21,.3-.32,.09-.11,.18-.23,.26-.36,.11-.11,.19-.21,.26-.32,.07-.11,.15-.23,.26-.36l.44-.76c.05-.13,.13-.26,.22-.38,.09-.12,.17-.25,.22-.38l.72-1.6,.28-.8c.05-.13,.11-.27,.18-.42,.07-.15,.13-.29,.18-.42,.05-.13,.09-.27,.12-.42,.03-.15,.07-.29,.12-.42,.05-.13,.11-.27,.16-.4,.05-.13,.11-.27,.16-.4,.05-.13,.09-.27,.1-.42,.01-.15,.05-.29,.1-.42l.32-.84,.2-.88,.25-.84,.29-.8c.03-.19,.05-.36,.06-.52,.01-.16,.05-.32,.1-.48,.03-.19,.05-.36,.06-.52,.01-.16,.05-.32,.1-.48,.05-.37,.11-.67,.16-.88l.08-.84c.03-.05,.03-.1,.02-.14s0-.07,.06-.1c.27-.03,.45-.03,.53,0,.08,.03,.25,.07,.52,.12,.27,.03,.45,.03,.54,.02,.09-.01,.26,.02,.5,.1,.08,.05,.1,.1,.06,.14-.04,.04-.06,.09-.06,.14-.03,.08-.05,.15-.08,.22-.03,.07-.05,.15-.08,.26-.03,.13-.05,.27-.06,.42-.01,.15-.05,.3-.1,.46-.03,.13-.05,.27-.06,.42-.01,.15-.05,.3-.1,.46-.03,.13-.05,.27-.08,.42-.03,.15-.07,.3-.12,.46-.03,.13-.06,.27-.1,.42-.04,.15-.07,.3-.1,.46l-.16,.88-.12,.92-.12,.88-.16,.88-.08,.92-.12,.8v.42c0,.15-.01,.29-.04,.42,0,.13-.01,.27-.04,.4-.03,.13-.05,.27-.08,.4v.84c0,.13,0,.27-.02,.4-.01,.13-.02,.27-.02,.4,.03,.16,.04,.31,.04,.44v.4l.08,.84c.08,.29,.16,.55,.24,.76,.05,.19,.11,.34,.18,.46,.07,.12,.13,.22,.18,.3,.19,.24,.43,.36,.72,.36Z"/><path class="cls-1" d="M98.62,33.62c.24,0,.52-.07,.84-.2,.13-.05,.24-.13,.32-.24,.08-.11,.19-.21,.32-.32,.08-.08,.17-.17,.28-.26,.11-.09,.2-.19,.28-.3,.11-.13,.21-.25,.3-.34,.09-.09,.17-.21,.22-.34,.13-.21,.27-.47,.4-.76l.4-.72c.05-.13,.1-.27,.14-.4,.04-.13,.09-.27,.14-.4,.05-.13,.11-.26,.18-.38,.07-.12,.13-.25,.18-.38,.05-.13,.09-.27,.12-.4,.03-.13,.07-.27,.12-.4l.24-.8c.13-.05,.21-.06,.24-.02,.03,.04,.09,.1,.2,.18-.05,.11-.09,.22-.1,.34-.01,.12-.05,.25-.1,.38-.03,.13-.07,.26-.14,.38-.07,.12-.13,.25-.18,.38l-.28,.76c-.05,.13-.1,.26-.14,.38-.04,.12-.09,.25-.14,.38-.05,.13-.11,.25-.16,.36-.05,.11-.11,.23-.16,.36l-.32,.76-.52,.68-.52,.64c-.11,.13-.21,.23-.32,.3-.11,.07-.21,.14-.32,.22-.13,.11-.25,.19-.36,.26-.11,.07-.23,.13-.36,.18-.13,.05-.27,.09-.4,.12-.13,.03-.27,.04-.4,.04s-.27,0-.42,.02c-.15,.01-.29,0-.42-.06-.24-.05-.48-.19-.72-.4-.13-.08-.25-.17-.34-.26-.09-.09-.19-.19-.3-.3-.08-.11-.15-.23-.22-.36-.07-.13-.14-.27-.22-.4-.05-.13-.12-.25-.2-.36-.08-.11-.15-.23-.2-.36-.05-.13-.09-.27-.1-.42-.01-.15-.05-.3-.1-.46l-.16-.8c-.03-.13-.05-.27-.08-.42-.03-.15-.04-.3-.04-.46-.03-.13-.06-.27-.1-.4-.04-.13-.06-.28-.06-.44l-.08-.84c0-.13,0-.27,.02-.42,.01-.15,.02-.3,.02-.46-.03-.13-.04-.27-.04-.42v-.42c0-.13,0-.27,.02-.42,.01-.15,.02-.29,.02-.42s.01-.28,.04-.44c.03-.16,.04-.31,.04-.44l.08-.84v-.42c0-.15,.01-.3,.04-.46,0-.13,0-.27-.02-.42-.01-.15,0-.29,.02-.42l.16-.8c.03-.13,.03-.27,0-.4-.03-.13-.03-.27,0-.4l.16-.8c.03-.13,.03-.27,.02-.4-.01-.13,0-.27,.02-.4l.12-.84c-.19-.05-.31-.05-.38,0-.07,.05-.21,.08-.42,.08-.19,0-.32,.02-.4,.06s-.2,0-.36-.1c-.24-.19-.24-.35,0-.48,.19-.13,.31-.17,.38-.12,.07,.05,.21,.08,.42,.08s.35,.01,.42,.04c.07,.03,.19,0,.38-.08l.12-.8c.03-.16,.06-.31,.1-.46,.04-.15,.07-.29,.1-.42,.03-.13,.03-.28,.02-.44-.01-.16,0-.31,.02-.44,.05-.16,.09-.31,.12-.46,.03-.15,.05-.29,.08-.42,.03-.13,.06-.27,.1-.42,.04-.15,.07-.29,.1-.42,.05-.16,.08-.31,.08-.46s.03-.29,.08-.42c.03-.13,.03-.28,.02-.44-.01-.16,0-.31,.02-.44,.05-.16,.09-.31,.12-.46,.03-.15,.05-.29,.08-.42,.03-.13,.06-.27,.1-.42,.04-.15,.07-.29,.1-.42l.12-.88c.05-.16,.08-.31,.08-.46s.01-.29,.04-.42c.05-.16,.11-.31,.16-.46,.05-.15,.09-.3,.12-.46l.12-.92c.05-.16,.08-.32,.08-.48s.01-.31,.04-.44c.03-.05,.03-.1,.02-.14-.01-.04,0-.06,.06-.06,.27-.05,.44-.06,.52-.02,.08,.04,.25,.07,.52,.1,.29,.05,.49,.06,.58,.02,.09-.04,.25,0,.46,.14,.11,.05,.13,.11,.08,.16-.05,.05-.09,.15-.12,.28-.03,.13-.07,.27-.12,.4-.05,.13-.09,.27-.12,.4-.05,.13-.07,.28-.06,.44,.01,.16,0,.31-.02,.44l-.16,.84c-.05,.13-.09,.27-.1,.42-.01,.15-.03,.29-.06,.42-.05,.13-.09,.27-.12,.42-.03,.15-.05,.29-.08,.42-.03,.16-.05,.31-.08,.44-.03,.13-.05,.27-.08,.4-.05,.16-.09,.31-.1,.46-.01,.15-.03,.29-.06,.42-.03,.13-.05,.27-.08,.42-.03,.15-.07,.29-.12,.42l-.08,.84c-.05,.13-.09,.27-.1,.42-.01,.15-.03,.29-.06,.42l-.16,.88-.16,.84-.08,.84-.16,.88c.24,.08,.4,.1,.48,.06s.25-.06,.52-.06c.24,0,.41-.03,.5-.08,.09-.05,.25-.01,.46,.12,.21,.13,.21,.27,0,.4-.24,.13-.41,.19-.5,.16-.09-.03-.26-.04-.5-.04-.27,0-.44-.02-.52-.06s-.25-.03-.52,.02c0,.13-.01,.25-.04,.36-.03,.11-.05,.23-.08,.36-.03,.13-.05,.26-.06,.38-.01,.12-.02,.23-.02,.34l-.08,.88-.12,.84c0,.13-.01,.27-.04,.42-.03,.15-.05,.29-.08,.42-.03,.13-.03,.27-.02,.42,.01,.15,0,.29-.02,.42,0,.13-.01,.27-.04,.42-.03,.15-.05,.29-.08,.42,0,.16-.02,.31-.06,.44-.04,.13-.06,.27-.06,.4-.03,.16-.02,.31,.02,.46,.04,.15,.05,.29,.02,.42,0,.13,0,.27-.02,.42-.01,.15-.02,.29-.02,.42-.03,.13-.05,.27-.06,.42-.01,.15-.02,.29-.02,.42v1.72c0,.13,0,.27,.02,.42,.01,.15,.02,.29,.02,.42v.84l.12,.88c.03,.13,.04,.27,.04,.42s.03,.29,.08,.42c.05,.16,.11,.3,.16,.42,.05,.12,.11,.23,.16,.34,.05,.16,.11,.31,.16,.44,.05,.13,.12,.25,.2,.36,.24,.32,.55,.48,.92,.48Z"/><path class="cls-1" d="M111.14,15.5l-.3,.3c-.09,.09-.17,.21-.22,.34-.11,.13-.19,.26-.24,.38-.05,.12-.11,.25-.16,.38-.03,.13-.05,.28-.06,.44-.01,.16-.02,.31-.02,.44,.03,.13,.05,.27,.06,.42,.01,.15,.05,.29,.1,.42,.05,.13,.1,.27,.14,.42,.04,.15,.09,.29,.14,.42,.05,.13,.12,.26,.2,.38,.08,.12,.15,.25,.2,.38,.08,.13,.16,.25,.24,.36,.08,.11,.17,.23,.28,.36,.05,.13,.12,.25,.2,.36,.08,.11,.16,.23,.24,.36l.52,.68,.48,.72c.11,.13,.21,.25,.3,.36,.09,.11,.18,.23,.26,.36,.11,.13,.21,.25,.3,.36,.09,.11,.18,.23,.26,.36,.11,.13,.19,.27,.26,.4,.07,.13,.14,.27,.22,.4,.19,.21,.36,.47,.52,.76,.08,.13,.15,.27,.2,.42,.05,.15,.11,.29,.16,.42,.05,.13,.11,.27,.18,.42,.07,.15,.13,.29,.18,.42,.05,.13,.1,.27,.14,.42,.04,.15,.09,.29,.14,.42,.03,.16,.05,.31,.06,.46,.01,.15,.02,.3,.02,.46,0,.13,0,.27,.02,.4,.01,.13,0,.27-.02,.4-.03,.24-.09,.51-.2,.8-.05,.13-.11,.26-.18,.38-.07,.12-.13,.25-.18,.38-.05,.13-.11,.25-.18,.36-.07,.11-.15,.21-.26,.32-.19,.24-.39,.43-.6,.56-.13,.11-.27,.19-.42,.26-.15,.07-.3,.13-.46,.18-.13,.05-.27,.11-.42,.18-.15,.07-.3,.13-.46,.18-.16,.05-.32,.08-.48,.08s-.32,.01-.48,.04c-.16,.03-.32,.05-.48,.06-.16,.01-.32,.02-.48,.02h-.4c-.13,0-.27-.01-.4-.04-.13,0-.27-.02-.4-.06-.13-.04-.27-.09-.4-.14-.13-.05-.26-.09-.38-.12-.12-.03-.25-.07-.38-.12-.13-.08-.25-.17-.34-.26-.09-.09-.19-.19-.3-.3-.08-.08-.15-.17-.22-.26-.07-.09-.14-.21-.22-.34-.13-.24-.24-.47-.32-.68-.03-.13-.05-.26-.06-.38-.01-.12-.02-.25-.02-.38s.01-.26,.04-.38c.03-.12,.05-.25,.08-.38,.08-.29,.19-.51,.32-.64,.13,.03,.21,.05,.24,.06,.03,.01,.07,.09,.12,.22-.11,.13-.18,.3-.22,.5-.04,.2-.06,.41-.06,.62,0,.11,.01,.24,.04,.4,.03,.16,.08,.33,.16,.52,.05,.13,.12,.27,.2,.4,.08,.13,.19,.27,.32,.4,.11,.11,.21,.21,.32,.3,.11,.09,.24,.18,.4,.26,.27,.11,.57,.19,.92,.24,.13,.03,.28,.04,.44,.04h.52c.37,0,.68-.05,.92-.16,.13-.05,.26-.12,.38-.2,.12-.08,.25-.17,.38-.28,.27-.21,.48-.44,.64-.68,.16-.27,.28-.55,.36-.84,.05-.16,.09-.31,.12-.46,.03-.15,.07-.3,.12-.46,.03-.16,.04-.31,.04-.46v-.46c0-.29-.04-.6-.12-.92l-.28-.88c-.05-.13-.11-.27-.16-.42-.05-.15-.12-.3-.2-.46l-.36-.84c-.08-.13-.15-.27-.22-.42-.07-.15-.13-.29-.18-.42-.08-.13-.15-.28-.2-.44-.05-.16-.12-.31-.2-.44-.05-.13-.12-.27-.2-.4-.08-.13-.16-.27-.24-.4l-.36-.84-.4-.8-.36-.84c-.05-.13-.1-.27-.14-.42-.04-.15-.09-.29-.14-.42l-.28-.88c-.11-.35-.17-.64-.2-.88-.03-.16-.05-.31-.06-.46-.01-.15-.02-.29-.02-.42l-.28,.72-.24,.8c-.05,.13-.1,.27-.14,.42-.04,.15-.09,.29-.14,.42-.05,.13-.11,.27-.18,.4s-.13,.28-.18,.44c-.05,.13-.09,.27-.1,.42-.01,.15-.05,.29-.1,.42l-.24,.88-.24,.84-.24,.88-.24,.84-.24,.88-.24,.72c-.05,.19-.11,.41-.16,.68-.13,.03-.23,.04-.28,.04s-.12-.05-.2-.16c.05-.13,.09-.27,.1-.42,.01-.15,.05-.29,.1-.42l.2-.84,.24-.84,.28-.84,.24-.84,.2-.88c.05-.13,.09-.27,.12-.42,.03-.15,.07-.29,.12-.42l.56-1.68c.05-.13,.09-.27,.12-.42,.03-.15,.07-.29,.12-.42l.72-1.68,.4-.8c.08-.13,.17-.26,.26-.38,.09-.12,.18-.23,.26-.34,.21-.27,.44-.47,.68-.6,.21-.13,.49-.23,.84-.28,.37-.05,.68-.04,.92,.04,.16,.03,.31,.07,.46,.12,.15,.05,.29,.11,.42,.16,.16,.05,.3,.12,.42,.2s.25,.16,.38,.24c.45,.27,.73,.53,.84,.8,.13,.27,.16,.55,.08,.84-.11,.37-.31,.6-.6,.68-.05,.03-.1,.03-.14,.02-.04-.01-.09-.02-.14-.02-.24,0-.49-.07-.76-.2-.13-.05-.25-.11-.36-.18-.11-.07-.2-.15-.28-.26-.13-.19-.23-.39-.28-.6-.03-.24,.04-.47,.2-.68,.08-.16,.2-.28,.36-.36-.32-.08-.65-.12-1-.12-.35-.03-.68,.01-1,.12Z"/></svg>