<?xml version="1.0" encoding="UTF-8"?><svg id="_レイヤー_2" xmlns="http://www.w3.org/2000/svg" viewBox="0 0 245.89 246.59"><defs><style>.cls-1{fill:#e4ae63;}.cls-2{fill:#f2d0c1;}</style></defs><g id="_レイヤー_1-2"><path class="cls-1" d="M122.72,4.49C58.8,4.49,6.43,53.49,1.42,115.77c.04,.32,.09,.64,.13,.96,1.21,1.64,2.12,3.46,2.68,5.47,.2,1.5,.41,3.01,.61,4.51,.09,2.25-.38,4.35-1.37,6.31,1.46,2.37,2.37,5.27,2.38,8.76,0,5.38-.09,10.4,1.41,15.58,.82,2.83,.91,5.42,.49,7.77,4.44,12.74,10.91,24.54,19.11,34.95,1.84,1.31,3.54,2.72,5.15,4.27,.28,.15,.56,.29,.83,.46,1.99,1.07,3.59,2.52,4.79,4.37,.44,.47,.74,1.02,1.1,1.55,.06,.03,.11,.08,.18,.11,3.55,1.8,5.97,5.25,7.39,8.88,.69,.55,1.39,1.08,2.09,1.61,1.33,.37,2.59,.86,3.66,1.56,3.03,2.01,6.06,4.02,9.09,6.03,1.34,.89,2.47,1.9,3.51,2.97,17.26,9.35,37.04,14.7,58.08,14.7,2.55,0,5.07-.11,7.58-.27,.48-.16,.96-.29,1.43-.36,4.18-.64,8.31-1.05,12.46-1.3,.24-.04,.48-.07,.72-.12,34.13-8.03,62.22-31.99,85.2-62,9.14-16.99,14.33-36.39,14.33-57,0-66.85-54.5-121.05-121.73-121.05Zm0,163.49c-23.57,0-42.68-19-42.68-42.44s19.11-42.44,42.68-42.44,42.68,19,42.68,42.44-19.11,42.44-42.68,42.44Z"/><path class="cls-2" d="M245.89,113.6c-.28-2.27-.86-4.49-1.9-6.48,.17-2.51-.08-5.06-.84-7.43-.51-7.43-4.65-14.92-9.01-21.82,.09-1.22,.07-2.46-.1-3.72-.54-3.89-2.17-7.21-4.51-9.84-14.26-28.12-39.49-47.5-68.32-55.72-1.46-1.04-3.05-1.97-4.84-2.7-3.93-1.61-8.13-2.72-12.4-3.34-2.08-1.07-4.45-1.82-7.18-2.05-4.1-.35-7.94-.19-11.65,.38-3.07-1.09-6.38-1.26-9.51-.02-.42,.17-.84,.33-1.26,.5C70.56,.36,24.12,30.84,8.21,72.01c-.09,.22-.14,.43-.22,.65-.64,1.09-1.22,2.25-1.66,3.58C2.66,87.3,.8,98.33,.04,109.98c-.04,.59-.04,1.14-.03,1.7,.58,1.11,1.07,2.28,1.42,3.53,.12,.87,.23,1.75,.35,2.62,.88,1.22,1.58,2.54,2.12,3.96,.15,.15,.27,.33,.43,.47-.05,.14-.07,.3-.12,.44,.08,.25,.18,.48,.25,.73,.2,1.54,.41,3.08,.61,4.61,.06,1.6-.16,3.12-.62,4.57,.03,.1,.04,.2,.08,.31,6.02,17.46,15.8,37.3,38.76,7.79,2.3-2.96,6-8,6.24-11.9,.06-.9,.19-1.48,.32-1.86,7.29-1.25,9.48,13.4,16.96,11.47,8.88-2.3,17.93-22.82,17.55-30,2.87-2.32,4.74-5.59,5.61-9.17,.81-.83,1.52-1.75,2.16-2.73,1.52-1.39,2.72-3.07,3.61-4.92,.33-.23,.69-.42,1.01-.68,12.97-6.86,34.88-9.24,44.69-3.72,11.15,6.27,20.41,19.58,26.78,32.43-2.13,8.99,4.24,10.6,14.74,12.52,3.86,2.46,6.32,12.38,10.68,11.67,1.69,.57,3.58,.89,5.68,.89,7.67,0,12.66-4.23,14.98-9.74,2.11,5.99,12.04,24.65,20.18,24.65,9.88,0,10.42-20.89,11.41-28.61v-5.22c-.15-1.19-.4-2.37-.76-3.5,.37-1.12,.6-2.29,.76-3.46v-5.21Z"/></g></svg>