<?xml version="1.0" encoding="UTF-8"?><svg id="_イヤー_2" xmlns="http://www.w3.org/2000/svg" viewBox="0 0 93.47 45.19"><defs><style>.cls-1{fill:#550e0f;stroke:#550e0f;stroke-miterlimit:10;}</style></defs><g id="_イヤー_1-2"><g><path class="cls-1" d="M28.1,11.26c-.2,.12-.36,.2-.52,.2s-.32-.24-.32-.36c0-.16,.08-.24,.32-.44,.92-.76,3.92-2.72,3.92-5.76,0-1.88-1.32-3.04-4.48-3.04-5.4,0-11.28,4.04-11.28,9.56,0,6.32,9.8,8.96,9.8,17.32,0,6.84-7.8,14.92-16.12,14.92-5.76,0-8.92-3.56-8.92-7.96,0-7.44,7.08-12.6,11.04-12.6,2.48,0,4.28,1.68,4.28,4.16,0,3.96-3.6,6.56-4.52,7.24-.16,.12-.28,.16-.4,.16-.16,0-.36-.16-.36-.36,0-.16,.08-.24,.28-.4,.88-.68,3.68-2.92,3.68-6.64,0-1.88-1.04-2.88-2.96-2.88-3.64,0-9.64,4.44-9.64,11.24,0,3.92,2.52,6.8,7.64,6.8,7.4,0,14.44-7.32,14.44-13.68,0-7.88-9.68-10.24-9.68-17.32C14.3,5.5,20.86,.5,27.02,.5c3.72,0,5.84,1.6,5.84,4.36,0,3.32-3.6,5.72-4.76,6.4Z"/><path class="cls-1" d="M41.3,18.3c0,.12-.08,.24-.28,.48-.8,.96-1.84,2.48-2.6,3.72-.28,.44-.48,.96-.48,1.56,0,.84,.64,1.28,1.36,1.28,2.64,0,5.44-3.36,5.44-3.36,0,0,.2-.24,.4-.24s.44,.24,.44,.44c0,.16-.2,.4-.2,.4,0,0-3.56,3.88-6.2,3.88-1.32,0-2.44-.92-2.52-2.32-.96,.92-3.52,3.72-5.88,3.72-1.52,0-2.56-1.04-2.56-2.36,0-3.32,4.96-9.56,5.8-9.56,.4,0,.72,.44,.72,.68,0,.12-.12,.28-.32,.48-.96,1.04-4.68,5.32-4.68,8.28,0,.88,.52,1.32,1.24,1.32,1.88,0,4.16-2.36,6.04-4.64,1.28-1.52,2.24-3,3-3.92,.28-.32,.44-.48,.6-.48,.52,0,.68,.44,.68,.64Z"/><path class="cls-1" d="M54.7,26.7c-1.32,0-2.24-.8-2.24-1.96,0-2.4,3.84-4.92,3.84-6.68,0-.2-.16-.52-.64-.52-2.56,0-7.72,4.08-11.92,9-.28,.36-.48,.48-.88,.48-.28,0-.64-.24-.64-.6,0-.32,.48-1.28,1.32-2.72,1.52-2.6,4.64-6.96,5.28-6.96,.52,0,.68,.44,.68,.64,0,.12-.12,.28-.4,.6-1.44,1.64-2.72,3.32-4.24,5.76,3.24-3.52,8.24-7.4,11.04-7.4,1.04,0,1.84,.76,1.84,1.72,0,2.2-3.76,4.72-3.76,6.56,0,.6,.36,.92,1.08,.92,3.08,0,6-3.56,6-3.56,0,0,.2-.24,.36-.24,.24,0,.48,.24,.48,.44,0,.16-.2,.4-.2,.4,0,0-3.72,4.12-7,4.12Z"/><path class="cls-1" d="M71.02,26.7c-1.32,0-2.24-.8-2.24-1.96,0-2.4,3.84-4.92,3.84-6.68,0-.2-.16-.52-.64-.52-2.56,0-7.72,4.08-11.92,9-.28,.36-.48,.48-.88,.48-.28,0-.64-.24-.64-.6,0-.32,.48-1.28,1.32-2.72,1.52-2.6,4.64-6.96,5.28-6.96,.52,0,.68,.44,.68,.64,0,.12-.12,.28-.4,.6-1.44,1.64-2.72,3.32-4.24,5.76,3.24-3.52,8.24-7.4,11.04-7.4,1.04,0,1.84,.76,1.84,1.72,0,2.2-3.76,4.72-3.76,6.56,0,.6,.36,.92,1.08,.92,3.08,0,6-3.56,6-3.56,0,0,.2-.24,.36-.24,.24,0,.48,.24,.48,.44,0,.16-.2,.4-.2,.4,0,0-3.72,4.12-7,4.12Z"/><path class="cls-1" d="M85.33,28.22c-2.4,7.08-6.6,16.48-13.48,16.48-2.52,0-4.24-1.6-4.24-3.8,0-5.6,8.96-9.04,16.48-13.16,.48-1.36,.88-2.68,1.2-3.8-2.24,2.24-4.72,3.88-6.72,3.88-1.48,0-2.52-.92-2.52-2.44,0-2.84,4.92-9.44,5.68-9.44,.4,0,.68,.48,.68,.68,0,.08-.08,.2-.28,.44-1.32,1.64-4.56,6-4.56,8.32,0,.72,.36,1.24,1.24,1.24,1.88,0,4.08-1.44,6.48-4.2,1.12-1.28,2-2.88,2.8-4.32,.2-.36,.32-.56,.64-.56,.36,0,.6,.32,.6,.6,0,.12-.12,.36-.24,.56-.72,1.4-1.56,2.56-2.44,5.44-.24,.8-.52,1.72-.84,2.64,2.52-1.44,4.76-3,6.32-4.8,0,0,.2-.24,.36-.24,.24,0,.48,.24,.48,.44,0,.16-.2,.4-.2,.4-1.88,2.16-4.56,3.96-7.44,5.64Zm-1.72,1c-7.08,3.92-14.76,7.08-14.76,11.64,0,1.52,1.08,2.64,2.88,2.64,5.72,0,9.56-7.8,11.88-14.28Z"/></g></g></svg>