<?xml version="1.0" encoding="UTF-8"?><svg id="_イヤー_1" xmlns="http://www.w3.org/2000/svg" viewBox="0 0 92.17 35.76"><defs><style>.cls-1{fill:#550e0f;stroke:#550e0f;stroke-miterlimit:10;}</style></defs><path class="cls-1" d="M23.86,2.98c.13,.19,.23,.38,.28,.58,.05,.2,.11,.41,.16,.62,.05,.21,.1,.43,.14,.64,.04,.21,.06,.43,.06,.64,0,.24-.03,.48-.08,.72-.05,.24-.12,.48-.2,.72-.05,.24-.1,.49-.14,.74-.04,.25-.13,.5-.26,.74-.11,.21-.23,.42-.38,.62-.15,.2-.3,.41-.46,.62-.13,.21-.27,.41-.42,.6-.15,.19-.31,.37-.5,.56,.13,.21,.25,.43,.34,.66,.09,.23,.19,.46,.3,.7,.13,.21,.24,.43,.32,.66s.16,.47,.24,.74c.08,.21,.16,.44,.24,.68,.08,.24,.15,.49,.2,.76,.05,.24,.11,.48,.16,.72,.05,.24,.11,.49,.16,.76,.05,.24,.07,.49,.06,.74-.01,.25,0,.51,.02,.78,0,.24,.01,.49,.04,.74,.03,.25,.04,.5,.04,.74s0,.48-.02,.72c-.01,.24-.02,.49-.02,.76l-.12,1.44c-.03,.24-.05,.48-.06,.72-.01,.24-.05,.48-.1,.72-.05,.24-.11,.48-.16,.72-.05,.24-.11,.48-.16,.72l-.36,1.4c-.08,.24-.15,.48-.22,.72-.07,.24-.14,.47-.22,.68-.11,.24-.22,.46-.34,.66-.12,.2-.23,.41-.34,.62-.13,.21-.25,.43-.34,.66-.09,.23-.21,.45-.34,.66-.13,.21-.27,.41-.42,.6s-.3,.37-.46,.56c-.16,.21-.34,.41-.54,.58-.2,.17-.39,.34-.58,.5-.43,.4-.84,.72-1.24,.96-.21,.13-.43,.28-.66,.44-.23,.16-.46,.28-.7,.36-.45,.19-.95,.35-1.48,.48-.27,.05-.53,.07-.8,.06-.27-.01-.53-.02-.8-.02v.08h-.16c-.48,0-.93-.04-1.36-.12-.21-.05-.43-.12-.64-.2s-.43-.16-.64-.24c-.21-.08-.42-.15-.62-.22-.2-.07-.41-.15-.62-.26-.21-.13-.41-.27-.58-.4-.17-.13-.35-.27-.54-.4-.19-.13-.36-.27-.52-.42-.16-.15-.32-.3-.48-.46-.35-.35-.64-.69-.88-1.04-.27-.32-.56-.72-.88-1.2-.13-.21-.24-.44-.32-.68-.08-.24-.17-.47-.28-.68-.11-.21-.2-.44-.28-.68-.08-.24-.16-.48-.24-.72l-.4-1.44c-.05-.24-.09-.48-.12-.72-.03-.24-.07-.49-.12-.76-.05-.24-.1-.48-.14-.72-.04-.24-.06-.49-.06-.76-.03-.24-.03-.48-.02-.72,.01-.24,.02-.49,.02-.76,0-.24-.02-.49-.06-.74-.04-.25-.05-.5-.02-.74l.12-1.52,.28-1.44,.24-1.48,.32-1.48v.04l.08-.08c-.24-.08-.48-.15-.72-.22-.24-.07-.47-.17-.68-.3-.21-.13-.41-.29-.58-.48-.17-.19-.35-.36-.54-.52l-.54-.54c-.17-.17-.33-.37-.46-.58-.27-.37-.47-.83-.6-1.36-.11-.43-.16-.93-.16-1.52,0-.43,.07-.88,.2-1.36,.08-.45,.2-.91,.36-1.36,.08-.21,.17-.43,.28-.64,.11-.21,.23-.43,.36-.64,.13-.21,.25-.42,.34-.62,.09-.2,.21-.39,.34-.58,.16-.21,.33-.39,.5-.52,.17-.13,.34-.28,.5-.44,.24,0,.36,.09,.36,.28-.16,.16-.31,.33-.44,.5-.13,.17-.27,.35-.4,.54-.29,.37-.53,.73-.72,1.08-.13,.21-.26,.41-.38,.58-.12,.17-.22,.37-.3,.58-.16,.43-.28,.85-.36,1.28-.05,.21-.08,.43-.08,.66v.66c0,.24,0,.48-.02,.72-.01,.24,0,.47,.06,.68,.05,.21,.14,.41,.26,.6,.12,.19,.25,.39,.38,.6,.27,.4,.55,.75,.84,1.04,.16,.16,.33,.3,.52,.42,.19,.12,.39,.25,.6,.38,.19,.13,.38,.25,.58,.36,.2,.11,.41,.2,.62,.28,.05-.21,.12-.43,.2-.64,.08-.21,.16-.43,.24-.64l.48-1.28c.11-.21,.2-.43,.28-.64,.08-.21,.17-.43,.28-.64,.11-.21,.21-.42,.3-.62,.09-.2,.21-.41,.34-.62,.11-.21,.23-.41,.36-.58,.13-.17,.27-.37,.4-.58l.76-1.12c.13-.19,.27-.37,.42-.54,.15-.17,.3-.35,.46-.54,.16-.19,.31-.36,.46-.52,.15-.16,.31-.32,.5-.48,.35-.4,.75-.76,1.2-1.08,.21-.19,.43-.35,.66-.48,.23-.13,.46-.28,.7-.44,.21-.13,.43-.27,.66-.42,.23-.15,.46-.29,.7-.42,.24-.11,.47-.21,.7-.3,.23-.09,.46-.18,.7-.26,.24-.05,.49-.11,.74-.16,.25-.05,.5-.11,.74-.16,.51-.08,1.01-.12,1.52-.12,.45,0,.97,.07,1.56,.2,.59,.08,1.09,.21,1.52,.4,.24,.11,.46,.24,.66,.4,.2,.16,.39,.33,.58,.52,.16,.13,.31,.28,.46,.44,.15,.16,.27,.33,.38,.52Zm-1.56,9.44c-.11-.21-.21-.43-.3-.66-.09-.23-.21-.45-.34-.66l-.48,.48c-.16,.16-.33,.31-.52,.44-.19,.13-.36,.27-.52,.4-.16,.13-.35,.27-.56,.4-.4,.27-.79,.49-1.16,.68-.21,.11-.43,.19-.64,.24-.21,.05-.43,.12-.64,.2-.21,.08-.41,.18-.6,.3-.19,.12-.39,.21-.6,.26-.21,.05-.43,.09-.64,.1-.21,.01-.43,.05-.64,.1-.21,.05-.43,.11-.64,.18-.21,.07-.43,.13-.64,.18-.21,.05-.43,.09-.66,.1-.23,.01-.45,.03-.66,.06-.21,.03-.43,.03-.66,.02-.23-.01-.45-.02-.66-.02s-.43,0-.66-.02c-.23-.01-.45-.03-.66-.06l-1.36-.08-1.36-.24c-.05,.21-.08,.44-.08,.68s-.03,.48-.08,.72c-.05,.21-.11,.43-.16,.66-.05,.23-.09,.45-.12,.66-.05,.24-.07,.47-.06,.7,.01,.23,0,.46-.02,.7-.03,.21-.03,.43-.02,.66,.01,.23,0,.46-.02,.7v1.36c0,.24-.01,.48-.04,.72-.03,.24-.04,.47-.04,.68l.12,1.4c.03,.27,.06,.51,.1,.74s.07,.45,.1,.66c.05,.24,.07,.48,.06,.72-.01,.24,0,.48,.06,.72,.05,.24,.13,.47,.22,.68,.09,.21,.18,.43,.26,.64,.05,.24,.11,.47,.18,.7,.07,.23,.15,.45,.26,.66,.08,.21,.17,.42,.28,.62,.11,.2,.21,.41,.32,.62,.13,.21,.26,.42,.38,.62,.12,.2,.25,.39,.38,.58,.16,.19,.31,.37,.46,.54,.15,.17,.31,.33,.5,.46,.35,.29,.75,.55,1.2,.76,.21,.08,.43,.15,.66,.22,.23,.07,.46,.13,.7,.18,.43,.08,.89,.12,1.4,.12v.04c.51,0,1-.04,1.48-.12,.24-.05,.48-.11,.72-.18,.24-.07,.48-.15,.72-.26,.21-.11,.43-.21,.66-.32,.23-.11,.45-.23,.66-.36,.4-.29,.79-.6,1.16-.92,.19-.16,.37-.32,.54-.48,.17-.16,.35-.35,.54-.56,.13-.19,.26-.38,.38-.58,.12-.2,.25-.41,.38-.62s.25-.42,.36-.62c.11-.2,.21-.41,.32-.62,.24-.37,.44-.8,.6-1.28,.08-.21,.16-.43,.24-.66,.08-.23,.15-.45,.2-.66,.19-.51,.33-.96,.44-1.36,.05-.24,.09-.48,.1-.72,.01-.24,.05-.47,.1-.68,.05-.24,.11-.47,.16-.7,.05-.23,.09-.46,.12-.7l.12-1.44v-2.16c0-.24-.01-.48-.04-.72,0-.24-.02-.48-.06-.72-.04-.24-.07-.48-.1-.72-.05-.24-.09-.48-.12-.72-.03-.24-.07-.48-.12-.72-.05-.24-.13-.47-.22-.7-.09-.23-.17-.45-.22-.66-.08-.24-.16-.47-.24-.7-.08-.23-.17-.45-.28-.66Zm1.44-5.64c.05-.21,.12-.43,.2-.66,.08-.23,.12-.45,.12-.66,0-.27-.04-.53-.12-.78-.08-.25-.16-.5-.24-.74-.16-.45-.43-.89-.8-1.32-.16-.19-.33-.36-.52-.52-.19-.16-.41-.31-.68-.44-.21-.11-.43-.21-.66-.3-.23-.09-.49-.17-.78-.22-.24-.05-.49-.09-.74-.1-.25-.01-.53-.02-.82-.02v-.04s-.04,.01-.04,.04v-.04c-.24,0-.48,.01-.72,.04-.24,.03-.47,.07-.68,.12-.24,.05-.47,.11-.7,.18-.23,.07-.46,.14-.7,.22-.48,.16-.91,.36-1.28,.6-.21,.13-.43,.25-.64,.34-.21,.09-.43,.21-.64,.34-.21,.13-.41,.28-.58,.44-.17,.16-.35,.32-.54,.48-.16,.16-.31,.33-.46,.52-.15,.19-.3,.37-.46,.56-.19,.21-.37,.41-.54,.58s-.34,.37-.5,.58c-.13,.21-.25,.43-.36,.66-.11,.23-.23,.45-.36,.66l-.72,1.32c-.11,.24-.21,.47-.3,.7-.09,.23-.18,.46-.26,.7-.11,.24-.21,.47-.32,.7-.11,.23-.2,.46-.28,.7-.08,.24-.16,.48-.24,.72-.08,.24-.15,.49-.2,.76-.08,.24-.15,.48-.2,.72-.05,.24-.11,.49-.16,.76,.21,.05,.43,.09,.64,.1,.21,.01,.44,.03,.68,.06,.21,.05,.43,.08,.64,.08s.44,.01,.68,.04c.21,.03,.43,.05,.64,.06,.21,.01,.43,.02,.64,.02,.27,0,.52,0,.76-.02,.24-.01,.48-.03,.72-.06,.24-.03,.48-.05,.72-.08,.24-.03,.48-.07,.72-.12,.24-.05,.48-.1,.72-.14,.24-.04,.47-.09,.68-.14,.24-.08,.48-.15,.72-.22,.24-.07,.47-.14,.68-.22,.21-.11,.44-.19,.68-.26,.24-.07,.47-.15,.68-.26s.42-.23,.62-.36c.2-.13,.41-.27,.62-.4,.21-.13,.42-.27,.62-.4,.2-.13,.39-.28,.58-.44,.21-.13,.41-.27,.58-.42,.17-.15,.34-.31,.5-.5-.16-.21-.32-.42-.48-.62-.16-.2-.35-.39-.56-.58-.21-.19-.41-.37-.6-.56-.19-.19-.4-.35-.64-.48-.21-.13-.45-.25-.72-.34-.27-.09-.53-.18-.8-.26-.08-.19-.01-.35,.2-.48,.21,.05,.41,.11,.6,.16,.19,.05,.39,.13,.6,.24,.19,.11,.36,.23,.52,.36,.16,.13,.33,.27,.52,.4,.32,.24,.64,.52,.96,.84,.13,.13,.27,.27,.4,.42,.13,.15,.27,.31,.4,.5,.16-.19,.31-.36,.44-.52,.13-.16,.27-.33,.4-.52,.13-.21,.27-.4,.42-.56,.15-.16,.27-.35,.38-.56,.11-.21,.18-.44,.22-.68,.04-.24,.09-.47,.14-.68Z"/><path class="cls-1" d="M32.78,33.66c.24,0,.52-.07,.84-.2,.13-.05,.24-.13,.32-.24,.08-.11,.19-.21,.32-.32,.08-.08,.17-.17,.28-.26,.11-.09,.2-.19,.28-.3,.11-.13,.21-.25,.3-.34,.09-.09,.17-.21,.22-.34,.13-.21,.27-.47,.4-.76l.4-.72c.05-.13,.1-.27,.14-.4,.04-.13,.09-.27,.14-.4,.05-.13,.11-.26,.18-.38,.07-.12,.13-.25,.18-.38,.05-.13,.09-.27,.12-.4,.03-.13,.07-.27,.12-.4l.24-.8c.13-.05,.21-.06,.24-.02,.03,.04,.09,.1,.2,.18-.05,.11-.09,.22-.1,.34-.01,.12-.05,.25-.1,.38-.03,.13-.07,.26-.14,.38-.07,.12-.13,.25-.18,.38l-.28,.76c-.05,.13-.1,.26-.14,.38-.04,.12-.09,.25-.14,.38-.05,.13-.11,.25-.16,.36-.05,.11-.11,.23-.16,.36l-.32,.76-.52,.68-.52,.64c-.11,.13-.21,.23-.32,.3-.11,.07-.21,.14-.32,.22-.13,.11-.25,.19-.36,.26-.11,.07-.23,.13-.36,.18-.13,.05-.27,.09-.4,.12-.13,.03-.27,.04-.4,.04s-.27,0-.42,.02c-.15,.01-.29,0-.42-.06-.24-.05-.48-.19-.72-.4-.13-.08-.25-.17-.34-.26-.09-.09-.19-.19-.3-.3-.08-.11-.15-.23-.22-.36-.07-.13-.14-.27-.22-.4-.05-.13-.12-.25-.2-.36-.08-.11-.15-.23-.2-.36-.05-.13-.09-.27-.1-.42-.01-.15-.05-.3-.1-.46l-.16-.8c-.03-.13-.05-.27-.08-.42-.03-.15-.04-.3-.04-.46-.03-.13-.06-.27-.1-.4-.04-.13-.06-.28-.06-.44l-.08-.84c0-.13,0-.27,.02-.42,.01-.15,.02-.3,.02-.46-.03-.13-.04-.27-.04-.42v-.42c0-.13,0-.27,.02-.42,.01-.15,.02-.29,.02-.42s.01-.28,.04-.44c.03-.16,.04-.31,.04-.44l.08-.84v-.42c0-.15,.01-.3,.04-.46,0-.13,0-.27-.02-.42-.01-.15,0-.29,.02-.42l.16-.8c.03-.13,.03-.27,0-.4-.03-.13-.03-.27,0-.4l.16-.8c.03-.13,.03-.27,.02-.4-.01-.13,0-.27,.02-.4l.12-.84c-.19-.05-.31-.05-.38,0-.07,.05-.21,.08-.42,.08-.19,0-.32,.02-.4,.06s-.2,0-.36-.1c-.24-.19-.24-.35,0-.48,.19-.13,.31-.17,.38-.12,.07,.05,.21,.08,.42,.08s.35,.01,.42,.04c.07,.03,.19,0,.38-.08l.12-.8c.03-.16,.06-.31,.1-.46,.04-.15,.07-.29,.1-.42,.03-.13,.03-.28,.02-.44-.01-.16,0-.31,.02-.44,.05-.16,.09-.31,.12-.46,.03-.15,.05-.29,.08-.42,.03-.13,.06-.27,.1-.42,.04-.15,.07-.29,.1-.42,.05-.16,.08-.31,.08-.46s.03-.29,.08-.42c.03-.13,.03-.28,.02-.44-.01-.16,0-.31,.02-.44,.05-.16,.09-.31,.12-.46,.03-.15,.05-.29,.08-.42,.03-.13,.06-.27,.1-.42,.04-.15,.07-.29,.1-.42l.12-.88c.05-.16,.08-.31,.08-.46s.01-.29,.04-.42c.05-.16,.11-.31,.16-.46,.05-.15,.09-.3,.12-.46l.12-.92c.05-.16,.08-.32,.08-.48s.01-.31,.04-.44c.03-.05,.03-.1,.02-.14-.01-.04,0-.06,.06-.06,.27-.05,.44-.06,.52-.02,.08,.04,.25,.07,.52,.1,.29,.05,.49,.06,.58,.02,.09-.04,.25,0,.46,.14,.11,.05,.13,.11,.08,.16-.05,.05-.09,.15-.12,.28-.03,.13-.07,.27-.12,.4-.05,.13-.09,.27-.12,.4-.05,.13-.07,.28-.06,.44,.01,.16,0,.31-.02,.44l-.16,.84c-.05,.13-.09,.27-.1,.42-.01,.15-.03,.29-.06,.42-.05,.13-.09,.27-.12,.42-.03,.15-.05,.29-.08,.42-.03,.16-.05,.31-.08,.44-.03,.13-.05,.27-.08,.4-.05,.16-.09,.31-.1,.46-.01,.15-.03,.29-.06,.42-.03,.13-.05,.27-.08,.42-.03,.15-.07,.29-.12,.42l-.08,.84c-.05,.13-.09,.27-.1,.42-.01,.15-.03,.29-.06,.42l-.16,.88-.16,.84-.08,.84-.16,.88c.24,.08,.4,.1,.48,.06s.25-.06,.52-.06c.24,0,.41-.03,.5-.08,.09-.05,.25-.01,.46,.12,.21,.13,.21,.27,0,.4-.24,.13-.41,.19-.5,.16-.09-.03-.26-.04-.5-.04-.27,0-.44-.02-.52-.06s-.25-.03-.52,.02c0,.13-.01,.25-.04,.36-.03,.11-.05,.23-.08,.36-.03,.13-.05,.26-.06,.38-.01,.12-.02,.23-.02,.34l-.08,.88-.12,.84c0,.13-.01,.27-.04,.42-.03,.15-.05,.29-.08,.42-.03,.13-.03,.27-.02,.42,.01,.15,0,.29-.02,.42,0,.13-.01,.27-.04,.42-.03,.15-.05,.29-.08,.42,0,.16-.02,.31-.06,.44-.04,.13-.06,.27-.06,.4-.03,.16-.02,.31,.02,.46,.04,.15,.05,.29,.02,.42,0,.13,0,.27-.02,.42-.01,.15-.02,.29-.02,.42-.03,.13-.05,.27-.06,.42-.01,.15-.02,.29-.02,.42v1.72c0,.13,0,.27,.02,.42,.01,.15,.02,.29,.02,.42v.84l.12,.88c.03,.13,.04,.27,.04,.42s.03,.29,.08,.42c.05,.16,.11,.3,.16,.42,.05,.12,.11,.23,.16,.34,.05,.16,.11,.31,.16,.44,.05,.13,.12,.25,.2,.36,.24,.32,.55,.48,.92,.48Z"/><path class="cls-1" d="M53.14,33.66c.32,0,.59-.05,.8-.16,.13-.05,.25-.13,.34-.22,.09-.09,.21-.19,.34-.3,.08-.08,.16-.17,.24-.28,.08-.11,.17-.23,.28-.36l.44-.68,.4-.72c.05-.13,.1-.27,.14-.4,.04-.13,.09-.27,.14-.4,.05-.13,.11-.26,.16-.38,.05-.12,.11-.25,.16-.38,.05-.13,.11-.26,.16-.38,.05-.12,.11-.25,.16-.38l.28-.8c.05-.13,.08-.27,.08-.4s.03-.27,.08-.4c.19-.05,.35,0,.48,.16l-.2,.84-.24,.88-.36,.8-.36,.84-.4,.8c-.05,.13-.11,.27-.16,.4-.05,.13-.12,.27-.2,.4-.08,.13-.16,.27-.24,.4-.08,.13-.16,.25-.24,.36-.21,.27-.43,.48-.64,.64-.24,.21-.49,.36-.76,.44-.32,.13-.61,.2-.88,.2-.16,0-.32-.01-.48-.04-.16-.03-.31-.07-.44-.12-.32-.08-.6-.2-.84-.36-.13-.08-.25-.17-.36-.26-.11-.09-.23-.21-.36-.34-.08-.11-.17-.21-.26-.3-.09-.09-.18-.21-.26-.34-.05-.13-.1-.27-.14-.4-.04-.13-.09-.27-.14-.4-.05-.13-.1-.27-.14-.4-.04-.13-.07-.28-.1-.44l-.12-.84c-.03-.13-.03-.27-.02-.4,.01-.13,.02-.28,.02-.44-.03-.13-.05-.27-.08-.42-.03-.15-.03-.29,0-.42,0-.13,.02-.27,.06-.42s.06-.29,.06-.42l.08-.84,.16-1.6,.12-.8,.16-.8c.03-.13,.06-.27,.1-.42,.04-.15,.07-.29,.1-.42l.08-.92c.05-.13,.08-.27,.08-.42s.01-.29,.04-.42c.03-.16,.06-.31,.1-.46s.07-.29,.1-.42c0-.16-.01-.32-.04-.48-.03-.16-.03-.31,0-.44,0-.16,0-.31-.02-.44-.01-.13-.03-.27-.06-.4-.08-.37-.19-.64-.32-.8-.16-.19-.39-.28-.68-.28-.27,0-.53,.04-.8,.12-.24,.08-.48,.2-.72,.36-.13,.05-.25,.11-.36,.18-.11,.07-.21,.15-.32,.26s-.2,.21-.28,.32-.16,.21-.24,.32l-.48,.68-.44,.72c-.05,.11-.13,.21-.22,.32-.09,.11-.17,.23-.22,.36l-.32,.76-.24,.8c-.05,.13-.11,.25-.18,.36-.07,.11-.13,.23-.18,.36l-.28,.8-.32,.76-.48,1.6c-.05,.13-.07,.27-.06,.42,.01,.15,0,.29-.06,.42-.05,.13-.1,.26-.14,.38-.04,.12-.07,.25-.1,.38l-.28,.8c-.05,.13-.07,.27-.06,.42,.01,.15,0,.29-.06,.42l-.2,.8c-.03,.13-.06,.27-.1,.4-.04,.13-.09,.27-.14,.4l-.16,.8-.12,1.04c-.03,.19-.03,.37,0,.54,.03,.17,.03,.35,0,.54,0,.11-.01,.16-.04,.16-.27,.05-.44,.08-.52,.08h-.56c-.27,0-.45,.02-.54,.06-.09,.04-.27,.03-.54-.02-.05-.03-.07-.07-.04-.14,.03-.07,.04-.13,.04-.18l.08-.88c0-.16,0-.31,.02-.46,.01-.15,.02-.3,.02-.46,.03-.13,.05-.28,.06-.44,.01-.16,.02-.31,.02-.44,.03-.16,.05-.31,.06-.46,.01-.15,.02-.3,.02-.46,.03-.13,.04-.27,.04-.42v-.42l.08-.88c0-.13,0-.27,.02-.42,.01-.15,.02-.29,.02-.42,.03-.13,.03-.28,0-.44-.03-.16-.04-.31-.04-.44,.03-.13,.04-.27,.04-.42v-.42l.12-.88c0-.13,.01-.27,.04-.42,.03-.15,.05-.29,.08-.42,0-.13-.01-.27-.04-.42-.03-.15-.03-.3,0-.46,0-.13,.02-.27,.06-.42,.04-.15,.06-.29,.06-.42,.03-.13,.03-.27,0-.42-.03-.15-.03-.3,0-.46,0-.13,.02-.27,.06-.42,.04-.15,.06-.29,.06-.42l.08-.84c0-.13,0-.28-.02-.44-.01-.16,0-.31,.02-.44,.03-.13,.06-.27,.1-.42,.04-.15,.07-.29,.1-.42l.12-.88c.03-.13,.03-.28,.02-.44-.01-.16,0-.31,.02-.44l.12-.88c.03-.13,.06-.27,.1-.42,.04-.15,.07-.29,.1-.42,.03-.16,.06-.31,.1-.46s.07-.29,.1-.42c.03-.13,.05-.27,.08-.42,.03-.15,.07-.29,.12-.42,.03-.16,.04-.31,.04-.46s.03-.29,.08-.42l.28-.84c.05-.13,.08-.28,.08-.44s.03-.31,.08-.44l.24-.84c.05-.13,.1-.27,.14-.42,.04-.15,.09-.29,.14-.42,.05-.13,.1-.27,.14-.42,.04-.15,.09-.29,.14-.42,.05-.13,.11-.27,.16-.42,.05-.15,.11-.29,.16-.42,.05-.13,.13-.26,.22-.38,.09-.12,.17-.25,.22-.38,.05-.13,.1-.27,.14-.42,.04-.15,.09-.29,.14-.42l.4-.76c.08-.13,.17-.25,.26-.36,.09-.11,.17-.23,.22-.36l.48-.68c.11-.13,.19-.26,.26-.38,.07-.12,.14-.23,.22-.34l.6-.68,.3-.3c.09-.09,.21-.18,.34-.26,.13-.11,.27-.17,.4-.2,.13-.03,.27-.07,.4-.12,.13-.05,.27-.11,.42-.16,.15-.05,.29-.08,.42-.08v.08c.13,0,.27,0,.42,.02,.15,.01,.29,.07,.42,.18,.19,.16,.36,.39,.52,.68l.24,.84c.03,.13,.05,.27,.08,.42,.03,.15,.04,.3,.04,.46v.44c0,.16-.01,.32-.04,.48,0,.13-.02,.27-.06,.42s-.09,.3-.14,.46c-.03,.13-.04,.27-.04,.42s-.03,.3-.08,.46c-.03,.13-.06,.27-.1,.42-.04,.15-.09,.29-.14,.42-.05,.13-.08,.28-.08,.44s-.03,.31-.08,.44c-.05,.13-.11,.27-.18,.42-.07,.15-.13,.29-.18,.42-.05,.13-.09,.27-.12,.42-.03,.15-.07,.3-.12,.46l-.4,.8c-.05,.13-.1,.27-.14,.4s-.09,.27-.14,.4c-.05,.13-.13,.26-.22,.38-.09,.12-.17,.25-.22,.38-.05,.13-.12,.26-.2,.38-.08,.12-.15,.25-.2,.38-.08,.13-.14,.27-.18,.42-.04,.15-.09,.29-.14,.42l-.52,.72c-.05,.13-.11,.26-.18,.38-.07,.12-.14,.25-.22,.38l-.52,.68c-.08,.13-.16,.25-.24,.36-.08,.11-.17,.23-.28,.36l-.52,.68c-.08,.13-.16,.25-.24,.36-.08,.11-.17,.23-.28,.36-.13-.03-.21-.05-.22-.08-.01-.03-.05-.11-.1-.24,.08-.13,.15-.25,.22-.36,.07-.11,.14-.21,.22-.32,.11-.13,.21-.25,.3-.34s.18-.21,.26-.34l.52-.68,.44-.76,.52-.68c.05-.13,.11-.27,.16-.4,.05-.13,.12-.27,.2-.4,.05-.13,.13-.26,.22-.38,.09-.12,.17-.25,.22-.38l.36-.76c.05-.13,.11-.27,.16-.4,.05-.13,.11-.27,.16-.4,.05-.13,.12-.26,.2-.38,.08-.12,.15-.25,.2-.38l.36-.8,.2-.84,.24-.8c.05-.16,.11-.31,.18-.44,.07-.13,.11-.27,.14-.4,.05-.13,.09-.27,.12-.42,.03-.15,.05-.29,.08-.42,.05-.13,.08-.27,.08-.42s.01-.29,.04-.42l.08-.84c.03-.16,.06-.31,.1-.46,.04-.15,.06-.29,.06-.42s0-.28-.02-.44c-.01-.16-.03-.32-.06-.48-.08-.32-.2-.6-.36-.84-.19-.27-.45-.4-.8-.4v.08c-.21,0-.48,.07-.8,.2-.11,.05-.22,.11-.34,.18-.12,.07-.25,.15-.38,.26-.08,.11-.15,.21-.22,.32-.07,.11-.15,.23-.26,.36-.05,.13-.13,.25-.22,.36-.09,.11-.18,.23-.26,.36l-.36,.76c-.05,.13-.11,.26-.18,.38-.07,.12-.13,.25-.18,.38-.05,.13-.09,.27-.1,.42-.01,.15-.05,.29-.1,.42-.05,.13-.1,.26-.14,.38s-.09,.25-.14,.38l-.2,.84c-.05,.13-.1,.27-.14,.4s-.07,.27-.1,.4c-.05,.13-.09,.27-.1,.42-.01,.15-.03,.29-.06,.42-.05,.13-.09,.27-.12,.4-.03,.13-.05,.27-.08,.4-.05,.13-.08,.27-.08,.42s-.03,.29-.08,.42c-.03,.13-.06,.27-.1,.42-.04,.15-.07,.29-.1,.42l-.12,.84c-.05,.13-.1,.27-.14,.4-.04,.13-.07,.27-.1,.4-.03,.13-.03,.27,0,.42,.03,.15,.03,.3,0,.46l-.16,.8-.08,.84c-.03,.13-.05,.27-.06,.42-.01,.15-.02,.29-.02,.42l-.16,.84c-.03,.13-.05,.27-.06,.42-.01,.15-.02,.29-.02,.42-.03,.16-.05,.31-.06,.46-.01,.15-.02,.29-.02,.42l-.16,.88c0,.13,0,.27-.02,.42-.01,.15-.02,.3-.02,.46-.03,.13-.05,.27-.06,.42-.01,.15-.02,.3-.02,.46-.03,.13-.05,.27-.08,.42-.03,.15-.04,.29-.04,.42-.03,.16-.05,.31-.06,.46-.01,.15-.02,.29-.02,.42l-.08,.88v.44c0,.16-.01,.31-.04,.44v.88c-.03,.13-.05,.27-.08,.42-.03,.15-.04,.3-.04,.46-.03,.13-.03,.27,0,.42,.03,.15,.03,.3,0,.46,0,.13,0,.27-.02,.4-.01,.13-.03,.28-.06,.44,.05-.16,.1-.3,.14-.42,.04-.12,.09-.25,.14-.38l.2-.88,.4-1.68c.05-.13,.1-.27,.14-.42,.04-.15,.09-.29,.14-.42,.05-.13,.11-.27,.18-.4,.07-.13,.13-.27,.18-.4,.05-.13,.09-.27,.12-.42,.03-.15,.07-.29,.12-.42,.05-.13,.11-.27,.18-.4,.07-.13,.13-.27,.18-.4l.36-.8c.05-.13,.11-.27,.16-.42,.05-.15,.11-.29,.16-.42,.08-.13,.15-.27,.22-.4,.07-.13,.14-.27,.22-.4,.05-.13,.13-.25,.22-.36,.09-.11,.18-.23,.26-.36,.08-.13,.17-.25,.26-.36,.09-.11,.19-.21,.3-.32,.11-.13,.19-.27,.26-.4,.07-.13,.15-.25,.26-.36,.24-.19,.48-.35,.72-.48,.13-.08,.27-.14,.42-.18,.15-.04,.29-.09,.42-.14,.13-.05,.27-.09,.42-.12,.15-.03,.3-.04,.46-.04,.24,0,.48,.04,.72,.12,.13,.03,.26,.05,.38,.08,.12,.03,.23,.07,.34,.12,.19,.11,.37,.28,.56,.52,.08,.11,.15,.21,.22,.32,.07,.11,.13,.23,.18,.36,.05,.13,.11,.26,.18,.38,.07,.12,.13,.25,.18,.38,.03,.13,.05,.27,.06,.4,.01,.13,.02,.27,.02,.4,.03,.13,.04,.27,.04,.42v.42c0,.13,0,.27,.02,.4,.01,.13,0,.27-.02,.4,0,.13,0,.27-.02,.42-.01,.15-.03,.29-.06,.42,0,.13,0,.27,.02,.4,.01,.13,0,.27-.02,.4-.03,.13-.05,.27-.06,.42-.01,.15-.02,.29-.02,.42-.03,.13-.04,.27-.04,.4v.4c-.03,.13-.07,.27-.12,.4-.05,.13-.09,.27-.12,.4v.68c-.03,.11-.05,.21-.08,.3-.03,.09-.04,.21-.04,.34l-.12,.44c0,.16,0,.31-.02,.46-.01,.15-.03,.3-.06,.46,0,.13-.01,.28-.04,.44-.03,.16-.04,.31-.04,.44-.03,.16-.04,.31-.04,.46v.46c-.03,.13-.03,.28-.02,.44,.01,.16,.02,.31,.02,.44v.48c0,.16,.01,.31,.04,.44,0,.16,.01,.31,.04,.46,.03,.15,.07,.29,.12,.42,.13,.32,.27,.57,.4,.76,.29,.29,.63,.44,1,.44Z"/><path class="cls-1" d="M72.5,31.04c.11-.09,.2-.21,.28-.34,.11-.11,.2-.21,.28-.32,.08-.11,.16-.23,.24-.36,.11-.11,.19-.22,.26-.34,.07-.12,.14-.25,.22-.38,.08-.13,.16-.25,.24-.36,.08-.11,.15-.23,.2-.36,.05-.13,.12-.26,.2-.38,.08-.12,.15-.25,.2-.38,.11-.27,.19-.53,.24-.8,.13-.05,.23-.07,.28-.06,.05,.01,.12,.07,.2,.18-.05,.29-.13,.57-.24,.84-.05,.13-.11,.27-.18,.42-.07,.15-.14,.29-.22,.42-.05,.13-.12,.26-.2,.38-.08,.12-.17,.25-.28,.38-.05,.13-.13,.25-.22,.36-.09,.11-.19,.23-.3,.36-.08,.13-.17,.25-.26,.36-.09,.11-.19,.23-.3,.36-.11,.11-.2,.22-.28,.34-.08,.12-.17,.23-.28,.34l-.64,.56-.68,.48c-.13,.11-.25,.2-.34,.28-.09,.08-.21,.15-.34,.2-.21,.13-.47,.27-.76,.4-.13,.05-.26,.09-.38,.12-.12,.03-.25,.07-.38,.12-.13,.05-.27,.09-.42,.12-.15,.03-.29,.05-.42,.08-.13,.03-.27,.04-.4,.04h-.4c-.16,0-.31,0-.46,.02-.15,.01-.29,.02-.42,.02l-.84-.12-.8-.24c-.13-.05-.27-.1-.4-.14-.13-.04-.27-.09-.4-.14l-.76-.36c-.24-.16-.47-.35-.68-.56-.11-.08-.21-.17-.32-.26-.11-.09-.2-.19-.28-.3-.11-.11-.2-.21-.28-.32-.08-.11-.16-.23-.24-.36l-.48-.68c-.05-.13-.11-.27-.16-.4-.05-.13-.11-.27-.16-.4l-.24-.8c-.11-.29-.17-.56-.2-.8-.03-.13-.04-.27-.04-.42v-.42c-.03-.13-.05-.27-.06-.42-.01-.15-.02-.29-.02-.42v-.84c0-.13,0-.27,.02-.42,.01-.15,.02-.29,.02-.42l.12-.84,.2-.84c.03-.13,.05-.27,.08-.42,.03-.15,.07-.29,.12-.42l.28-.8c.05-.13,.1-.27,.14-.4,.04-.13,.1-.27,.18-.4,.05-.13,.12-.26,.2-.38,.08-.12,.15-.25,.2-.38l.52-.68c.08-.13,.17-.25,.26-.34s.19-.19,.3-.3l.6-.64,.68-.52c.13-.08,.26-.17,.38-.26,.12-.09,.25-.17,.38-.22,.13-.05,.27-.1,.4-.14,.13-.04,.27-.09,.4-.14,.13-.05,.27-.1,.42-.14,.15-.04,.29-.07,.42-.1,.13-.05,.28-.08,.44-.08h.44c.16,0,.31,.01,.46,.04,.15,.03,.29,.07,.42,.12,.13,.05,.27,.1,.4,.14,.13,.04,.27,.1,.4,.18,.32,.19,.56,.37,.72,.56,.08,.11,.17,.22,.26,.34,.09,.12,.17,.25,.22,.38,.11,.21,.2,.51,.28,.88,.03,.13,.06,.27,.1,.4,.04,.13,.07,.28,.1,.44,.03,.13,.04,.28,.04,.44v.44c0,.13,0,.27-.02,.42-.01,.15-.02,.3-.02,.46l-.12,.84c-.03,.13-.06,.27-.1,.4-.04,.13-.09,.27-.14,.4l-.24,.8c-.05,.13-.12,.26-.2,.38-.08,.12-.16,.25-.24,.38-.08,.13-.15,.26-.22,.38-.07,.12-.15,.25-.26,.38-.11,.13-.21,.25-.3,.36-.09,.11-.21,.21-.34,.32-.11,.13-.21,.25-.32,.34-.11,.09-.23,.19-.36,.3l-.76,.48c-.13,.08-.27,.15-.42,.22-.15,.07-.29,.13-.42,.18-.16,.05-.31,.11-.46,.16-.15,.05-.29,.11-.42,.16-.16,.05-.31,.11-.46,.16-.15,.05-.29,.09-.42,.12-.21,.05-.39,.09-.54,.12-.15,.03-.27,.04-.38,.04-.13,0-.2,.01-.2,.04-.05-.13-.07-.22-.06-.26,.01-.04,0-.13-.02-.26,.03,0,.05,0,.08-.02,.03-.01,.07-.02,.12-.02,.13-.03,.27-.04,.42-.04s.29-.03,.42-.08l.84-.24c.13-.05,.27-.11,.42-.16,.15-.05,.29-.11,.42-.16,.13-.05,.26-.11,.38-.16,.12-.05,.25-.12,.38-.2,.27-.16,.51-.32,.72-.48,.24-.16,.47-.35,.68-.56,.11-.11,.2-.21,.28-.32,.08-.11,.17-.23,.28-.36l.52-.68,.32-.72c.05-.13,.1-.26,.14-.38s.09-.25,.14-.38c.11-.29,.17-.55,.2-.76l.12-.8c0-.13,.01-.27,.04-.4,.03-.13,.04-.27,.04-.4,0-.11,0-.23-.02-.38-.01-.15-.03-.31-.06-.5-.03-.13-.05-.28-.08-.44-.03-.16-.07-.31-.12-.44-.05-.13-.11-.27-.18-.42-.07-.15-.14-.29-.22-.42-.11-.19-.29-.4-.56-.64-.27-.21-.53-.37-.8-.48-.13-.05-.27-.09-.4-.12-.13-.03-.29-.04-.48-.04-.13,0-.27,.02-.4,.06-.13,.04-.27,.09-.4,.14-.13,.05-.25,.11-.34,.18-.09,.07-.21,.14-.34,.22-.13,.05-.25,.13-.34,.22s-.19,.19-.3,.3c-.08,.08-.16,.17-.24,.28s-.17,.21-.28,.32l-.48,.68-.36,.72c-.05,.13-.11,.27-.18,.4s-.13,.27-.18,.4c-.05,.13-.11,.27-.16,.4-.05,.13-.11,.27-.16,.4l-.2,.8c-.05,.13-.09,.27-.12,.42-.03,.15-.05,.29-.08,.42-.03,.13-.05,.27-.08,.4-.03,.13-.07,.27-.12,.4l-.08,.84c0,.13-.01,.27-.04,.42-.03,.15-.04,.3-.04,.46,0,.13,0,.27-.02,.42-.01,.15-.02,.29-.02,.42s.01,.27,.04,.42c.03,.15,.04,.29,.04,.42v.42c0,.15,.01,.3,.04,.46,.03,.13,.04,.27,.04,.42s.03,.29,.08,.42c.03,.13,.06,.27,.1,.4,.04,.13,.09,.27,.14,.4,.05,.13,.1,.27,.14,.4,.04,.13,.09,.27,.14,.4,.13,.29,.27,.55,.4,.76l.48,.68c.13,.13,.25,.25,.34,.36,.09,.11,.21,.2,.34,.28,.13,.11,.27,.19,.42,.24,.15,.05,.29,.11,.42,.16,.13,.05,.27,.11,.42,.16,.15,.05,.3,.09,.46,.12,.16,.05,.32,.07,.48,.06,.16-.01,.32-.02,.48-.02h.44c.16,0,.31-.01,.44-.04l.88-.24,.84-.36c.13-.08,.26-.17,.38-.26,.12-.09,.25-.18,.38-.26,.13-.08,.26-.16,.38-.24s.25-.17,.38-.28l.64-.6c.11-.11,.21-.21,.32-.3Z"/><path class="cls-1" d="M89.54,31.38c.08-.13,.15-.27,.22-.42,.07-.15,.13-.29,.18-.42l.36-.88c.05-.13,.11-.27,.16-.42,.05-.15,.11-.3,.16-.46l.2-.88c.05-.16,.11-.31,.16-.46,.05-.15,.11-.29,.16-.42,.13-.03,.23-.04,.28-.04s.12,.04,.2,.12l-.2,.8-.2,.76-.28,.76c-.05,.13-.1,.26-.14,.38-.04,.12-.09,.25-.14,.38l-.28,.72-.36,.72c-.08,.13-.15,.25-.2,.36-.05,.11-.12,.23-.2,.36l-.48,.64c-.08,.13-.17,.24-.28,.32-.11,.08-.2,.16-.28,.24-.13,.11-.25,.19-.36,.26-.11,.07-.23,.13-.36,.18-.13,.05-.27,.09-.4,.12-.13,.03-.27,.04-.4,.04s-.26-.01-.38-.04-.25-.05-.38-.08c-.32-.08-.57-.19-.76-.32-.11-.08-.21-.17-.29-.26-.08-.09-.18-.19-.29-.3-.19-.24-.34-.48-.45-.72-.08-.13-.16-.26-.23-.38-.07-.12-.13-.25-.18-.38-.11-.29-.18-.57-.2-.84l-.12-.84c0-.13,0-.27-.02-.42-.01-.15-.02-.29-.02-.42-.03-.13-.05-.27-.06-.42-.01-.15-.02-.3-.02-.46v-.84c0-.13,0-.27,.02-.42,.01-.15,.03-.29,.06-.42,0-.16,0-.31-.02-.46-.01-.15,0-.29,.02-.42,0-.13,.01-.27,.04-.42,.03-.15,.04-.29,.04-.42l.16-.84c0-.13,0-.28-.02-.44-.01-.16,0-.31,.02-.44l.12-.84,.16-.84,.12-.84,.12-.88,.16-.8c-.08,.11-.17,.2-.27,.28-.1,.08-.21,.17-.35,.28-.16,.13-.4,.27-.72,.4-.11,.05-.23,.09-.36,.12-.13,.03-.27,.07-.4,.12-.13,.03-.27,.05-.4,.08-.13,.03-.28,.04-.44,.04-.19,0-.41-.03-.68-.08l-.68-.12-.04,.04h.04c-.03,.13-.06,.27-.1,.4-.04,.13-.07,.27-.1,.4l-.2,.76-.2,.8c-.03,.13-.07,.26-.12,.38-.05,.12-.11,.25-.16,.38-.03,.13-.04,.27-.04,.4s-.03,.27-.08,.4l-.24,.76c-.05,.13-.1,.26-.14,.38-.04,.12-.09,.25-.14,.38-.05,.16-.09,.32-.1,.48-.01,.16-.05,.32-.1,.48-.05,.16-.11,.31-.16,.46-.05,.15-.11,.29-.16,.42-.13,.05-.22,.07-.26,.06-.04-.01-.1-.07-.18-.18l.24-.92c.05-.13,.1-.28,.14-.44,.04-.16,.09-.32,.14-.48l.2-.8c.05-.13,.1-.26,.14-.38,.04-.12,.09-.25,.14-.38l.16-.76c.05-.13,.1-.27,.14-.4,.04-.13,.07-.27,.1-.4l.2-.76c.03-.13,.05-.27,.06-.4,.01-.13,.05-.27,.1-.4l.2-.76-.76-.36c-.13-.08-.25-.17-.36-.26-.11-.09-.21-.18-.32-.26-.21-.21-.4-.44-.56-.68-.05-.13-.11-.26-.18-.38-.07-.12-.13-.25-.18-.38-.05-.13-.09-.27-.1-.42-.01-.15-.03-.29-.06-.42v-.42c0-.15,.01-.29,.04-.42,.03-.29,.11-.59,.24-.88,.13-.32,.29-.57,.48-.76,.21-.21,.47-.39,.76-.52,.24-.11,.53-.16,.88-.16,.45,0,.8,.21,1.04,.64,.08,.19,.15,.43,.2,.72,.03,.11,.04,.23,.04,.36v.82c0,.15-.01,.31-.04,.5,0,.13-.01,.27-.04,.42-.03,.15-.05,.31-.08,.5-.03,.13-.05,.27-.08,.42-.03,.15-.07,.3-.12,.46-.03,.13-.05,.28-.06,.44-.01,.16-.05,.32-.1,.48,.35,.19,.76,.28,1.24,.28,.16,0,.31,0,.44-.02,.13-.01,.27-.03,.4-.06,.37-.08,.65-.17,.84-.28,.13-.08,.25-.16,.36-.24,.11-.08,.21-.17,.32-.28,.11-.13,.21-.25,.31-.34,.09-.09,.17-.21,.22-.34,.11-.16,.18-.31,.2-.46,.03-.15,.05-.26,.08-.34v-.12c.03-.05,.03-.09,.02-.12-.01-.03,0-.05,.06-.08,.27-.03,.45-.03,.53-.02,.08,.01,.26,.05,.53,.1,.27,.03,.45,.03,.54,0,.09-.03,.27,.01,.54,.12,.05,.03,.06,.07,.02,.12-.04,.05-.07,.11-.1,.16l-.2,.88-.12,.88-.16,.88c-.03,.13-.06,.27-.1,.42-.04,.15-.07,.29-.1,.42l-.12,.88-.16,.88-.08,.88c-.03,.16-.05,.31-.08,.46-.03,.15-.04,.29-.04,.42l-.12,.88c-.03,.16-.03,.31-.02,.46,.01,.15,0,.29-.02,.42l-.12,.92c0,.13,0,.27-.02,.42-.01,.15-.02,.3-.02,.46,0,.13-.01,.28-.04,.44-.03,.16-.04,.31-.04,.44s.01,.28,.04,.44c.03,.16,.04,.31,.04,.44,.03,.16,.04,.31,.04,.46v.42l.12,.88c.05,.37,.11,.67,.16,.88,.13,.37,.27,.64,.4,.8,.21,.27,.47,.4,.76,.4s.59-.08,.88-.24c.11-.05,.21-.13,.3-.24,.09-.11,.21-.23,.34-.36l.52-.68c.08-.13,.16-.26,.24-.38,.08-.12,.15-.25,.2-.38Zm-9.24-16.88c-.13-.21-.28-.33-.44-.36-.03,.08-.07,.19-.12,.32-.05,.13-.09,.29-.12,.48-.05,.13-.07,.27-.06,.42,.01,.15,0,.29-.02,.42,0,.13,0,.27-.02,.42-.01,.15-.02,.29-.02,.42v.42c0,.15,.01,.29,.04,.42,.03,.13,.05,.27,.06,.4,.01,.13,.05,.27,.1,.4,.08,.27,.21,.52,.4,.76l.16-.8c.03-.13,.05-.27,.08-.4,.03-.13,.04-.27,.04-.4,.03-.16,.04-.31,.04-.44v-.4c.03-.13,.04-.27,.04-.4v-.4c0-.61-.05-1.04-.16-1.28Z"/></svg>