<svg xmlns="http://www.w3.org/2000/svg" width="86.232" height="63.572" viewBox="0 0 86.232 63.572">
  <g id="コンサル" transform="translate(-20.014 -18.617)">
    <path id="パス_64" data-name="パス 64" d="M141.049,71.03h0a.288.288,0,0,1-.056-.4l6.762-8.953a.288.288,0,0,1,.4-.056h0a.288.288,0,0,1,.056.4l-6.762,8.953A.288.288,0,0,1,141.049,71.03Z" transform="translate(-91.143 -32.367)" fill="#068cbd"/>
    <g id="グループ_24" data-name="グループ 24" transform="translate(20.014 24.529)">
      <circle id="楕円形_9" data-name="楕円形 9" cx="5.109" cy="5.109" r="5.109" transform="translate(6.171 0)" fill="#068cbd"/>
      <path id="パス_65" data-name="パス 65" d="M50.392,90.03l-.064-.071a1.815,1.815,0,0,0-2.563-.146l-5.5,4.905-5.691-5.691a1.855,1.855,0,0,0-.638-.417,4.752,4.752,0,0,0-2.918-1H30.241l.024-.037h-.894a9.865,9.865,0,0,0-1.928.267,5.509,5.509,0,0,0-3.1,2.62L21.053,99.3a2.123,2.123,0,0,0-.236.637c-.026.12-.047.2-.066.329l-.7,8.514a1.8,1.8,0,1,0,3.529.737l.653-8.3c.032-.048.062-.1.09-.148l.729-2.369v.709l.089-.635v32.273a2.829,2.829,0,0,0,2.829,2.83h0a2.829,2.829,0,0,0,2.829-2.83v-19.46h1.354v19.46a2.829,2.829,0,1,0,5.659,0V106.62c0-.088-.005-.174-.013-.26V95.519l3.008,3.008a1.853,1.853,0,0,0,.985.515,1.812,1.812,0,0,0,1.675-.4l6.778-6.049A1.815,1.815,0,0,0,50.392,90.03Z" transform="translate(-20.014 -76.504)" fill="#068cbd"/>
    </g>
    <path id="パス_66" data-name="パス 66" d="M199.589,190.945h-6.372V169.766h-2.974v5.381h-16.6v-5.381h-2.974v21.178h-6.8l-1.97,5.171h39.9Zm-25.942-5.9h16.6v5.9h-16.6Z" transform="translate(-106.946 -113.927)" fill="#068cbd"/>
    <path id="パス_67" data-name="パス 67" d="M115.88,18.617V40.294l3.543-3.162V22.012h55.538V52.947H119.422v-8.3l-3.543,3.162v8.529H178.5V18.617Z" transform="translate(-72.258)" fill="#068cbd"/>
  </g>
</svg>
