<svg xmlns="http://www.w3.org/2000/svg" width="79.82" height="100.042" viewBox="0 0 79.82 100.042">
  <g id="書類添削" transform="translate(-138.828 -100.791)">
    <path id="パス_16" data-name="パス 16" d="M214.995,100.791H142.481a3.651,3.651,0,0,0-3.653,3.649v92.743a3.651,3.651,0,0,0,3.653,3.649h72.513a3.651,3.651,0,0,0,3.654-3.649V104.44A3.652,3.652,0,0,0,214.995,100.791Zm-3.648,92.742H146.129V108.091h65.218Z" fill="#003d52"/>
    <path id="パス_17" data-name="パス 17" d="M318.722,142.315H291.9v32.87h26.818Zm-13.605,5.072a5.954,5.954,0,1,1-5.754,5.949A5.849,5.849,0,0,1,305.116,147.387Zm8.682,23.341H296.446v-4.837c0-3.532,3.53-6.6,3.53-6.6l5.14,3.916,5.149-3.916s3.533,3.07,3.533,6.6Z" transform="translate(-112.243 -30.448)" fill="#003d52"/>
    <rect id="長方形_48" data-name="長方形 48" width="25.485" height="4.692" transform="translate(150.404 114.302)" fill="#003d52"/>
    <rect id="長方形_49" data-name="長方形 49" width="56.074" height="4.692" transform="translate(150.404 149.782)" fill="#003d52"/>
    <rect id="長方形_50" data-name="長方形 50" width="56.074" height="4.691" transform="translate(150.404 159.076)" fill="#003d52"/>
    <rect id="長方形_51" data-name="長方形 51" width="56.074" height="4.692" transform="translate(150.404 173.428)" fill="#003d52"/>
    <rect id="長方形_52" data-name="長方形 52" width="56.074" height="4.694" transform="translate(150.404 182.719)" fill="#003d52"/>
    <rect id="長方形_53" data-name="長方形 53" width="25.485" height="4.694" transform="translate(150.404 123.413)" fill="#003d52"/>
    <rect id="長方形_54" data-name="長方形 54" width="14.7" height="4.691" transform="translate(161.19 132.433)" fill="#003d52"/>
  </g>
</svg>
