<svg xmlns="http://www.w3.org/2000/svg" width="73.647" height="69.276" viewBox="0 0 73.647 69.276">
  <g id="金融" transform="translate(-484.098 -110.5)">
    <rect id="長方形_87" data-name="長方形 87" width="39.822" height="9.907" rx="3.867" transform="translate(489.311 116.975)" fill="#068cbd"/>
    <rect id="長方形_88" data-name="長方形 88" width="6.498" height="2.914" rx="1.457" transform="translate(489.311 129.213)" fill="#068cbd"/>
    <rect id="長方形_89" data-name="長方形 89" width="6.498" height="2.914" rx="1.457" transform="translate(497.666 129.213)" fill="#068cbd"/>
    <rect id="長方形_90" data-name="長方形 90" width="6.498" height="2.914" rx="1.457" transform="translate(506.021 129.213)" fill="#068cbd"/>
    <rect id="長方形_91" data-name="長方形 91" width="6.498" height="2.914" rx="1.457" transform="translate(514.376 129.213)" fill="#068cbd"/>
    <rect id="長方形_92" data-name="長方形 92" width="6.498" height="2.914" rx="1.457" transform="translate(522.731 129.213)" fill="#068cbd"/>
    <g id="グループ_30" data-name="グループ 30" transform="translate(489.3 134.076)">
      <rect id="長方形_93" data-name="長方形 93" width="6.498" height="6.498" rx="2.543" transform="translate(0 0)" fill="#068cbd"/>
      <rect id="長方形_94" data-name="長方形 94" width="6.498" height="6.498" rx="2.543" transform="translate(0.054 8.871)" fill="#068cbd"/>
      <rect id="長方形_95" data-name="長方形 95" width="6.498" height="6.498" rx="2.543" transform="translate(0.054 17.806)" fill="#068cbd"/>
      <rect id="長方形_96" data-name="長方形 96" width="6.498" height="6.498" rx="2.543" transform="translate(0.054 26.742)" fill="#068cbd"/>
    </g>
    <g id="グループ_31" data-name="グループ 31" transform="translate(497.704 134.076)">
      <rect id="長方形_97" data-name="長方形 97" width="6.498" height="6.498" rx="2.543" transform="translate(0 0)" fill="#068cbd"/>
      <rect id="長方形_98" data-name="長方形 98" width="6.498" height="6.498" rx="2.543" transform="translate(0.054 8.871)" fill="#068cbd"/>
      <rect id="長方形_99" data-name="長方形 99" width="6.498" height="6.498" rx="2.543" transform="translate(0.054 17.806)" fill="#068cbd"/>
      <rect id="長方形_100" data-name="長方形 100" width="6.498" height="6.498" rx="2.543" transform="translate(0.054 26.742)" fill="#068cbd"/>
    </g>
    <g id="グループ_32" data-name="グループ 32" transform="translate(505.994 134.076)">
      <rect id="長方形_101" data-name="長方形 101" width="6.498" height="6.498" rx="2.543" transform="translate(0 0)" fill="#068cbd"/>
      <rect id="長方形_102" data-name="長方形 102" width="6.498" height="6.498" rx="2.543" transform="translate(0.054 8.871)" fill="#068cbd"/>
      <rect id="長方形_103" data-name="長方形 103" width="6.498" height="6.498" rx="2.543" transform="translate(0.054 17.806)" fill="#068cbd"/>
      <rect id="長方形_104" data-name="長方形 104" width="6.498" height="6.498" rx="2.543" transform="translate(0.054 26.742)" fill="#068cbd"/>
    </g>
    <path id="長方形_105" data-name="長方形 105" d="M2.543,0H3.956A2.542,2.542,0,0,1,6.5,2.542V3.956A2.543,2.543,0,0,1,3.956,6.5H2.543A2.543,2.543,0,0,1,0,3.956V2.543A2.543,2.543,0,0,1,2.543,0Z" transform="translate(514.349 134.076)" fill="#068cbd"/>
    <rect id="長方形_106" data-name="長方形 106" width="6.498" height="6.498" rx="2.543" transform="translate(514.403 142.946)" fill="#068cbd"/>
    <rect id="長方形_107" data-name="長方形 107" width="6.498" height="6.498" rx="2.543" transform="translate(522.704 134.076)" fill="#068cbd"/>
    <rect id="長方形_108" data-name="長方形 108" width="6.498" height="6.498" rx="2.543" transform="translate(522.704 142.946)" fill="#068cbd"/>
    <path id="パス_77" data-name="パス 77" d="M691.632,219.916a3.739,3.739,0,0,0-1.589-1.257,13.04,13.04,0,0,0-2.076-.633V214.1a2.754,2.754,0,0,1,1.391.546,2.526,2.526,0,0,1,.854,1.766l1.564-.118a3.734,3.734,0,0,0-.605-1.943,3.489,3.489,0,0,0-1.611-1.3,5.665,5.665,0,0,0-1.593-.4v-1.537h-1.325v1.511a5.647,5.647,0,0,0-1.763.4,3.282,3.282,0,0,0-1.548,1.232,3.134,3.134,0,0,0-.53,1.745,2.813,2.813,0,0,0,.433,1.535,3.336,3.336,0,0,0,1.316,1.148,10.168,10.168,0,0,0,2.091.7v4.438a4.316,4.316,0,0,1-1.023-.3,2.777,2.777,0,0,1-1.241-.959,3.4,3.4,0,0,1-.509-1.518l-1.539.135a4.163,4.163,0,0,0,.677,2.216,3.929,3.929,0,0,0,1.775,1.468,6.191,6.191,0,0,0,1.86.443v1.537h1.325v-1.5a5.472,5.472,0,0,0,2-.472,3.71,3.71,0,0,0,1.619-1.354,3.356,3.356,0,0,0,.563-1.855A3.065,3.065,0,0,0,691.632,219.916Zm-6.779-2.923a1.4,1.4,0,0,1-.479-1.093,1.627,1.627,0,0,1,.677-1.308,2.91,2.91,0,0,1,1.591-.518v3.636A4.825,4.825,0,0,1,684.853,216.993Zm5.37,5.867a2.287,2.287,0,0,1-1.064.761,4.211,4.211,0,0,1-1.193.26V219.72c.555.144.944.259,1.16.343a2.493,2.493,0,0,1,1.11.728,1.605,1.605,0,0,1,.336,1.013A1.765,1.765,0,0,1,690.224,222.859Z" transform="translate(-143.731 -72.776)" fill="#068cbd"/>
    <path id="パス_78" data-name="パス 78" d="M638.312,278.691h-2.865l-3.192,3.763-3.192-3.763H626.2l4.625,5.452h-3.907v1.823h4.1v1.693h-4.1v1.823h4.1v3.777h2.475v-3.777h4.1v-1.823h-4.1v-1.693h4.1v-1.823h-3.907Z" transform="translate(-102.927 -121.894)" fill="#068cbd"/>
    <path id="パス_79" data-name="パス 79" d="M557.245,146.21a13.73,13.73,0,0,0-23.4-9.754V115.223A4.227,4.227,0,0,0,529.622,111h-40.8a4.227,4.227,0,0,0-4.223,4.223v52.457a4.227,4.227,0,0,0,4.223,4.222H516.3a15.189,15.189,0,0,0,27.637-11.965A13.751,13.751,0,0,0,557.245,146.21Zm-68.424,24.619a3.154,3.154,0,0,1-3.151-3.15V115.223a3.154,3.154,0,0,1,3.151-3.151h40.8a3.154,3.154,0,0,1,3.15,3.151v22.429a13.671,13.671,0,0,0-2.733,11.253c-.237-.011-.474-.018-.713-.018a15.115,15.115,0,0,0-9.047,3h-5.423a.456.456,0,0,0-.454.454v5.59a.455.455,0,0,0,.454.454h.389a15.15,15.15,0,0,0,.472,12.449Zm40.506,7.2a13.943,13.943,0,1,1,13.944-13.943A13.959,13.959,0,0,1,529.327,178.025ZM543.532,158.7a15.233,15.233,0,0,0-12.189-9.671,12.454,12.454,0,0,1,2.477-10.682h.025v-.032a12.484,12.484,0,1,1,9.687,20.385Z" fill="#068cbd" stroke="#068cbd" stroke-width="1"/>
  </g>
</svg>
