<svg xmlns="http://www.w3.org/2000/svg" width="65.866" height="60" viewBox="0 0 65.866 60">
  <g id="人事" transform="translate(-613.713 -209.684)">
    <path id="パス_61" data-name="パス 61" d="M632.6,244.7c1.009-2.42,2.036-3.752,3.232-4.192a14.462,14.462,0,0,1,2.181-.529,13.164,13.164,0,0,1,3.347-22l.168-.071a11.944,11.944,0,1,0-16.611,14.44,22.428,22.428,0,0,0-5.131.886c-1.8.663-3.425,5.352-4.54,10.094-.955,4.06-1.537,13.8-1.537,15.436,0,.161.007.324.018.487a56.456,56.456,0,0,0,15.564,2.011c0-.033.005-.067.008-.1a80.174,80.174,0,0,1,1.228-9.7A45.18,45.18,0,0,1,632.6,244.7Z" transform="translate(0 0)" fill="#068cbd"/>
    <path id="パス_62" data-name="パス 62" d="M1172.742,243.333c-1.115-4.742-2.74-9.432-4.54-10.094a22.432,22.432,0,0,0-5.131-.886,11.944,11.944,0,1,0-16.611-14.44l.168.071a13.162,13.162,0,0,1,3.347,22,14.457,14.457,0,0,1,2.181.529c1.2.44,2.222,1.772,3.232,4.192a45.193,45.193,0,0,1,2.075,6.767,80.186,80.186,0,0,1,1.228,9.7l.008.1a56.457,56.457,0,0,0,15.564-2.011c.01-.164.018-.326.018-.487C1174.278,257.129,1173.7,247.393,1172.742,243.333Z" transform="translate(-494.699 0)" fill="#068cbd"/>
    <path id="パス_63" data-name="パス 63" d="M876.926,371.283q-.023-.3-.047-.61c-.163-2.071-.381-4.354-.647-6.322q-.027-.2-.054-.389c-.042-.293-.084-.578-.128-.853-.058-.367-.118-.716-.18-1.042q-.046-.245-.094-.473t-.1-.436c-1.115-4.742-2.74-9.432-4.54-10.094,0,0-.217-.08-.677-.2-.153-.039-.334-.082-.543-.127l-.12-.026q-.185-.039-.4-.08l-.244-.046-.261-.046q-.27-.046-.574-.092-.365-.055-.781-.108c-.174-.022-.356-.044-.544-.065l-.064-.007q-.287-.032-.6-.062l-.33-.031h0a11.951,11.951,0,0,0,1.986-1.23q.264-.2.517-.418t.493-.446a12.024,12.024,0,0,0,1.118-1.229q.254-.321.486-.66t.441-.694a11.929,11.929,0,0,0,.3-11.558q-.2-.38-.422-.744t-.473-.71q-.249-.346-.521-.673t-.567-.634a11.971,11.971,0,0,0-3.824-2.672q-.282-.124-.572-.233t-.579-.2a11.925,11.925,0,0,0-3.641-.566h0a11.926,11.926,0,0,0-3.641.566q-.293.094-.579.2t-.572.233a11.97,11.97,0,0,0-3.824,2.672q-.294.307-.567.634t-.521.673q-.249.346-.473.71t-.422.744a11.959,11.959,0,0,0,.3,11.558q.209.355.441.694t.486.66a12.023,12.023,0,0,0,1.118,1.229q.24.23.493.446t.517.418a11.953,11.953,0,0,0,1.986,1.23h0l-.33.031c-.206.02-.4.04-.6.062l-.064.007c-.188.021-.37.043-.544.065q-.416.053-.781.108-.3.046-.574.092l-.261.046-.244.046q-.212.041-.4.08l-.12.026c-.209.045-.389.088-.543.127-.46.117-.677.2-.677.2-1.8.663-3.425,5.352-4.54,10.094q-.049.208-.1.436t-.094.473c-.062.327-.122.676-.18,1.042-.044.275-.086.56-.128.853q-.027.192-.054.389c-.266,1.968-.484,4.251-.647,6.322q-.024.309-.047.61t-.045.61c-.16,2.242-.246,4.07-.246,4.7,0,.161.007.324.018.487a56.837,56.837,0,0,0,15.893,2.013l.556,0,.556,0a56.838,56.838,0,0,0,15.894-2.013c.01-.163.017-.326.017-.487,0-.631-.086-2.459-.246-4.7Q876.949,371.592,876.926,371.283Z" transform="translate(-214.104 -109.409)" fill="#068cbd"/>
  </g>
</svg>
