<svg xmlns="http://www.w3.org/2000/svg" width="57.372" height="48" viewBox="0 0 57.372 48">
  <path id="ビル" d="M630.608,389.807V354.942H616.056V344.537h-33.8v45.27h-4.508v2.73h57.372v-2.73Zm-14.553-21.748h10.554v1.155h-10.8v-1.155Zm-.242-3.465v-1.155h10.8v1.155h-10.8Zm.242,8.085h10.554v1.155h-10.8v-1.155Zm0,4.62h10.554v1.155h-10.8V377.3Zm0,4.62h10.554v1.155h-10.8v-1.155Zm10.554-23.1v1.155h-10.8v-1.155h10.8Zm-21.593-9.743h4.77v4.6h-4.77Zm0,7.351h4.77v4.6h-4.77Zm0,7.351h4.77v4.6h-4.77Zm0,7.35h4.77v4.6h-4.77Zm-.126,18.68v.093h-5.147v-8.505h5.147Zm-8.411-40.732h4.771v4.6H596.48Zm0,7.351h4.771v4.6H596.48Zm0,7.351h4.771v4.6H596.48Zm0,7.35h4.771v4.6H596.48Zm-8.537-22.051h4.771v4.6h-4.771Zm0,7.351h4.771v4.6h-4.771Zm0,7.351h4.771v4.6h-4.771Zm0,7.35h4.771v4.6h-4.771Zm5.775,10.268h5.147V389.9h-5.147v-8.505Z" transform="translate(-577.744 -344.537)" fill="#068cbd"/>
</svg>
