<svg xmlns="http://www.w3.org/2000/svg" width="82.732" height="52.716" viewBox="0 0 82.732 52.716">
  <g id="IT" transform="translate(-973.955 -179.81)">
    <path id="パス_55" data-name="パス 55" d="M1090.144,248.916a1.358,1.358,0,0,1-1.376,1.339H1050.8a1.358,1.358,0,0,1-1.376-1.339V226.123a1.358,1.358,0,0,1,1.376-1.339h37.971a1.358,1.358,0,0,1,1.376,1.339Z" transform="translate(-66.514 -39.639)" fill="#068cbd"/>
    <path id="パス_56" data-name="パス 56" d="M1503.308,232.526h-16.4a3.2,3.2,0,0,1-1.892-.6,2.414,2.414,0,0,1-1.024-1.943V182.351a2.414,2.414,0,0,1,1.024-1.943,3.2,3.2,0,0,1,1.892-.6h16.4a3.2,3.2,0,0,1,1.892.6,2.414,2.414,0,0,1,1.024,1.943v47.634a2.414,2.414,0,0,1-1.024,1.943A3.2,3.2,0,0,1,1503.308,232.526Zm-16.331-2.98h16.267V182.79h-16.267Z" transform="translate(-449.537)" fill="#068cbd"/>
    <rect id="長方形_69" data-name="長方形 69" width="1.64" height="10.141" transform="translate(1041.65 189.061)" fill="#068cbd"/>
    <path id="パス_57" data-name="パス 57" d="M1567.7,540.3a1.552,1.552,0,1,1-1.552-1.552A1.552,1.552,0,0,1,1567.7,540.3Z" transform="translate(-520.576 -316.356)" fill="#068cbd"/>
    <path id="パス_58" data-name="パス 58" d="M1032.223,232.583l-5.1-5.935a1.489,1.489,0,0,0-1.13-.519h-19.1v-7.748h19.27a3.129,3.129,0,0,0,3.125-3.125V186.12a3.129,3.129,0,0,0-3.125-3.125H980.377a3.129,3.129,0,0,0-3.125,3.125v29.135a3.129,3.129,0,0,0,3.125,3.125h19.27v7.748h-19.1a1.49,1.49,0,0,0-1.13.519l-5.1,5.935a1.49,1.49,0,0,0,1.13,2.461h55.647a1.49,1.49,0,0,0,1.13-2.461Zm-51.991-17.327V186.12a.145.145,0,0,1,.145-.145h45.784a.145.145,0,0,1,.145.145v29.135a.145.145,0,0,1-.145.145H980.377A.145.145,0,0,1,980.232,215.255Zm-1.542,16.808,2.538-2.954h44.083l2.538,2.954Z" transform="translate(0 -2.807)" fill="#068cbd"/>
  </g>
</svg>
