<svg xmlns="http://www.w3.org/2000/svg" width="70.935" height="56.49" viewBox="0 0 70.935 56.49">
  <g id="物流" transform="translate(-3019.466 -2309.099)">
    <path id="パス_85" data-name="パス 85" d="M3208.222,2313.131h-35.7a3.43,3.43,0,0,0-3.43,3.43v35.2a3.43,3.43,0,0,0,3.43,3.43h21.97a6.706,6.706,0,0,1,6.2,0h7.529a3.428,3.428,0,0,0,3.43-3.43v-35.2A3.43,3.43,0,0,0,3208.222,2313.131Z" transform="translate(-122.386 -2.899)" fill="#fff"/>
    <g id="グループ_46" data-name="グループ 46" transform="translate(3019.966 2309.599)">
      <g id="グループ_45" data-name="グループ 45" transform="translate(0 0)">
        <g id="グループ_43" data-name="グループ 43" transform="translate(0.633 19.128)">
          <path id="パス_86" data-name="パス 86" d="M3355.033,2543.416l0,0-.124,5.954h-6a6.7,6.7,0,0,0-3.57-5.193h7.53A3.434,3.434,0,0,0,3355.033,2543.416Z" transform="translate(-3287.635 -2520.62)" fill="#068cbd"/>
          <path id="パス_87" data-name="パス 87" d="M3303.989,2552.877a6.851,6.851,0,0,1,.043.76,6.714,6.714,0,1,1-13.427,0,6.792,6.792,0,0,1,.043-.76,6.7,6.7,0,0,1,3.57-5.194h6.2A6.7,6.7,0,0,1,3303.989,2552.877Zm-4.01.76a2.66,2.66,0,1,0-2.66,2.66A2.66,2.66,0,0,0,3299.979,2553.637Z" transform="translate(-3242.712 -2524.122)" fill="#068cbd"/>
          <path id="パス_88" data-name="パス 88" d="M3316.956,2544.2h-6.2a6.706,6.706,0,0,1,6.2,0Z" transform="translate(-3259.248 -2520.643)" fill="#eaeaea"/>
          <circle id="楕円形_10" data-name="楕円形 10" cx="2.66" cy="2.66" r="2.66" transform="translate(51.407 31.493) rotate(-76.718)" fill="#fff"/>
          <path id="パス_89" data-name="パス 89" d="M3104.1,2444.489h21.97a6.7,6.7,0,0,0-3.57,5.194h-22.887a6.714,6.714,0,0,0-13.385.76h-.507v-4.324c0-3.7,3-3.656,6.7-3.656h4.466a1.48,1.48,0,0,0,1.482-1.479l.02-18.079a1.978,1.978,0,0,0-.246-.96h2.528v19.115A3.43,3.43,0,0,0,3104.1,2444.489Z" transform="translate(-3074.568 -2420.927)" fill="#068cbd"/>
          <path id="パス_90" data-name="パス 90" d="M3101.936,2549.4a6.848,6.848,0,0,1,.043.76,6.712,6.712,0,1,1-.043-.76Zm-4.011.76a2.66,2.66,0,1,0-2.66,2.66A2.66,2.66,0,0,0,3097.925,2550.158Z" transform="translate(-3076.887 -2520.643)" fill="#068cbd"/>
          <path id="パス_91" data-name="パス 91" d="M3023.5,2445.352v-12.191l2.534-13.584a3.3,3.3,0,0,1,3.3-3.3h16.017a1.97,1.97,0,0,1,1.725,1.016h0a1.978,1.978,0,0,1,.246.96l-.02,18.079a1.48,1.48,0,0,1-1.482,1.479h-4.466c-3.7,0-6.7-.043-6.7,3.656v4.948a1.275,1.275,0,0,1-1.277,1.277h-7.54A2.342,2.342,0,0,1,3023.5,2445.352Zm.254-10.831v7.638l2.49-1.249a.694.694,0,0,0,.406-.633v-5.118a.637.637,0,0,0-.636-.638Zm19.011-7.882v-7.157a.672.672,0,0,0-.671-.671h-10.846a1.4,1.4,0,0,0-1.4,1.4l-2.28,11.634a.588.588,0,0,0,.588.588h6.293a.719.719,0,0,0,.719-.719V2429.9a2.469,2.469,0,0,1,2.47-2.47h4.345A.786.786,0,0,0,3042.763,2426.64Z" transform="translate(-3023.498 -2416.278)" fill="#fff"/>
          <path id="パス_92" data-name="パス 92" d="M3113.819,2566.051a2.66,2.66,0,1,1-2.66,2.66A2.66,2.66,0,0,1,3113.819,2566.051Z" transform="translate(-3095.441 -2539.196)" fill="#fff"/>
          <path id="パス_93" data-name="パス 93" d="M3061.363,2431.079v7.157a.786.786,0,0,1-.785.785h-4.345a2.469,2.469,0,0,0-2.47,2.47v1.822a.719.719,0,0,1-.719.719h-6.293a.588.588,0,0,1-.588-.588l2.28-11.634a1.4,1.4,0,0,1,1.4-1.4h10.846A.673.673,0,0,1,3061.363,2431.079Z" transform="translate(-3042.098 -2427.874)" fill="#fff"/>
          <path id="パス_94" data-name="パス 94" d="M3027.808,2518.664v5.118a.693.693,0,0,1-.406.633l-2.49,1.25v-7.639h2.26A.637.637,0,0,1,3027.808,2518.664Z" transform="translate(-3024.658 -2499.781)" fill="#068cbd"/>
        </g>
        <g id="グループ_44" data-name="グループ 44">
          <path id="パス_95" data-name="パス 95" d="M3154.618,2419.678h-2.529a.633.633,0,0,1,0-1.267h2.529a.633.633,0,1,1,0,1.267Z" transform="translate(-3127.879 -2398.901)" fill="#068cbd"/>
          <path id="パス_96" data-name="パス 96" d="M3183.187,2574.383H3160.3a.633.633,0,0,1,0-1.267h22.888a.633.633,0,0,1,0,1.267Z" transform="translate(-3134.617 -2525.866)" fill="#068cbd"/>
          <path id="パス_97" data-name="パス 97" d="M3368.352,2547.132h-6a.634.634,0,0,1,0-1.267h5.379l.111-5.333a.633.633,0,1,1,1.266.027l-.124,5.954A.634.634,0,0,1,3368.352,2547.132Z" transform="translate(-3300.442 -2498.616)" fill="#068cbd"/>
          <path id="パス_98" data-name="パス 98" d="M3205.324,2352.922h-35.7a4.068,4.068,0,0,1-4.064-4.064v-35.2a4.068,4.068,0,0,1,4.064-4.064h35.7a4.068,4.068,0,0,1,4.064,4.064v35.2a4.045,4.045,0,0,1-1.5,3.157h0A4.09,4.09,0,0,1,3205.324,2352.922Zm-35.7-42.056a2.8,2.8,0,0,0-2.8,2.8v35.2a2.8,2.8,0,0,0,2.8,2.8h35.7a2.821,2.821,0,0,0,1.763-.625,2.786,2.786,0,0,0,1.034-2.172v-35.2a2.8,2.8,0,0,0-2.8-2.8Zm37.863,40.657h0Z" transform="translate(-3139.453 -2309.599)" fill="#068cbd" stroke="#068cbd" stroke-width="1"/>
          <path id="パス_99" data-name="パス 99" d="M3030.48,2445.427h-7.54a2.978,2.978,0,0,1-2.975-2.974v-12.191a.662.662,0,0,1,.011-.116l2.523-13.53a3.937,3.937,0,0,1,3.932-3.871h16.017a2.6,2.6,0,0,1,2.251,1.293.447.447,0,0,1,.031.05,2.619,2.619,0,0,1,.325,1.267l-.02,18.08a2.117,2.117,0,0,1-2.116,2.112h-4.593a13.885,13.885,0,0,0-4.423.414c-.749.288-1.514.823-1.514,2.608v4.948A1.912,1.912,0,0,1,3030.48,2445.427Zm-9.247-15.107v12.133a1.709,1.709,0,0,0,1.708,1.708h7.54a.644.644,0,0,0,.644-.643v-4.948c0-1.948.761-3.188,2.326-3.791a14.525,14.525,0,0,1,4.877-.5h4.593a.848.848,0,0,0,.849-.846l.02-18.08a1.329,1.329,0,0,0-.146-.615c-.008-.012-.016-.025-.022-.038a1.337,1.337,0,0,0-1.171-.689h-16.017a2.669,2.669,0,0,0-2.666,2.666.661.661,0,0,1-.01.116Z" transform="translate(-3019.966 -2394.251)" fill="#068cbd" stroke="#068cbd" stroke-width="1"/>
          <path id="パス_100" data-name="パス 100" d="M3092.366,2554.606a7.347,7.347,0,1,1,7.3-8.178h0a7.5,7.5,0,0,1,.047.831A7.355,7.355,0,0,1,3092.366,2554.606Zm0-13.427a6.079,6.079,0,1,0,6.041,5.391A6.087,6.087,0,0,0,3092.366,2541.179Z" transform="translate(-3073.355 -2498.616)" fill="#068cbd"/>
          <path id="パス_101" data-name="パス 101" d="M3110.92,2569.106a3.293,3.293,0,1,1,3.293-3.293A3.3,3.3,0,0,1,3110.92,2569.106Zm0-5.32a2.027,2.027,0,1,0,2.026,2.027A2.029,2.029,0,0,0,3110.92,2563.786Z" transform="translate(-3091.909 -2517.17)" fill="#068cbd"/>
          <path id="パス_102" data-name="パス 102" d="M3312.974,2569.106a3.293,3.293,0,1,1,3.293-3.293A3.3,3.3,0,0,1,3312.974,2569.106Zm0-5.32a2.027,2.027,0,1,0,2.027,2.027A2.029,2.029,0,0,0,3312.974,2563.786Z" transform="translate(-3257.734 -2517.17)" fill="#068cbd"/>
          <path id="パス_103" data-name="パス 103" d="M3294.419,2558.084a7.356,7.356,0,0,1-7.348-7.347,7.448,7.448,0,0,1,.047-.831,7.316,7.316,0,0,1,3.907-5.685.633.633,0,1,1,.584,1.124,6.08,6.08,0,1,0,8.889,5.392,6.2,6.2,0,0,0-.039-.689,6.051,6.051,0,0,0-3.232-4.7.633.633,0,1,1,.584-1.124,7.315,7.315,0,0,1,3.907,5.685,7.432,7.432,0,0,1,.047.831A7.355,7.355,0,0,1,3294.419,2558.084Z" transform="translate(-3239.179 -2502.095)" fill="#068cbd"/>
          <path id="パス_104" data-name="パス 104" d="M3050.145,2441.767h-6.293a1.223,1.223,0,0,1-1.221-1.221.6.6,0,0,1,.012-.122l2.269-11.579a2.039,2.039,0,0,1,2.036-1.97h10.845a1.306,1.306,0,0,1,1.305,1.3v7.157a1.42,1.42,0,0,1-1.419,1.419h-4.345a1.839,1.839,0,0,0-1.837,1.837v1.822A1.354,1.354,0,0,1,3050.145,2441.767Zm-6.227-1.267h6.227a.085.085,0,0,0,.086-.086v-1.822a3.107,3.107,0,0,1,3.1-3.1h4.345a.152.152,0,0,0,.152-.152v-7.157a.04.04,0,0,0-.038-.038h-10.845a.771.771,0,0,0-.77.77.6.6,0,0,1-.012.122Z" transform="translate(-3038.566 -2405.847)" fill="#068cbd" stroke="#068cbd" stroke-width="1"/>
          <path id="パス_105" data-name="パス 105" d="M3022.012,2523.4a.634.634,0,0,1-.634-.634v-7.638a.633.633,0,0,1,.634-.634h2.26a1.272,1.272,0,0,1,1.269,1.272v5.118a1.334,1.334,0,0,1-.774,1.209l-2.471,1.24A.635.635,0,0,1,3022.012,2523.4Zm.633-7.637v5.978l1.573-.789c.042-.02.056-.041.056-.067v-5.118Z" transform="translate(-3021.125 -2477.754)" fill="#068cbd"/>
        </g>
      </g>
    </g>
  </g>
</svg>
