<?xml version="1.0" encoding="UTF-8"?><svg id="_レイヤー_2" xmlns="http://www.w3.org/2000/svg" viewBox="0 0 182.45 44.08"><defs><style>.cls-1{fill:#dea149;}.cls-2{fill:#1484b2;}</style></defs><g id="_レイヤー_1-2"><g><path class="cls-2" d="M4.03,6.82V22.88H.41V.16H3.36l12.86,16.42V.19h3.58V22.88h-3.1L4.03,6.82Z"/><path class="cls-2" d="M32.73,23.2c-1.32,0-2.51-.23-3.55-.68-1.05-.46-1.95-1.08-2.72-1.87s-1.36-1.7-1.78-2.73c-.42-1.03-.62-2.11-.62-3.26,0-1.58,.36-3.03,1.09-4.34s1.74-2.35,3.06-3.13,2.82-1.17,4.53-1.17,3.29,.4,4.56,1.19c1.27,.79,2.26,1.83,2.96,3.12,.7,1.29,1.06,2.67,1.06,4.15,0,.25-.01,.49-.03,.71-.02,.22-.04,.4-.06,.52h-13.44c.11,.99,.39,1.85,.86,2.57,.47,.73,1.08,1.29,1.82,1.71,.75,.41,1.54,.62,2.37,.62,.96,0,1.86-.23,2.7-.7,.84-.47,1.41-1.09,1.71-1.86l3.01,.86c-.36,.81-.92,1.54-1.66,2.19-.75,.65-1.62,1.16-2.61,1.54-.99,.37-2.07,.56-3.25,.56Zm-5.02-9.79h10.11c-.09-.96-.36-1.8-.82-2.51-.46-.71-1.06-1.27-1.81-1.68-.75-.41-1.56-.61-2.43-.61s-1.71,.2-2.45,.61c-.74,.41-1.34,.97-1.81,1.68-.47,.71-.74,1.55-.8,2.51Z"/><path class="cls-2" d="M47.42,6.27l4,5.68,.29,.54,.29-.54,3.94-5.68h3.81l-6.02,8.29,6.08,8.32h-3.78l-4.03-5.65-.29-.51-.26,.51-4.03,5.65h-3.81l6.08-8.29-6.02-8.32h3.74Z"/><path class="cls-1" d="M80.57,3.33h-7.55V22.88h-3.62V3.33h-7.58V.16h18.75V3.33Z"/><path class="cls-1" d="M93.66,23.04c-1.6,0-3.06-.32-4.38-.96-1.32-.64-2.47-1.51-3.44-2.61-.97-1.1-1.72-2.34-2.24-3.71-.52-1.38-.78-2.79-.78-4.24s.28-2.96,.83-4.34,1.33-2.6,2.32-3.68c.99-1.08,2.14-1.93,3.46-2.56,1.31-.63,2.76-.94,4.34-.94s3.12,.33,4.43,.99c1.31,.66,2.45,1.55,3.41,2.66,.96,1.11,1.7,2.35,2.21,3.71,.51,1.37,.77,2.77,.77,4.22s-.27,2.93-.8,4.3-1.3,2.6-2.29,3.68c-.99,1.08-2.14,1.93-3.46,2.54-1.31,.62-2.77,.93-4.37,.93Zm-7.17-11.52c0,1.09,.17,2.13,.5,3.12,.33,.99,.81,1.88,1.44,2.66,.63,.78,1.39,1.39,2.27,1.84,.88,.45,1.89,.67,3.02,.67s2.18-.23,3.07-.7c.9-.47,1.65-1.1,2.27-1.9,.62-.8,1.09-1.69,1.41-2.67,.32-.98,.48-1.98,.48-3.01,0-1.09-.17-2.12-.51-3.1-.34-.98-.83-1.86-1.47-2.64-.64-.78-1.4-1.39-2.29-1.84-.89-.45-1.87-.67-2.96-.67-1.17,0-2.2,.24-3.09,.7-.89,.47-1.64,1.1-2.26,1.89-.62,.79-1.09,1.67-1.41,2.66-.32,.98-.48,1.98-.48,3.01Z"/><path class="cls-1" d="M108.95,22.88V.16h9.54c1.02,0,1.96,.21,2.82,.64,.85,.43,1.6,.99,2.24,1.7,.64,.7,1.13,1.5,1.47,2.38,.34,.89,.51,1.78,.51,2.67,0,1.26-.28,2.45-.85,3.58-.57,1.13-1.36,2.05-2.38,2.77-1.02,.71-2.23,1.07-3.62,1.07h-6.11v7.9h-3.62Zm3.62-11.07h5.89c.66,0,1.25-.19,1.76-.56,.51-.37,.92-.89,1.22-1.54,.3-.65,.45-1.38,.45-2.19s-.17-1.56-.51-2.19c-.34-.63-.78-1.12-1.33-1.47-.54-.35-1.13-.53-1.74-.53h-5.73V11.81Z"/></g><g><path class="cls-2" d="M131.09,8.51h2.12l5.52,14.2h-2.36l-1.39-3.86h-5.68l-1.39,3.86h-2.36l5.54-14.2Zm3.3,8.68l-2.24-6.22-2.25,6.22h4.48Z"/><path class="cls-2" d="M144.35,22.91c-.71,0-1.35-.14-1.94-.43-.59-.29-1.09-.68-1.51-1.17s-.74-1.06-.97-1.7-.34-1.31-.34-2.02c0-.75,.12-1.45,.35-2.1,.23-.65,.57-1.23,1-1.73s.94-.89,1.53-1.17c.59-.28,1.24-.42,1.96-.42,.84,0,1.58,.19,2.21,.58,.63,.39,1.16,.9,1.57,1.54v-1.96h1.94v10.11c0,1.01-.24,1.86-.73,2.57-.49,.7-1.15,1.24-1.99,1.61-.84,.37-1.78,.56-2.82,.56-1.16,0-2.12-.2-2.89-.6-.77-.4-1.42-.95-1.95-1.64l1.22-1.16c.43,.56,.95,.99,1.58,1.28s1.31,.44,2.04,.44c.6,0,1.15-.11,1.66-.32,.51-.21,.91-.54,1.22-.98s.46-1,.46-1.68v-1.58c-.37,.61-.89,1.1-1.54,1.45s-1.34,.53-2.06,.53Zm.72-1.78c.33,0,.65-.06,.96-.18,.31-.12,.59-.27,.85-.46,.26-.19,.48-.41,.67-.66,.19-.25,.32-.51,.4-.78v-2.74c-.17-.45-.42-.85-.73-1.18-.31-.33-.67-.6-1.07-.79-.4-.19-.81-.29-1.24-.29-.48,0-.91,.1-1.29,.31-.38,.21-.7,.48-.97,.82-.27,.34-.47,.72-.62,1.15s-.22,.87-.22,1.32,.08,.91,.25,1.33,.4,.79,.69,1.12c.29,.33,.64,.58,1.03,.76,.39,.18,.82,.27,1.29,.27Z"/><path class="cls-2" d="M157.53,22.91c-.83,0-1.57-.14-2.22-.43-.65-.28-1.22-.67-1.7-1.17-.48-.5-.85-1.07-1.11-1.71-.26-.64-.39-1.32-.39-2.03,0-.99,.23-1.89,.68-2.71,.45-.82,1.09-1.47,1.91-1.96,.82-.49,1.76-.73,2.83-.73s2.06,.25,2.85,.74c.79,.5,1.41,1.15,1.85,1.95,.44,.81,.66,1.67,.66,2.59,0,.16,0,.31-.02,.45-.01,.14-.03,.25-.04,.33h-8.4c.07,.62,.25,1.15,.54,1.61s.67,.81,1.14,1.07c.47,.26,.96,.39,1.48,.39,.6,0,1.16-.15,1.69-.44,.53-.29,.88-.68,1.07-1.16l1.88,.54c-.23,.51-.57,.96-1.04,1.37s-1.01,.73-1.63,.96c-.62,.23-1.3,.35-2.03,.35Zm-3.14-6.12h6.32c-.05-.6-.22-1.12-.51-1.57-.29-.44-.66-.79-1.13-1.05s-.97-.38-1.52-.38-1.07,.13-1.53,.38-.84,.6-1.13,1.05-.46,.97-.5,1.57Z"/><path class="cls-2" d="M174.07,22.71h-2.18v-5.79c0-.98-.16-1.68-.48-2.12s-.79-.66-1.4-.66c-.43,0-.85,.11-1.27,.32-.42,.22-.79,.5-1.12,.86-.33,.35-.57,.77-.73,1.24v6.16h-2.2V12.33h2v2.08c.27-.46,.61-.86,1.04-1.19,.43-.33,.91-.59,1.46-.77,.55-.18,1.13-.28,1.74-.28s1.15,.11,1.56,.34,.73,.53,.96,.92,.39,.84,.48,1.35c.09,.51,.14,1.05,.14,1.61v6.32Z"/><path class="cls-2" d="M182.45,22.21c-.17,.08-.41,.18-.7,.29-.29,.11-.61,.21-.96,.29-.35,.08-.71,.12-1.08,.12-.45,0-.87-.08-1.26-.25-.39-.17-.7-.42-.93-.77-.23-.34-.35-.79-.35-1.33v-6.53h-1.4v-1.7h1.4v-3.44h2.2v3.44h2.28v1.7h-2.28v5.81c.03,.36,.14,.62,.35,.79,.21,.17,.46,.26,.77,.26s.6-.06,.89-.17c.29-.11,.48-.2,.59-.25l.48,1.74Z"/></g><g><path class="cls-2" d="M0,42.84c.22-1.46,.59-2.49,1.33-3.51,.7-1.01,1.46-1.73,3.76-3.6,.74-.59,1.12-.99,1.37-1.4,.27-.47,.4-.97,.4-1.51,0-1.51-.99-2.54-2.45-2.54-1.06,0-1.84,.5-2.14,1.4-.11,.36-.14,.61-.18,1.31-.04,.61-.23,.77-.86,.77-.67,0-.92-.22-.92-.74,0-1.85,1.8-3.24,4.21-3.24,1.51,0,2.77,.49,3.46,1.35,.4,.52,.58,1.08,.58,1.91,0,1.49-.67,2.41-2.66,3.64-2.25,1.39-2.74,1.75-3.53,2.52-.79,.77-1.15,1.33-1.48,2.29H6.09c1.3,0,1.75-.4,2.11-1.91l.54,.13-.49,3.13H0Z"/><path class="cls-2" d="M12.56,31.78c.67-1.26,1.96-2,3.49-2s2.81,.74,3.48,2c.67,1.22,1.03,2.88,1.03,4.66s-.36,3.42-1.03,4.66c-.67,1.26-1.96,2-3.48,2s-2.83-.76-3.49-2c-.67-1.24-1.03-2.9-1.03-4.66s.36-3.4,1.03-4.66Zm3.49,10.86c1.93,0,2.77-1.89,2.77-6.19s-.85-6.19-2.77-6.19-2.77,1.91-2.77,6.21,.85,6.18,2.77,6.18Z"/><path class="cls-2" d="M22.84,37.1c1.2-1.38,1.87-2.42,2.75-4.26,.7-1.47,1.14-2.64,1.33-3.54,1.86,.61,1.86,.62,1.86,.77s-.16,.19-.72,.24c-.64,1.39-1.25,2.45-2.26,3.91,1.02,.21,1.14,.24,1.14,.38,0,.1-.13,.19-.4,.27v3.42l.05,5.23c-.03,.16-.08,.19-.43,.26-.11,.02-.43,.05-.51,.05-.21,0-.29-.06-.29-.24q.03-.9,.1-5.23v-3.67c-.83,1.1-1.28,1.58-2.42,2.58l-.19-.18Zm12.29-3.33c.37-.54,.48-.72,.85-1.25,.64,.5,.85,.66,1.46,1.17,.06,.05,.11,.11,.11,.14,0,.08-.06,.11-.26,.13l-5.15,.4c.24,1.67,.5,2.59,.98,3.7,.69,1.58,1.47,2.63,2.83,3.79q.46-.94,1.44-3.19l.18,.08-.59,2.96-.05,.42c0,.13,.06,.26,.3,.58,.14,.19,.21,.32,.21,.45,0,.27-.29,.5-.62,.5-.82,0-2.37-1.31-3.54-2.98-1.14-1.65-1.84-3.6-2.22-6.23l-1.82,.14c-.86,.06-1.09,.1-1.84,.24l-.19-.67c.5,.05,.7,.06,1.06,.06,.27,0,.75-.02,.98-.03l1.76-.13c-.11-.9-.18-1.75-.21-2.93-.05-.9-.06-1.1-.14-1.71,1.47,.18,1.82,.26,1.82,.42,0,.11-.13,.19-.59,.35v.74c0,1.07,.05,1.76,.22,3.06l3.04-.21Zm-2.42-3.65c.74,.27,1.31,.53,2.02,.96,.45,.27,.59,.48,.59,.9,0,.5-.24,1.01-.48,1.01-.1,0-.16-.06-.26-.24-.53-.94-1.18-1.71-2.03-2.42l.16-.21Z"/><path class="cls-2" d="M47.3,42.35c1.73-.51,2.83-1.17,3.75-2.22,.94-1.07,1.42-2.38,1.42-3.86,0-1.55-.62-2.79-1.81-3.54-.7-.46-1.76-.74-2.77-.74-.19,0-.3,0-.56,.03,.38,.56,.5,.86,.5,1.33,0,1.25-.9,3.58-2.11,5.54-1.01,1.6-1.79,2.38-2.38,2.38-.27,0-.53-.13-.7-.34-.14-.19-.18-.26-.45-1.02-.14-.42-.24-.61-.7-1.5-.26-.51-.37-.94-.37-1.46,0-1.01,.54-2.19,1.44-3.17,1.3-1.38,3.41-2.24,5.51-2.24,1.62,0,3.11,.53,4.13,1.47s1.54,2.21,1.54,3.76c0,2-1.17,3.78-3.19,4.85-.93,.5-1.76,.75-3.12,.99l-.11-.27Zm-5.27-4.98c0,.77,.24,1.55,.64,2.11,.22,.29,.43,.46,.61,.46,.35,0,1.12-.86,1.9-2.11,1.18-1.89,2.03-3.95,2.03-4.95,0-.24-.05-.4-.22-.8-2.79,.5-4.96,2.82-4.96,5.28Z"/><path class="cls-2" d="M56.48,33.29c.66,.67,1.07,.88,1.76,.88,.62,0,1.3-.1,2.03-.3,.32-1.04,.54-2.16,.54-2.71,0-.5-.24-.7-1.14-1.01,.21-.11,.29-.14,.5-.14,.37,0,.9,.11,1.38,.3,.48,.18,.72,.4,.72,.64q0,.11-.19,.38c-.21,.3-.56,1.15-.96,2.29,.9-.32,1.47-.62,1.86-.98,.26-.24,.32-.27,.45-.27,.21,0,.59,.08,.85,.18,.18,.06,.26,.16,.26,.29,0,.27-.26,.48-.93,.78-.72,.32-1.79,.67-2.8,.93q-.19,.54-.67,2.03-.32,.96-1.2,3.57c-.64,1.9-.85,2.3-1.18,2.3-.16,0-.27-.1-.37-.32-.13-.26-.22-.66-.22-.93,0-.26,.02-.3,.35-.78,.8-1.17,1.42-2.56,2.51-5.73-.61,.11-1.07,.16-1.54,.16-.98,0-1.6-.42-2.19-1.44l.19-.13Zm6.39,5.52c-.02,.24-.02,.43-.02,.5,0,.91,.43,1.6,1.22,1.94,.43,.19,1.09,.3,1.71,.3,.66,0,1.02-.05,1.54-.24,.11-.05,.21-.06,.27-.06,.18,0,.54,.18,.82,.38,.19,.16,.29,.3,.29,.45,0,.35-.62,.53-1.89,.53s-2.26-.18-2.96-.51c-.86-.42-1.36-1.25-1.36-2.32,0-.35,.03-.62,.14-1.01l.24,.05Zm.43-2.96c1.15-.69,2.46-1.07,3.71-1.07,.34,0,.75,.11,1.01,.29,.16,.1,.26,.27,.26,.45,0,.26-.14,.35-.61,.37-.59,.03-.78,.08-1.23,.32-.32,.18-.34,.18-.88,.54q-.3,.19-.56,.34l-.1-.14q.19-.19,.77-.72c.14-.13,.29-.26,.78-.75-1.06,0-1.9,.18-3.06,.59l-.1-.21Z"/><path class="cls-2" d="M73.69,31.4c.62,.46,1.01,.88,1.23,1.31,.14,.29,.32,.88,.5,1.68,1.1-.59,1.92-.83,3.35-1.01,.21-.78,.3-1.41,.3-1.87,0-.4-.18-.53-.75-.53h-.3l-.05-.18c.43-.19,.77-.27,1.02-.27,.61,0,1.26,.51,1.26,.98,0,.29-.24,1.2-.48,1.86,2.66,.11,4.48,1.83,4.48,4.23,0,1.78-1.02,3.3-2.91,4.29-.98,.51-1.87,.77-3.14,.93l-.06-.22c1.38-.42,2.26-.88,3.1-1.6,1.15-1.01,1.76-2.27,1.76-3.67,0-1.23-.5-2.26-1.38-2.88-.58-.4-1.14-.58-2-.62-.66,1.78-1.68,3.7-2.69,4.99,.22,.34,.3,.45,.58,.8,.46,.58,.5,.64,.5,.83s-.18,.35-.38,.35c-.37,0-.86-.43-1.38-1.17-.24,.34-.61,.69-1.23,1.18-.53,.4-.9,.58-1.28,.58s-.54-.21-.7-.82c-.14-.51-.21-.66-.48-1.04-.27-.37-.37-.64-.37-.98,0-1.26,.91-2.62,2.51-3.73-.29-1.83-.46-2.34-1.22-3.27l.21-.16Zm-.06,5.51c-.35,.59-.54,1.28-.54,1.89,0,.72,.45,1.54,.83,1.54s1.17-.56,1.94-1.38c-.45-1.04-.66-1.78-.99-3.46-.62,.54-.93,.88-1.23,1.41Zm2.9,1.22c.9-1.26,1.62-2.71,2.1-4.26-1.38,.21-2.11,.48-3.09,1.15,.48,1.87,.61,2.27,.99,3.11Z"/><path class="cls-2" d="M93.7,42.35c1.73-.51,2.83-1.17,3.75-2.22,.94-1.07,1.42-2.38,1.42-3.86,0-1.55-.62-2.79-1.81-3.54-.7-.46-1.76-.74-2.77-.74-.19,0-.3,0-.56,.03,.38,.56,.5,.86,.5,1.33,0,1.25-.9,3.58-2.11,5.54-1.01,1.6-1.79,2.38-2.39,2.38-.27,0-.53-.13-.7-.34-.14-.19-.18-.26-.45-1.02-.14-.42-.24-.61-.7-1.5-.26-.51-.37-.94-.37-1.46,0-1.01,.54-2.19,1.44-3.17,1.3-1.38,3.41-2.24,5.51-2.24,1.62,0,3.1,.53,4.13,1.47s1.54,2.21,1.54,3.76c0,2-1.17,3.78-3.19,4.85-.93,.5-1.76,.75-3.12,.99l-.11-.27Zm-5.27-4.98c0,.77,.24,1.55,.64,2.11,.22,.29,.43,.46,.61,.46,.35,0,1.12-.86,1.91-2.11,1.18-1.89,2.03-3.95,2.03-4.95,0-.24-.05-.4-.22-.8-2.79,.5-4.96,2.82-4.96,5.28Z"/><path class="cls-2" d="M107.8,38.46v1.79h1.3l.77-.94c.53,.45,.67,.61,1.17,1.12,.03,.05,.06,.1,.06,.13s-.05,.06-.13,.06h-3.17q.02,2.18,.03,2.98c-.02,.1-.05,.14-.13,.18-.06,.02-.48,.05-.66,.05-.14,0-.22-.03-.22-.13,0-.46,.02-1.49,.03-3.07h-1.95c-.45,0-.9,.05-1.17,.13l-.06-.64c.3,.1,.7,.14,1.23,.14h1.95q.02-.24,.02-1.79h-1.42v.54c-.02,.19-.13,.24-.7,.24-.22,0-.27-.03-.27-.16,.05-1.39,.06-2.24,.06-3.94,0-1.12-.02-1.62-.08-2.54,.48,.24,.62,.32,1.07,.61h1.33l-.02-1.54h-1.94c-.48,0-.88,.03-1.15,.11l-.08-.64c.3,.1,.75,.16,1.23,.16h1.94q0-1.28-.06-2.18c.34,.06,.59,.1,.77,.13,.85,.13,.96,.16,.96,.32,0,.14-.14,.19-.71,.29v1.44h1.23c.34-.42,.43-.54,.78-.91,.5,.46,.66,.62,1.14,1.1,.02,.03,.05,.08,.05,.1,0,.05-.06,.08-.13,.08h-3.07v1.54h1.44c.19-.27,.26-.35,.48-.61,.37,.26,.48,.34,.82,.59,.13,.1,.18,.16,.18,.22,0,.1-.13,.18-.45,.34q0,1.95,.06,5.01c-.02,.18-.13,.22-.61,.24h-.14c-.16,0-.24-.05-.24-.14v-.4h-1.54Zm-.93-2.85q0-.38-.02-2.03h-1.41v2.03h1.42Zm0,.37h-1.42v2.11h1.42v-2.11Zm2.46-2.4h-1.54v2.03h1.54v-2.03Zm0,2.4h-1.54v2.11h1.54v-2.11Zm4.91-.32c-.48,1.81-1.38,4.1-2.3,5.92,2.69-.21,2.8-.22,4.69-.48-.45-1.15-.77-1.76-1.81-3.41l.18-.18c.88,.83,1.38,1.41,2.43,2.77,.67,.86,.8,1.09,.8,1.42,0,.64-.43,1.47-.77,1.47-.14,0-.19-.06-.34-.66-.06-.21-.22-.67-.37-1.09-.72,.19-3.97,.93-6,1.36-.08,.53-.16,.74-.32,.74q-.14,0-.62-1.86c.19,.02,.34,.02,.43,.02,.21,0,.35-.02,1.3-.08,.67-1.92,1.02-3.42,1.42-5.95h-1.14c-.58,0-.83,.02-1.14,.1l-.08-.62c.34,.11,.66,.16,1.22,.16h4.02c.45-.53,.58-.69,.99-1.17,.69,.56,.9,.74,1.55,1.36,.03,.05,.06,.08,.06,.11s-.05,.06-.08,.06h-4.13Zm1.22-4.63c.38-.48,.5-.62,.9-1.09,.67,.53,.87,.71,1.52,1.28,.03,.03,.05,.08,.05,.11s-.05,.06-.13,.06h-5.33c-.51,0-.8,.03-1.1,.11l-.1-.62c.29,.1,.7,.14,1.2,.14h2.99Z"/><path class="cls-2" d="M129.33,35.15c.54-1.2,.82-2.1,.93-2.93,.32,.13,.58,.22,.72,.29,.53,.19,.7,.3,.7,.42,0,.13-.19,.19-.53,.19h-.08c-.48,.82-.67,1.1-1.38,2.03h2.61q-.03-.69-.1-4.48c-.02-.35-.03-.7-.06-1.25,1.65,.24,1.73,.26,1.73,.43,0,.11-.11,.18-.67,.38-.03,.74-.03,1.09-.03,1.55s.02,1.39,.06,3.36h1.07c.37-.46,.48-.61,.86-1.02,.59,.5,.77,.66,1.36,1.2,.03,.05,.06,.08,.06,.1,0,.06-.06,.1-.16,.1h-3.2c.02,1.28,.13,2.34,.37,3.33,.61-1.09,.86-1.67,1.1-2.61q.56,.22,1.31,.5c.14,.05,.22,.11,.22,.19,0,.11-.19,.19-.5,.19h-.19c-.62,1.3-.98,1.92-1.57,2.77,.4,.91,.75,1.46,1.3,2.02q.18-.58,.48-1.57,.21-.72,.4-1.41l.21,.06-.21,2.83c0,.08-.02,.18-.02,.3-.02,.1-.02,.19-.02,.26,0,.18,.02,.21,.18,.45,.1,.14,.16,.29,.16,.43,0,.3-.21,.53-.48,.53-.32,0-.72-.27-1.25-.86-.51-.56-.98-1.28-1.41-2.18-.46,.58-.9,1.02-1.42,1.52-.94,.86-1.55,1.26-2.69,1.81l-.13-.21c1.6-1.14,2.61-2.18,3.89-4.03-.42-1.22-.58-2.24-.66-4.32h-6.23v5.22l.02,1.9v1.02c-.03,.21-.16,.27-.64,.27-.34,0-.45-.05-.45-.22v-.03c.03-.99,.06-2.75,.06-3.38v-.45c-.3,.18-.38,.22-.42,.26q-1.71,.95-2.14,1.2c-.02,.51-.08,.75-.21,.75-.05,0-.11-.06-.18-.16-.02-.05-.06-.16-.26-.59-.16-.38-.21-.46-.38-.88,.48-.08,.56-.1,1.1-.24v-9.49h-.19c-.4,0-.48,0-.83,.08l-.08-.54c.38,.08,.5,.1,1.22,.1h2.82c.37-.42,.48-.54,.85-.94,.51,.48,.67,.64,1.2,1.15,.02,.03,.03,.06,.03,.1s-.05,.06-.11,.06h-1.41v4.45h3.23Zm-5.75-4.45v2.83h1.5v-2.83h-1.5Zm0,3.17v2.66h1.5v-2.66h-1.5Zm0,2.96v3.11c.59-.18,.86-.26,1.5-.48v-2.62h-1.5Zm6.67-5.31c.27-.35,.37-.46,.66-.83,.48,.42,.62,.54,1.1,.98,.03,.03,.05,.08,.05,.08,0,.05-.06,.08-.14,.08h-4.23c-.51,0-.62,.02-1.06,.11l-.1-.56c.3,.1,.75,.14,1.15,.14h.98v-.96c0-.42-.03-.67-.11-1.14,.54,.05,1.25,.14,1.54,.21,.14,.03,.21,.08,.21,.16,0,.13-.05,.14-.69,.38v1.34h.64Zm-2.98,.64c.88,.79,1.46,1.54,1.46,1.87,0,.37-.38,.91-.66,.91-.11,0-.18-.08-.21-.26-.1-.8-.22-1.25-.77-2.45l.18-.08Zm2.85,4.67c.22-.22,.29-.3,.5-.56q.35,.24,.82,.56c.13,.13,.18,.18,.18,.24,0,.13-.1,.21-.42,.38-.03,1.02-.03,1.41-.03,2.19,0,.86,0,1.33,.03,2.02-.02,.3-.14,.37-.72,.37-.18,0-.22-.03-.22-.16v-.29h-2.08v1.04c-.05,.18-.18,.21-.62,.22h-.14c-.21,0-.29-.06-.29-.22,.05-1.31,.06-1.87,.06-3.33s-.02-2.07-.06-3.11c.53,.26,.67,.34,1.17,.64h1.84Zm.13,.37h-2.08v1.75h2.08v-1.75Zm-2.08,2.08v1.94h2.08v-1.94h-2.08Zm5.38-8.58c1.44,.82,2.13,1.44,2.13,1.92s-.37,1.17-.59,1.17c-.11,0-.18-.08-.24-.3-.27-.94-.69-1.7-1.42-2.66l.13-.13Z"/><path class="cls-2" d="M144.69,43.17c1.39-.88,2.48-2.05,3.07-3.27,.58-1.22,.82-2.58,.9-5.14-1.22,.08-2.58,.26-3.57,.48v.54c0,.06,0,.69,.03,1.83,0,.05,0,.27,.02,.61,.02,.16,.02,.3,.02,.4,0,.58-.14,.88-.42,.88-.3,0-.82-.8-.82-1.28,0-.11,.02-.16,.08-.32,.08-.18,.13-.43,.18-.77,.02-.16,.05-.74,.06-1.71-.85,.16-1.41,.32-2.06,.62-.24,.11-.46,.18-.59,.18-.5,0-1.44-1.1-1.44-1.7,0-.03,.02-.08,.05-.14,.46,.53,.85,.75,1.31,.75,.18,0,.66-.06,1.12-.13q.43-.06,1.06-.18,.32-.06,.53-.1c0-.74-.11-1.79-.22-2.16-.1-.29-.27-.54-.53-.74-.05-.03-.19-.11-.45-.26,.11-.11,.16-.13,.35-.13,.34,0,.91,.21,1.36,.5,.38,.22,.56,.46,.56,.74,0,.11-.02,.16-.06,.35-.08,.22-.14,.9-.14,1.57q1.36-.19,3.58-.43c.02-.4,.02-.46,.02-1.02,0-1.26-.06-1.76-.27-2.03s-.56-.46-1.09-.59c.22-.13,.4-.18,.62-.18,.42,0,1.02,.14,1.52,.37,.37,.16,.56,.38,.56,.62,0,.08-.02,.13-.08,.29-.18,.43-.27,1.26-.3,2.45,1.23-.1,1.52-.16,1.94-.34,.21-.1,.29-.11,.45-.11,.53,0,1.44,.61,1.44,.94,0,.16-.14,.29-.34,.29-.06,0-.18,0-.29-.02-.66-.08-1.39-.13-1.87-.13h-.59q-.51,.02-.75,.02c-.1,3.01-.38,4.43-1.1,5.63-.75,1.23-2.16,2.38-3.68,3.03l-.14-.22Z"/><path class="cls-2" d="M156.5,38.91c2-1.07,4.15-2.69,6.02-4.55,1.58-1.55,2.61-2.85,2.61-3.31,0-.3-.26-.56-.9-.91,.18-.06,.21-.06,.32-.06,.46,0,.86,.14,1.38,.48,.54,.37,.83,.74,.83,1.04,0,.14-.02,.18-.64,.7q-.16,.13-1.3,1.22c-1.12,1.07-1.22,1.15-1.9,1.73,.62,.46,.9,.7,.98,.9,.06,.16,.1,.91,.11,2.35,.02,1.12,.05,2.14,.08,3.06,0,.35,.02,.82,.02,.91,0,.56-.11,.8-.37,.8-.37,0-1.09-.88-1.09-1.34q0-.11,.1-.42c.14-.4,.29-2.38,.29-3.94,0-.78-.03-1.26-.1-1.52-.05-.16-.11-.24-.35-.5-1.12,.9-2.27,1.71-3.07,2.19-.9,.53-2.05,1.09-2.88,1.39l-.13-.22Z"/><path class="cls-2" d="M174.44,30.04c.34,0,.69,.08,1.18,.27,.67,.26,1.06,.58,1.06,.88q0,.11-.1,.35c-.19,.43-.29,1.63-.29,3.49,1.2,.11,2.79,.5,3.73,.9,.72,.34,.99,.66,.99,1.23,0,.46-.14,.74-.38,.74-.16,0-.18,0-.59-.38-1.06-.98-2.29-1.65-3.76-2.08,.02,1.01,.02,1.5,.02,1.99v2.34q0,.48,.03,1.82c.02,.34,.02,.61,.02,.85,0,.3-.02,.45-.08,.54-.05,.08-.18,.14-.29,.14-.38,0-1.02-.86-1.02-1.39,0-.16,.02-.26,.08-.45,.24-.77,.34-2.85,.34-6.93,0-1.15-.05-2.32-.11-2.75-.1-.72-.45-1.12-1.22-1.42,.19-.11,.26-.13,.4-.13Z"/></g></g></svg>