<svg xmlns="http://www.w3.org/2000/svg" width="88.555" height="60.547" viewBox="0 0 88.555 60.547">
  <g id="メーカー" transform="translate(-104.342 -914.944)">
    <path id="パス_80" data-name="パス 80" d="M189.483,999.434a2.143,2.143,0,0,0-1.03-.026c-2.739.641-21.015,4.142-29.516,5.731a3.747,3.747,0,0,0,.316-.871,2.36,2.36,0,0,0-.777-2.539,8.91,8.91,0,0,0-1.352-1.155l-12.417-8.108a32.07,32.07,0,0,0-9.625-4.227l-2.417-.346a9.759,9.759,0,0,0-4.376.395l-10.608,3.5-.921-2.747a1.357,1.357,0,0,0-1.719-.856l-9.223,3.09a1.358,1.358,0,0,0-.856,1.719l8.553,25.526a1.358,1.358,0,0,0,1.719.856l9.223-3.09a1.358,1.358,0,0,0,.856-1.719l-1.167-3.483.639-.1,3.771,1.065,9.131,4.073c3.427,1.285,6.99,2.945,10.436,4.55l1.777.826.126.048,3.975.567a1.845,1.845,0,0,0,.257.018,1.938,1.938,0,0,0,.695-.131l24.419-10.006c2.11-1,3.766-1.666,5.228-2.257a40.645,40.645,0,0,0,6.235-2.971,3.61,3.61,0,0,0,1.561-2.976A4.246,4.246,0,0,0,189.483,999.434Zm.41,5.841a38.664,38.664,0,0,1-5.952,2.825c-1.483.6-3.163,1.28-5.277,2.279l-24.357,9.98a.155.155,0,0,1-.062.007l-3.713-.519-1.666-.775c-3.476-1.619-7.07-3.293-10.511-4.582l-8.988-4.016-4.1-1.187a1.867,1.867,0,0,0-.81-.045l-.874.146-5.34-15.935,10.6-3.495a7.983,7.983,0,0,1,3.582-.323l2.21.307.061.011a30.269,30.269,0,0,1,9.053,3.985l12.417,8.108a7.383,7.383,0,0,1,1.054.91.858.858,0,0,0,.278.219,1.25,1.25,0,0,1-.063,1.041,2.649,2.649,0,0,1-2.6,1.509,45.514,45.514,0,0,1-8.013-1.122l-6.232-.874a.878.878,0,0,0-.243,1.74l6.108.854a48.4,48.4,0,0,0,7.652,1.132.874.874,0,0,0,.461.213c.788.134,33.982-6.479,34.285-6.55a.5.5,0,0,1,.2.02,2.556,2.556,0,0,1,1.583,2.627A1.869,1.869,0,0,1,189.893,1005.275Z" transform="translate(0 -47.132)" fill="#068cbd" stroke="#068cbd" stroke-width="1"/>
    <g id="グループ_41" data-name="グループ 41" transform="translate(154.229 914.944)">
      <path id="パス_81" data-name="パス 81" d="M272.4,915.723c-2.562.667-5.039-2.029-8.935-.024a12.071,12.071,0,0,0-4.657,3.967,12.07,12.07,0,0,0-4.657-3.967c-3.9-2-7.062,1.074-8.935.024-1.98-1.11,1.277,5.28,5.174,7.285,2.626,1.352,5.3,1.786,7.08,1.308v8.516a1.342,1.342,0,0,0,1.338,1.338h0a1.342,1.342,0,0,0,1.338-1.338v-8.516c1.782.478,4.454.044,7.08-1.308C271.119,921,274.593,915.151,272.4,915.723Z" transform="translate(-244.615 -914.944)" fill="#068cbd"/>
      <path id="パス_82" data-name="パス 82" d="M278.566,959.721h.03c-.015-.025-.047-.082-.089-.158a6.117,6.117,0,0,0-.353-.783l-.567-1.048a5.934,5.934,0,0,0-.73-1.057l-.57-.658a5.588,5.588,0,0,0-1.755-1.361l-.062-.031a5.313,5.313,0,0,0-1.42-.465l-.577-.1a5.213,5.213,0,0,0-2.124.065c-.063.015-.125.032-.187.049-.119.012-.237.027-.355.047l-.577.1a5.421,5.421,0,0,0-1.421.452l-.062.03a5.567,5.567,0,0,0-1.755,1.323l-.57.639a5.743,5.743,0,0,0-.729,1.027l-.567,1.019a5.864,5.864,0,0,0-.327.7c-.056.105-.1.182-.115.213h.032l-.032.085,7.562-.042,7.349.042Z" transform="translate(-256.951 -940.196)" fill="#068cbd"/>
      <g id="グループ_35" data-name="グループ 35" transform="translate(9.819 16.438)">
        <line id="線_6" data-name="線 6" x1="0.322" y2="1.338" transform="translate(0.508)" fill="none" stroke="#fff" stroke-linecap="round" stroke-miterlimit="10" stroke-width="0.7"/>
        <line id="線_7" data-name="線 7" x2="1.338" y2="0.322" transform="translate(0 0.508)" fill="none" stroke="#fff" stroke-linecap="round" stroke-miterlimit="10" stroke-width="0.7"/>
        <g id="グループ_34" data-name="グループ 34" transform="translate(0.082 0.082)">
          <line id="線_8" data-name="線 8" y1="0.719" x2="1.174" transform="translate(0 0.228)" fill="none" stroke="#fff" stroke-linecap="round" stroke-miterlimit="10" stroke-width="0.7"/>
          <line id="線_9" data-name="線 9" x1="0.719" y1="1.174" transform="translate(0.228)" fill="none" stroke="#fff" stroke-linecap="round" stroke-miterlimit="10" stroke-width="0.7"/>
        </g>
      </g>
      <g id="グループ_37" data-name="グループ 37" transform="translate(12.624 15.114)">
        <line id="線_10" data-name="線 10" x2="0.424" y2="1.309" transform="translate(0.443)" fill="none" stroke="#fff" stroke-linecap="round" stroke-miterlimit="10" stroke-width="0.7"/>
        <line id="線_11" data-name="線 11" y1="0.424" x2="1.309" transform="translate(0 0.442)" fill="none" stroke="#fff" stroke-linecap="round" stroke-miterlimit="10" stroke-width="0.7"/>
        <g id="グループ_36" data-name="グループ 36" transform="translate(0.042 0.042)">
          <line id="線_12" data-name="線 12" y1="1.226" x2="0.626" transform="translate(0.3)" fill="none" stroke="#fff" stroke-linecap="round" stroke-miterlimit="10" stroke-width="0.7"/>
          <line id="線_13" data-name="線 13" x1="1.226" y1="0.626" transform="translate(0 0.3)" fill="none" stroke="#fff" stroke-linecap="round" stroke-miterlimit="10" stroke-width="0.7"/>
        </g>
      </g>
      <g id="グループ_39" data-name="グループ 39" transform="translate(16.05 16.629)">
        <line id="線_14" data-name="線 14" x1="0.322" y2="1.338" transform="translate(0.508)" fill="none" stroke="#fff" stroke-linecap="round" stroke-miterlimit="10" stroke-width="0.7"/>
        <line id="線_15" data-name="線 15" x2="1.338" y2="0.322" transform="translate(0 0.508)" fill="none" stroke="#fff" stroke-linecap="round" stroke-miterlimit="10" stroke-width="0.7"/>
        <g id="グループ_38" data-name="グループ 38" transform="translate(0.082 0.082)">
          <line id="線_16" data-name="線 16" y1="0.719" x2="1.174" transform="translate(0 0.228)" fill="none" stroke="#fff" stroke-linecap="round" stroke-miterlimit="10" stroke-width="0.7"/>
          <line id="線_17" data-name="線 17" x1="0.719" y1="1.174" transform="translate(0.228)" fill="none" stroke="#fff" stroke-linecap="round" stroke-miterlimit="10" stroke-width="0.7"/>
        </g>
      </g>
    </g>
    <path id="パス_84" data-name="パス 84" d="M271.347,968.432H245.135a1.456,1.456,0,0,0-.161,2.9l3.124,17.407h0l.505,4.155,10.459-2.224h8.128a1.012,1.012,0,0,0,1-.833l3.321-18.5a1.456,1.456,0,0,0-.161-2.9Z" transform="translate(-89.78 -34.601)" fill="#068cbd"/>
  </g>
</svg>
