<svg xmlns="http://www.w3.org/2000/svg" width="93.647" height="62.178" viewBox="0 0 93.647 62.178">
  <g id="マスコミ_広告" data-name="マスコミ・広告" transform="translate(-62.652 -1275.788)">
    <g id="グループ_51" data-name="グループ 51" transform="translate(62.652 1275.788)">
      <g id="グループ_49" data-name="グループ 49" transform="translate(0)">
        <path id="パス_113" data-name="パス 113" d="M286.6,1424.458v0Z" transform="translate(-192.953 -1362.279)" fill="#068cbd"/>
        <path id="パス_114" data-name="パス 114" d="M132.889,1275.788c-12.929,0-23.41,2.835-23.41,6.331l-.006.315v-.315c0-3.5-10.481-6.331-23.41-6.331s-23.41,2.835-23.41,6.331c0,0,.028,46.183.008,54.541a.76.76,0,0,0,1.114.674,50.411,50.411,0,0,1,22.289-5.717c11.806,0,21.537,2.26,23.144,5.333.108.207.379.24.554-.046,1.84-3,11.479-5.288,23.094-5.288a50.329,50.329,0,0,1,22.295,5.707.76.76,0,0,0,1.116-.671v-54.189a1.778,1.778,0,0,0,.034-.345C156.3,1278.623,145.818,1275.788,132.889,1275.788Z" transform="translate(-62.652 -1275.788)" fill="#068cbd"/>
        <path id="パス_115" data-name="パス 115" d="M62.652,1424.479h0C62.652,1424.473,62.652,1424.479,62.652,1424.479Z" transform="translate(-62.652 -1362.3)" fill="#068cbd"/>
      </g>
      <g id="グループ_50" data-name="グループ 50" transform="translate(4.693 4.21)">
        <path id="パス_116" data-name="パス 116" d="M275.378,1408.206v0Z" transform="translate(-191.116 -1357.035)" fill="#fff"/>
        <path id="パス_117" data-name="パス 117" d="M174.633,1408.206h0v0Z" transform="translate(-132.499 -1357.035)" fill="#fff"/>
        <path id="パス_118" data-name="パス 118" d="M137.072,1285.855c-11.633,0-19.1,2.493-21.064,4.528H116c-1.967-2.035-9.43-4.528-21.064-4.528s-21.064,2.333-21.064,5.21c0,0,.026,38,.007,44.881a.684.684,0,0,0,1,.555,48.652,48.652,0,0,1,20.055-4.705c10.623,0,19.409,1.945,20.855,4.474.1.17.311.112.468-.123,1.656-2.469,10.329-4.351,20.779-4.351a48.569,48.569,0,0,1,20.061,4.7.685.685,0,0,0,1-.553v-44.592a1.356,1.356,0,0,0,.031-.284C158.136,1288.188,148.705,1285.855,137.072,1285.855Z" transform="translate(-73.874 -1285.855)" fill="#fff"/>
        <path id="パス_119" data-name="パス 119" d="M174.62,1408.206v0Z" transform="translate(-132.492 -1357.035)" fill="#fff"/>
        <path id="パス_120" data-name="パス 120" d="M73.874,1408.223h0S73.874,1408.223,73.874,1408.223Z" transform="translate(-73.874 -1357.052)" fill="#fff"/>
      </g>
    </g>
    <path id="パス_121" data-name="パス 121" d="M86.685,1306.694a38.74,38.74,0,0,1,29.981-.752" transform="translate(-13.983 -16.019)" fill="none" stroke="#068cbd" stroke-linecap="round" stroke-linejoin="round" stroke-width="3"/>
    <path id="パス_122" data-name="パス 122" d="M86.685,1329.448c14.337-6.431,28.645,0,28.645,0" transform="translate(-13.983 -29.559)" fill="none" stroke="#068cbd" stroke-linecap="round" stroke-linejoin="round" stroke-width="3"/>
    <path id="パス_123" data-name="パス 123" d="M86.685,1352.441a39.888,39.888,0,0,1,30.566-.556" transform="translate(-13.983 -42.669)" fill="none" stroke="#068cbd" stroke-linecap="round" stroke-linejoin="round" stroke-width="3"/>
    <path id="パス_124" data-name="パス 124" d="M86.685,1376.074a39.889,39.889,0,0,1,30.566-.557" transform="translate(-13.983 -56.419)" fill="none" stroke="#068cbd" stroke-linecap="round" stroke-linejoin="round" stroke-width="3"/>
    <path id="パス_125" data-name="パス 125" d="M217.1,1306.983c-16.412-7.127-31.958,0-31.958,0" transform="translate(-71.271 -16.307)" fill="none" stroke="#068cbd" stroke-linecap="round" stroke-linejoin="round" stroke-width="3"/>
    <path id="パス_126" data-name="パス 126" d="M220.822,1328.625c-16.412-7.126-29.286-1-29.286-1" transform="translate(-74.989 -28.736)" fill="none" stroke="#068cbd" stroke-linecap="round" stroke-linejoin="round" stroke-width="3"/>
    <path id="パス_127" data-name="パス 127" d="M218.846,1352.463a40.14,40.14,0,0,0-30.705-.5" transform="translate(-73.014 -42.691)" fill="none" stroke="#068cbd" stroke-linecap="round" stroke-linejoin="round" stroke-width="3"/>
    <path id="パス_128" data-name="パス 128" d="M220.318,1375.629c-16.412-7.126-29.647-1.587-29.647-1.587" transform="translate(-74.486 -55.974)" fill="none" stroke="#068cbd" stroke-linecap="round" stroke-linejoin="round" stroke-width="3"/>
  </g>
</svg>
