<svg xmlns="http://www.w3.org/2000/svg" width="127" height="86.183" viewBox="0 0 127 86.183">
  <g id="内定" transform="translate(-205.733 -206.635)">
    <path id="パス_21" data-name="パス 21" d="M241.855,214.61l-10.944-7.663a1.727,1.727,0,0,0-2.405.424l-22.46,32.076a1.727,1.727,0,0,0,.424,2.405l10.944,7.663a1.727,1.727,0,0,0,2.405-.424l22.46-32.076A1.727,1.727,0,0,0,241.855,214.61Z" transform="translate(0 0)" fill="#003d52"/>
    <path id="パス_22" data-name="パス 22" d="M537.515,736.477l3.1-3a4.619,4.619,0,0,0,.106-6.513h0a4.619,4.619,0,0,0-6.513-.106l-5.67,5.489-.012.012-.671.649a4.619,4.619,0,0,0-.106,6.513h0a4.619,4.619,0,0,0,6.513.106l1.947-1.884Z" transform="translate(-286.515 -463.59)" fill="#003d52"/>
    <path id="パス_23" data-name="パス 23" d="M623.153,798.7h0a4.619,4.619,0,0,0-6.513-.106l-1.169,1.132-.767.742-2.853,2.762-1.564,1.514a4.619,4.619,0,0,0-.106,6.513h0a4.619,4.619,0,0,0,6.513.106l2.842-2.751,3.51-3.4A4.619,4.619,0,0,0,623.153,798.7Z" transform="translate(-360.16 -527.668)" fill="#003d52"/>
    <path id="パス_24" data-name="パス 24" d="M715.938,873.225l-3.73,3.588-.633.609a4.62,4.62,0,0,0-.106,6.513h0a4.619,4.619,0,0,0,6.513.106L719.9,882.2l2.447-2.354a4.619,4.619,0,0,0,.106-6.513h0a4.593,4.593,0,0,0-3.31-1.4h0A4.591,4.591,0,0,0,715.938,873.225Z" transform="translate(-450.645 -594.343)" fill="#003d52"/>
    <path id="パス_25" data-name="パス 25" d="M461.907,668.226l4.237-4.076a4.62,4.62,0,0,0,1.143-4.821,4.559,4.559,0,0,0-1.038-1.692h0a4.593,4.593,0,0,0-3.31-1.4h0a4.591,4.591,0,0,0-3.2,1.291l-4.362,4.2c-.034.033-.066.067-.1.1a4.6,4.6,0,0,0,6.256,6.741c.086-.071.17-.145.251-.224Z" transform="translate(-221.769 -401.654)" fill="#003d52"/>
    <g id="グループ_9" data-name="グループ 9" transform="translate(255.213 206.729)">
      <path id="パス_26" data-name="パス 26" d="M699.166,343.053a.94.94,0,0,1,.5.169l23.7,16.6q.124.087.243.178a.951.951,0,0,0,1.163-.007q.3-.234.608-.45l4.735-3.315a.488.488,0,0,0,.12-.68l-21.411-30.578a.488.488,0,0,0-.68-.12l-4.569,3.2a11.289,11.289,0,0,1-2.063,1.122c-.4.172-.825.328-1.259.474-.89.3-1.838.55-2.821.778l-.022,0q-.1.018-.2.04l-.075.017c-.082.019-.165.039-.25.061l-.02.005c-.2.052-.418.1-.661.142l-.235.039c-.606.094-1.326.165-2.119.218q-.264.018-.539.033-.411.023-.842.041c-.286.012-.578.022-.874.032s-.6.017-.9.024l-.605.013-.3.006-.609.01-.608.008-.6.007-.643.007-.829.009-.567.007-.55.008-.788.014-.282.006c-.585.014-1.115.034-1.572.061-.412.025-.764.056-1.039.1-.127.019-.238.04-.331.063-.026.006-.052.012-.078.015a5.589,5.589,0,0,0-1.056.258,5.515,5.515,0,0,0-1.025.482q-.213.129-.416.277a5.513,5.513,0,0,0-.936.872l-6.882,8.111a5.557,5.557,0,0,0,.64,7.811h0a5.513,5.513,0,0,0,3.579,1.31,5.6,5.6,0,0,0,2.019-.376,5.58,5.58,0,0,0,2.212-1.573l.222-.261.73-.861h0l.305-.36,2.442-2.878.855-1.007.551-.65a.941.941,0,0,1,.772-.33l2.339.138,7.516.445.036,0,1.135.067Z" transform="translate(-669.667 -312.255)" fill="#003d52"/>
      <path id="パス_27" data-name="パス 27" d="M1087.463,240.335,1065,208.258a1.727,1.727,0,0,0-2.405-.424l-10.944,7.663a1.727,1.727,0,0,0-.424,2.405l22.46,32.076a1.727,1.727,0,0,0,2.405.424l10.944-7.663A1.727,1.727,0,0,0,1087.463,240.335Z" transform="translate(-1010.256 -207.522)" fill="#003d52"/>
    </g>
    <path id="パス_28" data-name="パス 28" d="M450.746,366.506q-.009-.3-.047-.589t-.1-.581a6.211,6.211,0,0,0-.256-.848q-.106-.276-.238-.543-.067-.135-.141-.267a6.078,6.078,0,0,0-1.36-1.656c-.148-.126-.3-.247-.465-.361L430.41,349.249l-5.09-3.564a2.529,2.529,0,0,0-1.3-.453l-1.1-.065-.393-.023-9.758-.577a1.771,1.771,0,0,0-1.455.622l-2.718,3.2-.305.36-.73.861-.357.421c-.126.148-.258.289-.393.426a7.788,7.788,0,0,1-11.485-10.506l6.353-7.487h0c.192-.227.343-.771-.29-.91-4.353-.933-8.739-1.5-11.614-3.509l-4.569-3.2a.488.488,0,0,0-.68.12l-21.411,30.578a.488.488,0,0,0,.12.68l4.735,3.315a23.814,23.814,0,0,1,4.141,3.9.671.671,0,0,0,.97.042l3.842-3.7a6.816,6.816,0,0,1,4.766-1.924h0a6.8,6.8,0,0,1,4.925,2.081c.1.108.2.219.3.331a6.809,6.809,0,0,1,1.544,3.374v.005a6.9,6.9,0,0,1,.078,1.233.676.676,0,0,0,.876.665,6.86,6.86,0,0,1,1.145-.241c.159-.02.318-.035.479-.044.124-.007.249-.011.373-.011h0a6.833,6.833,0,0,1,6.558,4.865c.046.154.089.31.124.466a6.9,6.9,0,0,1,.166,1.67h0c-.037.575.132.84.71.761h.006a6.912,6.912,0,0,1,1.227-.111h0a6.974,6.974,0,0,1,1.406.143,6.8,6.8,0,0,1,3.519,1.939c.122.126.236.256.346.389a6.819,6.819,0,0,1,1.561,4.882.674.674,0,0,0,.789.712,6.9,6.9,0,0,1,1.19-.1h0a6.854,6.854,0,0,1,4.763,11.778l-1.567,1.507a.641.641,0,0,0,.077.987l3,2.1a6.158,6.158,0,0,0,8.551-1.508h0a6.138,6.138,0,0,0,.816-5.375s0,0,0,0a.679.679,0,0,1,.87-.87h0a6.132,6.132,0,0,0,7.653-8.053h0c-.18-.412-.048-.8.567-.564l.014,0a6.133,6.133,0,0,0,8.414-7.338q-.059-.2-.131-.4h0l-.007-.016c-.017-.04-.032-.079-.045-.115-.188-.542.148-.615.789-.455h0q.125.039.252.073l.041.01q.112.029.224.053l.083.017q.1.02.193.036l.08.013c.085.013.17.025.254.035l.013,0c.089.01.179.018.268.024l.079,0q.1.005.195.008l.086,0h.059l.074,0q.112,0,.224-.007l.119-.007c.078-.005.156-.012.233-.02l.1-.011c.111-.014.221-.029.33-.049l.015,0c.1-.019.208-.041.312-.065l.1-.025c.075-.019.15-.039.225-.06l.112-.034q.11-.034.219-.073l.1-.036q.133-.05.265-.106l.047-.019c.1-.045.2-.093.306-.144l.078-.041c.074-.038.147-.078.22-.12l.1-.059q.1-.059.2-.122l.1-.064c.07-.048.139-.1.208-.148l.07-.051q.136-.1.267-.216l.048-.043q.1-.092.206-.189l.083-.082q.083-.083.163-.169l.084-.092c.054-.06.106-.122.158-.185.023-.029.048-.057.071-.086.073-.092.143-.186.211-.283v0h0a6.035,6.035,0,0,0,.427-.709q.062-.121.119-.244a6.069,6.069,0,0,0,.272-.7q.046-.144.084-.289a6.156,6.156,0,0,0,.2-1.767Z" transform="translate(-140.515 -105.526)" fill="#003d52"/>
  </g>
</svg>
