<svg xmlns="http://www.w3.org/2000/svg" width="57.833" height="49.863" viewBox="0 0 57.833 49.863">
  <g id="事務" transform="translate(-1381.135 -1099.384)">
    <g id="グループ_15" data-name="グループ 15" transform="translate(1390.849 1101.384)">
      <rect id="長方形_67" data-name="長方形 67" width="34.529" height="44.359" transform="translate(0)" fill="#fff" stroke="#068cbd" stroke-linecap="round" stroke-linejoin="round" stroke-width="4"/>
    </g>
    <g id="グループ_18" data-name="グループ 18" transform="translate(1416.632 1118.334)">
      <g id="グループ_17" data-name="グループ 17">
        <path id="パス_36" data-name="パス 36" d="M1446.751,1155.515l6-1.976,15.834-16.7-4.375-4.12-15.848,16.689Z" transform="translate(-1446.751 -1132.717)" fill="#fff" stroke="#068cbd" stroke-linecap="round" stroke-linejoin="round" stroke-width="1" fill-rule="evenodd"/>
        <g id="グループ_16" data-name="グループ 16" transform="translate(0.456 20.003)">
          <path id="パス_37" data-name="パス 37" d="M1449.924,1171.3l-1.7-1.6-.626,2.371Z" transform="translate(-1447.594 -1169.693)" fill="#068cbd"/>
        </g>
        <path id="パス_38" data-name="パス 38" d="M1449.581,1149.719l1.9.015.136,2,2,.016.129,1.891.307-.1,15.834-16.7-4.375-4.12-15.848,16.689Z" transform="translate(-1448.05 -1132.717)" fill="#068cbd"/>
      </g>
    </g>
    <g id="グループ_20" data-name="グループ 20" transform="translate(1381.135 1117.067)">
      <path id="長方形_68" data-name="長方形 68" d="M1.811,0H19.559a1.813,1.813,0,0,1,1.813,1.813V25.88a1.813,1.813,0,0,1-1.813,1.813H1.813A1.813,1.813,0,0,1,0,25.88V1.811A1.811,1.811,0,0,1,1.811,0Z" transform="matrix(0.968, -0.252, 0.252, 0.968, 0, 5.377)" fill="#068cbd"/>
      <g id="グループ_19" data-name="グループ 19" transform="translate(2.5 2.466)">
        <path id="パス_39" data-name="パス 39" d="M1387.3,1144.595l16.387-4.26a.236.236,0,0,0,.135-.3l-1.274-4.9a.235.235,0,0,0-.263-.2l-16.387,4.26a.235.235,0,0,0-.135.3l1.274,4.9A.234.234,0,0,0,1387.3,1144.595Z" transform="translate(-1385.757 -1134.933)" fill="#fff"/>
        <path id="パス_40" data-name="パス 40" d="M1389.678,1158.471l3.194-.83a.235.235,0,0,0,.135-.3l-.671-2.585a.236.236,0,0,0-.264-.2l-3.2.83a.235.235,0,0,0-.135.3l.672,2.585A.235.235,0,0,0,1389.678,1158.471Z" transform="translate(-1387.122 -1143.939)" fill="#fff"/>
        <path id="パス_41" data-name="パス 41" d="M1391.725,1166.341l3.194-.83a.236.236,0,0,0,.135-.3l-.672-2.585a.234.234,0,0,0-.263-.2l-3.195.83a.237.237,0,0,0-.135.3l.671,2.585A.235.235,0,0,0,1391.725,1166.341Z" transform="translate(-1388.062 -1147.552)" fill="#fff"/>
        <path id="パス_42" data-name="パス 42" d="M1396.163,1170.3l-3.195.831a.235.235,0,0,0-.135.3l.672,2.585a.236.236,0,0,0,.264.2l3.194-.831a.236.236,0,0,0,.135-.3l-.672-2.584A.236.236,0,0,0,1396.163,1170.3Z" transform="translate(-1389 -1151.165)" fill="#fff"/>
        <path id="パス_43" data-name="パス 43" d="M1398.208,1178.168l-3.194.83a.236.236,0,0,0-.135.3l.672,2.584a.235.235,0,0,0,.264.2l3.195-.83a.235.235,0,0,0,.135-.3l-.671-2.586A.237.237,0,0,0,1398.208,1178.168Z" transform="translate(-1389.939 -1154.777)" fill="#fff"/>
        <path id="パス_44" data-name="パス 44" d="M1400.763,1152.565a.236.236,0,0,0-.265-.2l-3.194.83a.236.236,0,0,0-.135.3l.671,2.585a.236.236,0,0,0,.265.2l3.194-.83a.236.236,0,0,0,.135-.3Z" transform="translate(-1390.991 -1142.934)" fill="#fff"/>
        <path id="パス_45" data-name="パス 45" d="M1400.151,1164.15l3.194-.83a.235.235,0,0,0,.135-.3l-.672-2.585a.235.235,0,0,0-.264-.2l-3.194.83a.236.236,0,0,0-.135.3l.672,2.585A.234.234,0,0,0,1400.151,1164.15Z" transform="translate(-1391.929 -1146.546)" fill="#fff"/>
        <path id="パス_46" data-name="パス 46" d="M1402.2,1172.021l3.194-.83a.237.237,0,0,0,.135-.3l-.672-2.585a.235.235,0,0,0-.264-.2l-3.194.83a.237.237,0,0,0-.135.3l.672,2.585A.238.238,0,0,0,1402.2,1172.021Z" transform="translate(-1392.869 -1150.159)" fill="#fff"/>
        <path id="パス_47" data-name="パス 47" d="M1406.636,1175.979l-3.194.83a.236.236,0,0,0-.135.3l.672,2.585a.237.237,0,0,0,.265.2l3.194-.83a.236.236,0,0,0,.136-.3l-.672-2.584A.235.235,0,0,0,1406.636,1175.979Z" transform="translate(-1393.808 -1153.771)" fill="#fff"/>
        <path id="パス_48" data-name="パス 48" d="M1405.731,1151.009a.236.236,0,0,0-.135.3l.672,2.585a.235.235,0,0,0,.264.2l3.194-.83a.235.235,0,0,0,.135-.3l-.672-2.585a.235.235,0,0,0-.265-.2Z" transform="translate(-1394.859 -1141.928)" fill="#fff"/>
        <path id="パス_49" data-name="パス 49" d="M1410.971,1158.047l-3.194.83a.236.236,0,0,0-.135.3l.672,2.585a.236.236,0,0,0,.265.2l3.194-.83a.236.236,0,0,0,.135-.3l-.672-2.585A.236.236,0,0,0,1410.971,1158.047Z" transform="translate(-1395.797 -1145.541)" fill="#fff"/>
        <path id="パス_50" data-name="パス 50" d="M1413.017,1165.918l-3.195.83a.236.236,0,0,0-.135.3l.672,2.585a.236.236,0,0,0,.264.2l3.194-.83a.235.235,0,0,0,.135-.3l-.671-2.585A.235.235,0,0,0,1413.017,1165.918Z" transform="translate(-1396.737 -1149.153)" fill="#fff"/>
        <path id="パス_51" data-name="パス 51" d="M1415.063,1173.788l-3.194.83a.235.235,0,0,0-.135.3l.671,2.585a.237.237,0,0,0,.264.2l3.195-.831a.236.236,0,0,0,.135-.3l-.672-2.585A.235.235,0,0,0,1415.063,1173.788Z" transform="translate(-1397.676 -1152.766)" fill="#fff"/>
        <path id="パス_52" data-name="パス 52" d="M1414.959,1151.9l3.194-.83a.235.235,0,0,0,.135-.3l-.671-2.585a.236.236,0,0,0-.264-.2l-3.195.83a.236.236,0,0,0-.135.3l.672,2.585A.235.235,0,0,0,1414.959,1151.9Z" transform="translate(-1398.727 -1140.923)" fill="#fff"/>
        <path id="パス_53" data-name="パス 53" d="M1419.4,1155.857l-3.195.83a.236.236,0,0,0-.135.3l.672,2.585a.236.236,0,0,0,.264.2l3.194-.831a.236.236,0,0,0,.135-.3l-.672-2.585A.236.236,0,0,0,1419.4,1155.857Z" transform="translate(-1399.666 -1144.535)" fill="#fff"/>
        <path id="パス_54" data-name="パス 54" d="M1421.444,1163.728l-3.194.83a.235.235,0,0,0-.135.3l1.779,6.842a.236.236,0,0,0,.264.2l3.195-.831a.235.235,0,0,0,.135-.3l-1.779-6.842A.236.236,0,0,0,1421.444,1163.728Z" transform="translate(-1400.605 -1148.148)" fill="#fff"/>
      </g>
    </g>
  </g>
</svg>
