<svg xmlns="http://www.w3.org/2000/svg" width="62.681" height="66.945" viewBox="0 0 62.681 66.945">
  <g id="その他" transform="translate(-133.153 -106.151)">
    <path id="パス_69" data-name="パス 69" d="M187.058,166.084a3.18,3.18,0,0,1-2.24-.958l-1.959-2v4.519H138.609V111.607h44.249v32.557l5.456,5.583V108.878a2.729,2.729,0,0,0-2.729-2.727h-49.7a2.729,2.729,0,0,0-2.729,2.727v61.491a2.729,2.729,0,0,0,2.729,2.727h49.7a2.729,2.729,0,0,0,2.729-2.727v-3.253l-1.017-1.038C187.215,166.084,187.124,166.082,187.058,166.084Z" fill="#068cbd"/>
    <path id="パス_70" data-name="パス 70" d="M304.6,258.1l-3.06-3.134.137-.135a.908.908,0,0,0,.013-1.285l-24.237-24.805c-2.643-2.7-7.554-5.845-9.926-5.845a1.777,1.777,0,0,0-1.917,1.906c-.027,2.383,3,7.345,5.617,10.024l24.241,24.8a.91.91,0,0,0,.638.274,1,1,0,0,0,.646-.258l.142-.139,3.063,3.132a.906.906,0,0,0,.64.273h.01a.9.9,0,0,0,.637-.258l3.341-3.269A.909.909,0,0,0,304.6,258.1Z" transform="translate(-109.028 -96.093)" fill="#068cbd"/>
    <rect id="長方形_72" data-name="長方形 72" width="33.577" height="3.637" transform="translate(143.945 118.634)" fill="#068cbd"/>
    <path id="パス_71" data-name="パス 71" d="M349.566,251.027V247.39h-7.392l3.554,3.637Z" transform="translate(-172.044 -116.253)" fill="#068cbd"/>
    <path id="パス_72" data-name="パス 72" d="M194.158,247.39v3.637h12.517A19.339,19.339,0,0,1,205,247.39Z" transform="translate(-50.213 -116.253)" fill="#068cbd"/>
    <path id="パス_73" data-name="パス 73" d="M194.158,318.062V321.7h23.429l-3.555-3.637Z" transform="translate(-50.213 -174.424)" fill="#068cbd"/>
    <path id="パス_74" data-name="パス 74" d="M194.158,392.372h33.577v-2.119l-1.486-1.518H194.158Z" transform="translate(-50.213 -232.594)" fill="#068cbd"/>
  </g>
</svg>
