<svg xmlns="http://www.w3.org/2000/svg" width="132.035" height="89.852" viewBox="0 0 132.035 89.852">
  <g id="PC" transform="translate(-160.998 -180.694)">
    <path id="パス_7" data-name="パス 7" d="M299.984,182.767H208.232a3.277,3.277,0,0,0-3.277,3.277v58.388a3.277,3.277,0,0,0,3.277,3.277h91.752a3.276,3.276,0,0,0,3.277-3.277V186.044A3.277,3.277,0,0,0,299.984,182.767Zm-2.616,56.683a2.885,2.885,0,0,1-2.923,2.846H213.771a2.885,2.885,0,0,1-2.923-2.846V191.026a2.885,2.885,0,0,1,2.923-2.846h80.675a2.885,2.885,0,0,1,2.923,2.846Z" transform="translate(-27.739 -2.073)" fill="#003d52"/>
    <path id="パス_8" data-name="パス 8" d="M246.539,510.662H145.493L130,526.711v3.873H262.033v-3.873Z" transform="translate(31 -260.037)" fill="#003d52"/>
  </g>
</svg>
