<svg xmlns="http://www.w3.org/2000/svg" width="72.577" height="56.744" viewBox="0 0 72.577 56.744">
  <g id="営業_販売" data-name="営業・販売" transform="translate(-41.605 -42.056)">
    <circle id="楕円形_7" data-name="楕円形 7" cx="8.715" cy="8.715" r="8.715" transform="translate(95.036 42.055)" fill="#068cbd"/>
    <path id="パス_31" data-name="パス 31" d="M280.451,197.18h0a2.938,2.938,0,0,1,4.142.307l6.266,7.661,1.857-1.875a3.155,3.155,0,0,0,.981,1.646l2.806,2.467v.622l-3.567,3.6a3.187,3.187,0,0,1-3.5.743l-.024-.01c-.045-.02-.091-.038-.135-.06a2.724,2.724,0,0,1-.986-.755L279.93,201.3A2.939,2.939,0,0,1,280.451,197.18Z" transform="translate(-204.33 -132.736)" fill="#068cbd"/>
    <path id="パス_32" data-name="パス 32" d="M382.8,188.186h0a3.105,3.105,0,0,1,4.385-.154l8.376,7.365,4.1-7.452-.266-.163-4.056,6.12-8.032-7.063a3.081,3.081,0,0,0-.764-.493,6.572,6.572,0,0,1,6.023-3.942h7.719c.108,0,.215,0,.321.008l.123.009c.064,0,.128.008.191.015l.157.018.151.019.176.029.123.022q.1.019.193.04l.1.023q.1.025.208.053l.073.021c.075.022.15.044.224.068l.044.015c.082.027.163.056.243.086h0a6.574,6.574,0,0,1,4.245,6.147v19.131H385.989V196.3s7.894,7.093,8.441,7.394h0l.025.013a3.3,3.3,0,0,0,2.16.517,3.47,3.47,0,0,0,2.869-1.58c.359-.437,6.086-11.056,6.086-11.056l-.33-.207s-6.4,10.551-6.581,10.751h0a2.768,2.768,0,0,1-1.536.907,4,4,0,0,1-2.188-.264c-.656-.313-11.73-10.223-11.73-10.223A3.105,3.105,0,0,1,382.8,188.186Z" transform="translate(-292.67 -120.643)" fill="#068cbd"/>
    <ellipse id="楕円形_8" data-name="楕円形 8" cx="9.01" cy="8.631" rx="9.01" ry="8.631" transform="translate(43.38 48.86)" fill="#068cbd"/>
    <path id="パス_33" data-name="パス 33" d="M74.048,255.359l-6.841-10.023c-.01-.027-.019-.054-.029-.081L63.03,234.692c-1.135-2.95-3.376-5.172-6.65-5.172H48.4a6.656,6.656,0,0,0-6.794,6.509v18.947H63.174v-4.722l5.7,8.347a3.176,3.176,0,0,0,4.281.858A2.888,2.888,0,0,0,74.048,255.359Z" transform="translate(0 -161.144)" fill="#068cbd"/>
    <path id="パス_34" data-name="パス 34" d="M245.9,74.973l5.605-4.576-4.789-.033V62.871a3.01,3.01,0,0,0-3.01-3.01h-15.3a3.01,3.01,0,0,0-3.01,3.01V72.917a3.01,3.01,0,0,0,3.01,3.01h15.3a2.99,2.99,0,0,0,1.557-.437v0l.018-.015A3.025,3.025,0,0,0,245.9,74.973Z" transform="translate(-157.988 -15.306)" fill="#068cbd"/>
  </g>
</svg>
