<svg xmlns="http://www.w3.org/2000/svg" width="60.707" height="77.5" viewBox="0 0 60.707 77.5">
  <g id="サービス" transform="translate(-3259.221 -3201.5)">
    <path id="パス_107" data-name="パス 107" d="M3315.422,3236.148h-2.971a9.41,9.41,0,0,1-8.365,9.171c-1.018-1.853-3.787-3.183-7.044-3.183-4.12,0-7.461,2.127-7.461,4.751s3.341,4.75,7.461,4.75c3.347,0,6.18-1.4,7.125-3.337A12.394,12.394,0,0,0,3315.422,3236.148Z" fill="#068cbd"/>
    <path id="パス_108" data-name="パス 108" d="M3288.377,3246.887a5.254,5.254,0,0,1,2.743-4.375,11.14,11.14,0,0,1,5.922-1.58,10.2,10.2,0,0,1,7.118,2.522,19.8,19.8,0,1,0-14.647,6.422A4.625,4.625,0,0,1,3288.377,3246.887Z" fill="#068cbd"/>
    <path id="パス_109" data-name="パス 109" d="M3260.316,3279v-16.248a5.975,5.975,0,0,1,1.555-3.873,13.237,13.237,0,0,1,4.241-3.162,26.1,26.1,0,0,1,6.29-2.132,37.053,37.053,0,0,1,7.7-.783h18.905a37.067,37.067,0,0,1,7.7.783,26.114,26.114,0,0,1,6.29,2.132,13.222,13.222,0,0,1,4.24,3.162,5.97,5.97,0,0,1,1.556,3.873V3279Z" fill="#068cbd"/>
    <path id="パス_110" data-name="パス 110" d="M3266.027,3240.71h0a6.806,6.806,0,0,1-6.806-6.806v-7.6a6.806,6.806,0,0,1,6.806-6.806h0a1.978,1.978,0,0,1,1.978,1.978v17.258A1.977,1.977,0,0,1,3266.027,3240.71Z" fill="#068cbd"/>
    <path id="パス_111" data-name="パス 111" d="M3313.122,3240.7h0a6.806,6.806,0,0,0,6.806-6.806v-7.6a6.806,6.806,0,0,0-6.806-6.806h0a1.978,1.978,0,0,0-1.978,1.978v17.258A1.978,1.978,0,0,0,3313.122,3240.7Z" fill="#068cbd"/>
    <path id="パス_112" data-name="パス 112" d="M3264.665,3232.913c0-16.52,11.145-29.913,24.893-29.913s24.892,13.393,24.892,29.913" fill="none" stroke="#068cbd" stroke-miterlimit="10" stroke-width="3"/>
  </g>
</svg>
