<svg xmlns="http://www.w3.org/2000/svg" width="162.493" height="89.339" viewBox="0 0 162.493 89.339">
  <g id="web面談" transform="translate(-5208.139 -1000.26)">
    <g id="グループ_5" data-name="グループ 5" transform="translate(5208.139 1000.26)">
      <circle id="楕円形_4" data-name="楕円形 4" cx="19.4" cy="19.4" r="19.4" transform="translate(11.939 0)" fill="#003d52"/>
      <path id="パス_9" data-name="パス 9" d="M5239.478,1187.1c-17.308,0-31.338,14.476-31.338,32.333h0v15.222h62.677v-15.222h0C5270.816,1201.575,5256.785,1187.1,5239.478,1187.1Z" transform="translate(-5208.139 -1145.314)" fill="#003d52"/>
    </g>
    <path id="パス_10" data-name="パス 10" d="M5565.29,1000.565H5483.3a2.929,2.929,0,0,0-2.929,2.928v52.178a2.929,2.929,0,0,0,2.929,2.929h81.994a2.928,2.928,0,0,0,2.928-2.928v-52.178A2.928,2.928,0,0,0,5565.29,1000.565Zm-2.337,50.655a2.578,2.578,0,0,1-2.612,2.543h-72.095a2.578,2.578,0,0,1-2.612-2.543v-43.274a2.578,2.578,0,0,1,2.612-2.543h72.095a2.578,2.578,0,0,1,2.612,2.543Z" transform="translate(-211.347 -0.236)" fill="#003d52"/>
    <path id="パス_11" data-name="パス 11" d="M5520.672,1269.722h-88.293l-13.539,15.761v3.8h115.372v-3.8Z" transform="translate(-163.58 -209.199)" fill="#003d52"/>
    <g id="グループ_6" data-name="グループ 6" transform="translate(5297.876 1015.5)">
      <path id="パス_12" data-name="パス 12" d="M5653.76,1077.718a9.314,9.314,0,1,1-9.314-9.314A9.315,9.315,0,0,1,5653.76,1077.718Z" transform="translate(-5629.375 -1068.404)" fill="#003d52"/>
      <path id="パス_13" data-name="パス 13" d="M5609.4,1173.552a15.7,15.7,0,0,1,4.414-10.993,14.745,14.745,0,0,1,21.313,0,15.7,15.7,0,0,1,4.414,10.993Z" transform="translate(-5609.396 -1137.967)" fill="#003d52"/>
    </g>
  </g>
</svg>
