<?xml version="1.0" encoding="UTF-8"?><svg id="_レイヤー_1" xmlns="http://www.w3.org/2000/svg" viewBox="0 0 237.65 55.17"><defs><style>.cls-1{fill:#383129;font-family:PalatinoLinotype-Roman, 'Palatino Linotype';font-size:48px;}.cls-2{fill:none;stroke:#373128;stroke-miterlimit:10;stroke-width:.5px;}</style></defs><text class="cls-1" transform="translate(.56 41.18)"><tspan x="0" y="0">Jasmine</tspan></text><g><g><path class="cls-2" d="M182.78,8.86s3.82,3.45,4.03,10.45l2.52,2.41,.36,2.89-2.35,.56-.61,1.68s-1-.29-.76,.16c.25,.45-2.4,5.22-3.24,5.87s-1-9.67-1-9.67l1.05-14.35Z"/><path class="cls-2" d="M186.49,44.99s.7,1.02,3.65,1.01l.78-.11s-.52,.47-.24,.43c.28-.03,.91,.78,3.56-.44l.29,.12-.97,1.43,5.94-.02,3.96-.22-.19-1.49,.76-2.44-17.31-.07-.23,1.79Z"/><path class="cls-2" d="M212.97,44.76l.54,.98,.39,1.09,.37-.24,.98,.69h12.97l.33-1.01-.37-1.49,1.56-.68-.75-.78s-9.65-.47-9.91-.46c-.25,.01-8.93,.35-8.93,.35l-.18,.68s1.41,.85,2.99,.88"/><polygon class="cls-2" points="229.97 45.58 233.71 47.45 235.5 47.28 231.74 45.02 229.58 45.02 229.97 45.58"/></g><polygon class="cls-2" points="187.04 32.86 185.97 33.1 186.17 37.3 187.04 37.89 187.04 32.86"/><g><path class="cls-2" d="M215.54,39.42c0-.14-.02-.27,0-.41,.06-.49,.13-.98,.19-1.47,.02-.19,.02-.38,.03-.6-.12-.14-.31-.09-.46-.14-.25,.16,0,.39-.11,.57-.09,.16-.09,.37-.13,.56-.04,.19-.08,.38-.13,.59-.04-.06-.08-.1-.13-.18-.36,1.32-.54,2.64-.76,3.97-.02-.07-.06-.13-.06-.2,.04-.43,.07-.86,.13-1.29,.07-.51,.16-1.01,.27-1.52,.14-.67,.3-1.33,.55-1.97,.08-.2,.22-.45-.1-.59,.03-.11,.06-.19,.08-.29-.11-.07-.23-.13-.39-.22-.04,.19-.07,.35-.1,.54,.09-.02,.15-.05,.18-.03,.03,.02,.05,.09,.05,.14,0,.03-.02,.06-.04,.09-.28,.48-.36,1.03-.48,1.56-.06,.25-.13,.5-.17,.76-.08,.46-.15,.92-.22,1.38-.04,.27-.08,.53-.12,.82-.04-.03-.1-.06-.1-.1-.01-.17-.03-.34,0-.51,.1-.69,.19-1.38,.31-2.06,.09-.48,.24-.95,.34-1.42,.08-.38,.11-.76,.16-1.15,.01-.12-.03-.22-.16-.28-.09-.04-.18-.09-.31-.16-.02,.15-.05,.29-.07,.45,.08-.06,.14-.09,.2-.13,.02,.05,.04,.08,.04,.1-.1,.37-.22,.74-.31,1.12-.08,.31-.16,.61-.18,.93-.02,.35-.1,.69-.15,1.04-.05,.37-.09,.74-.13,1.12-.02,.21,0,.41,.1,.58-.09,.14-.2,.12-.23-.01-.04-.17-.05-.36-.04-.54,.02-.45,.02-.92,.11-1.36,.13-.64,.1-1.3,.31-1.92,.03-.07,.03-.16,.04-.24,.04-.33,.08-.66,.1-.98,0-.11,.08-.26-.12-.35-.1,.36-.23,.69-.3,1.04-.07,.36-.15,.71-.21,1.07-.06,.36-.1,.72-.14,1.08-.04,.35-.07,.7-.11,1.13-.12-.3-.1-1.27,.01-2.24-.05,.01-.1,.03-.19,.05,.02-.17,.03-.31,.05-.46-.25,.39-.15,.84-.26,1.29-.14-.12-.14-.24-.14-.38-.02-.79,.17-1.54,.37-2.29,.05-.16,.07-.33,.11-.5,.02-.09,.06-.19,.1-.32-.08-.07-.19-.17-.35-.31-.05,.15-.1,.25-.12,.35-.09,.51-.16,1.01-.24,1.52-.01,.09-.02,.18-.02,.27,.02,.18-.03,.34-.17,.46-.11,.01-.16-.04-.16-.14,.01-.25,.02-.5,.05-.75,.04-.34,.1-.68,.16-1.01,.02-.11,.07-.22,.12-.31,.1-.17,.14-.34,.06-.52-.02-.05-.08-.09-.18-.18-.07,.39-.14,.72-.2,1.05-.05,.29-.07,.59-.16,.87-.1,.34-.08,.64,.06,.96,.3,.67,.53,1.37,.74,2.07,.22,.71,.31,1.44,.45,2.17,.01,.06,.01,.11,.01,.17,0,.02-.02,.03-.06,.08-.11-.13-.06-.31-.17-.45-.07,.25-.15,.48-.2,.71-.04,.23-.05,.46-.08,.74-.08-.09-.15-.13-.15-.18-.01-.17-.01-.34,.01-.51,.03-.2,.1-.4,.14-.6,.03-.16,.1-.27,.31-.31-.11-.45-.24-.89-.32-1.33-.08-.45-.34-.85-.43-1.28-.09-.45-.37-.81-.49-1.24-.04,.09-.08,.16-.14,.27-.04-.05-.07-.08-.07-.1,.08-.25,.03-.5-.06-.73-.08-.21-.19-.41-.29-.62-.02,.02-.03,.02-.03,.03-.19,.79-.58,1.51-.84,2.27-.04,.12-.06,.24-.09,.36-.02,.08-.06,.16-.1,.25-.15-.07-.12-.16-.11-.25,.07-.43,.23-.84,.38-1.24,.07-.18,.12-.37,.19-.55,.05-.13,.07-.27,.15-.38,.15-.19,.18-.41,.26-.63,.08-.21,.03-.37-.15-.57,0,.11,0,.18,0,.25,0,.19,.07,.41-.17,.53-.04,.02-.04,.1-.06,.15-.01,.04-.01,.1-.04,.13-.45,.51-.59,1.17-.88,1.76-.03,.06-.03,.13-.05,.2-.02,.09-.04,.2-.17,.16-.1-.03-.07-.14-.04-.21,.09-.25,.17-.49,.28-.73,.23-.51,.48-1.01,.69-1.52,.11-.25,.16-.52,.24-.78-.02-.01-.04-.02-.06-.03-.1,.15-.19,.3-.29,.45-.1,.15-.21,.3-.31,.45-.1,.16-.19,.33-.28,.51-.08,.16-.14,.34-.23,.49-.1,.16-.02,.4-.22,.52-.12-.04-.13-.13-.09-.22,.1-.27,.19-.54,.31-.8,.17-.33,.37-.65,.56-.98,.07-.13,.08-.13,.04-.58-.06,.05-.12,.08-.15,.13-.32,.49-.63,.98-.94,1.47-.09,.15-.14,.3-.09,.49,.1,.37,.19,.75,.28,1.13,.07,.29,.14,.58,.22,.86,.06,.22,.13,.44,.19,.66,0,.01,0,.03,0,.03,.31,.21,.27,.61,.47,.89,.03,.04,.05,.1,.06,.16,.09,.53,.16,1.06,.27,1.58,.07,.36,.19,.72,.28,1.08,.04,.15,.16,.18,.28,.21,.24,.06,.49,.08,.72,.17,.26,.1,.52,.24,.75,.4,.18,.13,.34,.21,.57,.18,.09-.01,.18,.01,.27,0,.16-.02,.27,.04,.36,.15,.12,.15,.26,.28,.31,.48,.04,.14,.14,.26,.22,.38,.06,.09,.11,.18,.04,.29-.15,.24-.08,.48,0,.77,.04-.18,.07-.33,.12-.47,.08-.22,.21-.26,.38-.09,.15,.14,.27,.3,.4,.46,.15,.18,.31,.37,.46,.55,.26,.31,.56,.57,.95,.73,.21,.08,.36,.29,.57,.37,.69,.25,1.25,.7,1.84,1.12,.11,.08,.21,.09,.32,.06,.17-.04,.34-.08,.5-.14,.16-.07,.31-.06,.46,.01,.1,.05,.22,.08,.31,.14,.58,.39,1.24,.51,1.93,.5,.26,0,.51-.11,.77-.16,.11-.02,.24-.03,.33,.01,.26,.14,.53,.28,.74,.48,.17,.16,.37,.23,.56,.19,.27-.05,.49,.02,.74,.14-.02,.05-.02,.14-.06,.16-.15,.07-.29,.18-.48,.14-.12-.02-.26,.03-.4,.05-.12,.01-.22-.02-.3-.12-.21-.26-.53-.39-.81-.56-.18-.11-.4-.11-.56-.04-.48,.2-.95,.09-1.41,0-.4-.08-.79-.22-1.14-.46-.24-.17-.48-.18-.74-.03-.15,.09-.32,.14-.5,.22,.1,.08,.19,.16,.29,.25-.06,.13-.17,.14-.26,.09-.21-.12-.43-.23-.6-.39-.42-.38-.86-.7-1.42-.86-.19-.06-.38-.12-.58-.18-.15-.04-.28-.14-.42-.21-.07-.04-.14-.07-.21-.1-.13-.06-.27-.11-.42-.17,.03-.08,.05-.14,.07-.2-.22-.54-.65-.94-.98-1.42-.11,.15-.2,.27-.29,.4-.06-.03-.11-.07-.16-.07-.27,0-.32-.18-.34-.38-.01-.14-.03-.27-.02-.41,.06-.49-.11-.88-.49-1.24-.11,.01-.24,.01-.35,.05-.21,.08-.37,0-.53-.13-.14-.12-.28-.24-.42-.34-.12-.08-.25-.14-.38-.21-.16,.23-.26,.43-.19,.69,.02,.08,0,.19-.11,.22-.11,.03-.16-.05-.22-.13-.18-.27-.37-.54-.56-.83-.06,.12-.1,.2-.14,.28-.16,0-.19-.09-.21-.2-.02-.13-.05-.25-.19-.33-.08-.05-.12-.21-.13-.33-.03-.39-.06-.77-.07-1.16,0-.39-.01-.77-.14-1.15-.04-.13-.05-.27-.08-.4,.06-.01,.11-.02,.15-.03-.06-.3-.13-.6-.32-.86-.07-.1-.1-.26-.11-.39-.06-.65-.37-1.22-.55-1.83-.03-.11-.12-.19-.15-.3-.08-.26-.14-.52-.21-.78-.04-.15-.08-.3-.13-.52-.2,.18-.35,.32-.51,.45-.14,.12-.28,.24-.43,.34-.31,.21-.41,.23-.89,.28,0,.07-.02,.15,0,.22,.17,.57,.1,1.15,.1,1.73,0,.19-.09,.38-.16,.56-.03,.07-.13,.11-.2,.17-.09-.15-.07-.28-.06-.43,.04-.57,.09-1.14-.09-1.72-.17-.57-.42-1.11-.58-1.67-.11-.39-.08-.81-.11-1.21,0-.03,.02-.07,.03-.1,.06-.17,.17-.28,.28-.26,.11,.02,.15,.11,.15,.34,0,.27,.02,.54,.14,.82,.31-.03,.61-.05,.88-.23,.16-.1,.36-.14,.54-.2,.12-.04,.24-.06,.38-.09-.1-.27-.18-.53-.3-.78-.13-.27-.09-.53-.03-.8,.01-.06,.09-.15,.12-.14,.19,.04,.22-.11,.29-.23,.04-.07,.1-.12,.14-.18,.04-.06,.09-.12,.14-.19-.52-.37-1.01-.73-1.56-1.12,.03,.52-.06,.96-.24,1.38-.18,.41-.25,.87-.6,1.22-.12-.12-.11-.23-.07-.36,.13-.44,.28-.87,.38-1.31,.07-.33,.14-.67,.05-1.02-.05-.2,.02-.35,.14-.52,.05,.03,.1,.05,.14,.08,.15,.13,.28,.27,.44,.38,.4,.3,.82,.58,1.23,.87q.3,.21,.64,.01c-.25-.2-.53-.32-.8-.46-.23-.12-.25-.18-.13-.43,.63,.16,1.07,.61,1.57,1.03,.04-.02,.09-.07,.14-.07,.08,0,.2,.02,.24,.08,.07,.1-.05,.16-.12,.21-.11,.08-.24,.14-.37,.22,.01,.13,.1,.29-.15,.36-.1-.04-.23-.09-.37-.14-.34,.16-.44,.45-.38,.77,.06,.36,.04,.73,.16,1.08,.04,.11-.01,.25,.02,.37,.09,.33,.21,.66,.33,1.05,.23-.39,.43-.72,.63-1.04,.2-.31,.4-.61,.61-.91,.15-.21,.24-.43,.21-.71-.19-.03-.28,.09-.39,.18-.1,.08-.14,.25-.32,.23-.01,0-.04,.03-.04,.04-.02,.25-.26,.36-.34,.57-.08,.21-.18,.42-.28,.62-.03,.06-.08,.1-.14,.18-.06-.21,.02-.35,.08-.48,.24-.54,.49-1.08,.87-1.55,.08-.1,.15-.17,.29-.2,.24-.05,.31-.16,.33-.42-.04,0-.08-.02-.12-.02-.18,.03-.28-.06-.35-.21-.14-.28-.15-.42-.03-.89-.65-.21-1.29-.43-1.98-.44-.64-.01-1.2-.24-1.64-.74-.09-.1-.2-.18-.34-.3,.09,0,.16-.04,.21-.02,.12,.04,.23,.1,.33,.17,.51,.37,1.06,.55,1.7,.56,.36,0,.72,.12,1.07,.2,.49,.12,.97,.25,1.46,.39,.34,.09,.67,.13,.99-.05,.07-.04,.15-.05,.24-.07,0-.08,.01-.16,.02-.24,.03,0,.07-.02,.09,0,.12,.1,.24,.07,.35,.01,.54-.27,1.06-.57,1.48-1.02,.24-.26,.51-.49,.79-.7,.25-.19,.56-.18,.86-.18,.18,0,.36,.01,.55,.02,.05-.25-.01-.46-.15-.63-.25-.33-.31-.69-.21-1.1,.08-.33,.13-.66,.21-1.05-.09,.04-.14,.06-.2,.08,.02-.33,.04-.66,.05-1.04,.2-.25,.22-.32,0-.64-.17-.25-.37-.49-.57-.72-.19-.23-.2-.31-.04-.57,.07-.1,.13-.21,.19-.32-.13-.2-.26-.39-.39-.58-.14-.19-.23-.21-.47-.16-.14,.03-.28,.02-.47,.04,0-.17,0-.29,0-.46-.41-.17-.86-.41-1.33-.54-.26-.07-.48-.19-.7-.31-.23-.13-.45-.26-.69-.37-.42-.2-.85-.38-1.29-.54-.47-.16-.94-.12-1.41-.11-.12,0-.24,.07-.36,.11-.09,.03-.19,.06-.22-.07-.03-.12,.08-.16,.16-.18,.23-.06,.47-.13,.71-.14,.41-.01,.82,.02,1.22,.16,.16,.06,.33,.08,.44,.24,.04,.06,.15,.19,.28,.05,.02-.02,.15,.04,.21,.08,.34,.19,.67,.38,1,.59,.31,.2,.61,.23,.95,.1,.19-.07,.4-.09,.6-.13,.12-.03,.25-.04,.37-.08,.06-.02,.13-.05,.18-.1,.04-.04,.03-.13,.07-.17,.03-.03,.11,.01,.17,0,.06-.02,.11-.08,.17-.11,.32-.18,.55-.45,.71-.77,.27-.54,.5-1.09,.62-1.69,.1-.49,.26-.96,.38-1.45,.06-.24,.07-.49,.09-.74,.02-.22,0-.22,.23-.31h0c.21,.15,.26,.36,.21,.6-.07,.34-.16,.69-.24,1.03-.07,.28-.13,.56-.15,.86-.04,.54-.16,1.08-.44,1.56-.07,.12-.15,.23-.27,.33-.17,.14-.3,.35-.39,.55-.08,.17-.26,.2-.36,.35-.09,.14-.24,.2-.42,.16-.04,0-.08,.03-.12,.05-.32,.13-.63,.26-.95,.37-.09,.03-.2,.01-.31,.06,.25,.1,.49,.22,.74,.31,.1,.04,.19,.06,.25,.15,.08,.12,.22,.15,.33,.1,.3-.14,.54-.05,.77,.15,.02,.02,.06,.03,.1,.06,.04-.05,.1-.15,.13-.14,.08,.03,.17,.08,.21,.15,.14,.23,.27,.48,.4,.71,.06,.11,.09,.24,.25,.24h0c.03,.34-.15,.57-.42,.78,.03,.07,.05,.15,.09,.21,.08,.12,.16,.25,.27,.36,.3,.3,.27,.64,.09,.97-.08,.14-.11,.26-.07,.42,.08,.3,.02,.59-.05,.88-.05,.22-.14,.44-.14,.66,0,.23,.08,.46,.13,.69,.02,.06,.06,.12,.11,.17,.25,.29,.28,.63,.2,.99-.03,.15-.1,.3-.16,.48,.19,.37,.4,.78,.62,1.19,.09,.17,.19,.29,.4,.34,.16,.04,.3,.14,.5,.24-.15-.27-.28-.49-.41-.71-.12-.22-.26-.43-.37-.65-.11-.23-.34-.39-.41-.71,.2,.1,.31,.22,.4,.36,.23,.38,.45,.76,.68,1.15,.13,.22,.26,.43,.39,.64,.03,.05,.07,.11,.12,.12,.28,.05,.44,.35,.76,.35-.14-.23-.28-.45-.41-.69-.13-.24-.27-.48-.35-.74-.08-.25-.29-.46-.27-.75,.18,.17,.29,.39,.4,.6,.18,.33,.34,.67,.53,.99,.19,.3,.4,.58,.62,.86,.06,.08,.16,.12,.25,.18,.28,.18,.55,.36,.84,.52,.18,.1,.38,.15,.57,.22,.05,.02,.1,.03,.2,.06-.07,.06-.11,.11-.14,.11-.38-.03-.74-.12-1.07-.31-.33-.19-.66-.36-.98-.55-.21,.38-.17,.62,.27,1.07,.17-.18,0-.46,.21-.65,.02,.07,.05,.12,.05,.18,0,.25,0,.5-.01,.75-.01,.14-.1,.28-.12,.42-.04,.29-.07,.59-.1,.9,.22,.06,.4-.01,.57-.08,.12-.14-.02-.34,.15-.45,.17,.07,.05,.22,.09,.35,.25,0,.46-.13,.69-.22,.22-.09,.44-.18,.68-.28,.05,.05,.13,.11,.12,.15-.01,.07-.07,.14-.12,.19-.05,.04-.13,.04-.19,.07-.09,.04-.15,.1-.13,.21,.01,.1-.02,.21,0,.31,.07,.32-.03,.63-.06,.95-.06,.47-.1,.95-.14,1.42-.02,.27-.03,.54-.04,.85,.16,.04,.33,.08,.51,.13,.21-.5,.16-1.03,.36-1.5,.05,.51-.07,1.01-.16,1.54,.28,.02,.53,.04,.81,.06,.06-.2,.11-.38,.15-.56,.02,0,.04,0,.07,0,.01,.07,.03,.14,.04,.21,0,.08,0,.16-.01,.26,.07,.02,.14,.05,.19,.04,.36-.07,.71-.15,1.07-.24,.19-.05,.33,0,.48,.11,.4,.34,.8,.68,1.2,1.02,.11,.09,.23,.17,.36,.25,.11,.07,.16,.19,.11,.28-.05,.09-.18,.12-.3,.05-.04-.02-.08-.05-.11-.08-.31-.25-.61-.51-.93-.76-.17-.13-.34-.27-.53-.38-.09-.05-.22-.07-.33-.06-.42,.05-.83,.13-1.28,.2-.06,.34-.13,.69-.17,1.05-.04,.34,.01,.7-.07,1.12-.06-.12-.1-.16-.11-.2-.06-.44-.04-.89,.04-1.33,.04-.21,.05-.43,.08-.67-.26-.02-.49-.03-.73-.05-.03,.07-.07,.12-.07,.17-.02,.44-.05,.88-.06,1.32,0,.1,.04,.2,.09,.29,.19,.35,.37,.7,.58,1.04,.23,.38,.47,.76,.73,1.11,.62,.84,1.25,1.68,1.88,2.51,.21,.28,.42,.57,.64,.85,.07,.09,.16,.16,.23,.24,.05,.06,.09,.12,.12,.19,.13,.33,.39,.57,.63,.85,.05-.15,.08-.27,.12-.39,.2,.23,.2,.66,0,.96-.37-.12-.39-.61-.76-.74-.08,.16-.14,.31-.03,.48,.03,.05,.01,.13,0,.19-.02,.1-.1,.13-.18,.11-.05-.01-.13-.08-.13-.13-.01-.13,0-.27,.02-.41,.01-.1,.05-.2,.08-.3,.06-.22,0-.4-.13-.58-.2-.26-.39-.52-.62-.82-.06,.42-.11,.8-.15,1.19,0,.05,.04,.12,.08,.16,.07,.08,.05,.16,0,.22-.03,.05-.12,.09-.17,.08-.05-.01-.12-.09-.13-.14,0-.27,0-.54,.02-.81,.02-.26,.07-.52,.1-.78,.03-.23-.05-.41-.22-.58-.14-.14-.24-.32-.36-.48-.1-.13-.22-.25-.37-.42-.19,.55-.46,1.01-.53,1.54-.01,.07,.01,.15,.02,.23,.01,.1-.04,.17-.12,.17-.05,0-.12-.07-.14-.12-.02-.1-.03-.21,0-.3,.14-.41,.29-.82,.44-1.22,.06-.15,.13-.29,.2-.44-.19-.28-.37-.55-.57-.84-.04,.07-.08,.13-.1,.19-.12,.4-.23,.81-.37,1.21-.1,.3-.17,.6-.13,.93,.02,.13-.07,.27-.1,.41-.21-.03-.19-.17-.18-.27,.05-.33,.09-.65,.17-.97,.16-.57,.35-1.13,.53-1.7-.1-.16-.2-.31-.31-.47-.18,.55-.35,1.09-.52,1.62-.02,.07-.06,.14-.09,.22-.02,.06-.05,.12-.06,.18,0,.12,0,.25,0,.37,0,.14,.02,.28,.03,.44-.16,.11-.27,.09-.26-.1,.02-.33,.05-.66,.13-.98,.07-.32,.21-.63,.31-.94,.11-.32,.21-.65,.32-.98-.11-.16-.23-.33-.37-.52-.1,.28-.2,.53-.29,.78-.2,.52-.41,1.04-.5,1.59-.01,.06-.08,.11-.12,.16-.02,0-.05-.02-.07-.03,.02-.11,.03-.21,.06-.32,.09-.4,.18-.8,.36-1.17,.16-.35,.28-.72,.41-1.08,.07-.2-.07-.31-.19-.43-.36,.55-.49,1.18-.78,1.74-.05-.39,.39-1.61,.68-1.95-.09-.37-.4-.63-.56-.98-.16,.1-.1,.25-.15,.44-.05-.11-.1-.17-.1-.23-.01-.1,0-.21,.02-.31,.02-.13-.02-.22-.1-.31-.13-.16-.24-.33-.36-.49-.11-.14-.23-.28-.4-.4,0,.16,0,.32,.01,.48,0,.15,.08,.31-.05,.46-.16-.19-.19-.37-.18-1.19-.16-.11-.33-.22-.51-.33-.06,.17,.04,.38-.16,.58,0-.24,0-.43,0-.62,0-.07,0-.17-.05-.22-.18-.17-.37-.33-.56-.49-.22,.27-.19,.55-.06,.77,.18,.3,.22,.64,.34,.96,.14,.36,.25,.73,.36,1.1,.11,.34,.23,.67,.3,1.01,.07,.33,.22,.62,.36,.92,.13,.26,.23,.54,.35,.81,.18,.38,.37,.76,.55,1.13,.38,.76,.78,1.52,1.12,2.3,.13,.28,.3,.54,.39,.84,.04,.13,.11,.22,.24,.26,.17,.06,.1,.17,.03,.27-.37,0-.45-.32-.55-.57-.07-.16-.13-.31-.22-.45-.07-.11-.08-.25-.13-.38-.06-.14-.11-.28-.19-.41-.12-.21-.25-.4-.39-.64-.11,.32-.1,.6,.04,.91-.08-.01-.17,0-.19-.03-.07-.14-.17-.27-.12-.45,.06-.21-.02-.47,.22-.63-.04-.08-.06-.16-.11-.22-.26-.26-.37-.59-.52-.91-.12-.24-.26-.48-.39-.72-.04-.08-.05-.17-.08-.25-.03-.08-.06-.17-.1-.25-.13-.19-.27-.37-.39-.55-.05-.07-.11-.18-.09-.25,.05-.23-.07-.42-.12-.62-.07-.29-.13-.59-.21-.88-.04-.14-.09-.28-.14-.42-.12-.39-.24-.78-.37-1.17-.07-.21-.17-.42-.25-.63-.08-.2-.17-.39-.25-.59-.06-.15-.08-.16-.28-.13,0-.13,.01-.26,.02-.45-.09,.08-.14,.11-.16,.15-.05,.17-.11,.35-.14,.53-.12,.63-.24,1.25-.33,1.88-.07,.5-.09,1-.13,1.5,0,.13,.02,.26-.03,.41-.03-.04-.07-.07-.08-.11-.1-.34-.04-.68-.02-1.02,.03-.5,.1-1,.15-1.49,0-.06,.03-.13,0-.16-.23-.34-.08-.71-.1-1.06-.01-.2,.01-.41,0-.61-.18,.69-.38,1.37-.42,2.11-.07-.03-.13-.05-.22-.09-.22,1.36-.43,2.71-.44,4.16-.07-.09-.12-.13-.12-.17-.02-.19-.06-.39-.04-.57,.05-.6,.1-1.2,.18-1.8,.08-.61,.19-1.21,.29-1.82,.02-.1,.04-.22,.11-.28,.23-.22,.22-.51,.28-.78,.12-.56,.24-1.11,.36-1.69-.14-.1-.27-.19-.45-.32-.05,.26-.09,.45-.12,.66-.06,.53-.17,1.05-.26,1.58,0,.04-.04,.07-.06,.11h0Zm-3.09-7.32c.19-.05,.13,.23,.29,.22,.11-.16,.21-.31,.31-.46,.07,.16,0,.29-.05,.4-.11,.21-.11,.39,.06,.55,.05,.05,.1,.11,.19,.22,.05-.38,.09-.69,.13-1.01-.09-.13-.18-.28-.28-.44-.21,.13-.41,.26-.61,.39-.03,.02-.03,.08-.04,.12-.09,.27-.14,.54,.13,.75,.12-.06,.09-.13,.06-.21-.07-.18-.13-.36-.19-.54Zm7.97,8.16c.12-.61,.06-.73-.41-.87-.16-.04-.19-.13-.24-.26,.3-.08,.5,.19,.77,.19,.01-.11,.03-.2,.03-.28,0-.67,.12-1.33,.22-2,.06-.38,.1-.76,.02-1.18-.21,.08-.39,.17-.59,.23-.31,.09-.39,.31-.42,.59-.05,.53-.14,1.06-.19,1.59-.04,.43-.11,.87,.25,1.21,.02,.02,.02,.04,.03,.06,.16,.22,.31,.44,.51,.71Zm-5.32-9.11s.04,.01,.07,.02c-.06,.33,.03,.61,.26,.85,.06-.29,.05-.55-.12-.8-.11-.16-.22-.33-.19-.61,.43,.52,.64,1.11,1.02,1.58,.15-.05,.28-.08,.42-.12-.21-.45-.44-.89-.63-1.34-.1-.23-.25-.38-.46-.46-.56-.2-.78-.19-1.05,.24,.18,.25,.36,.51,.55,.77,.04-.04,.09-.08,.14-.13Zm-9.36,5.34c.04,.15,.06,.27,.1,.39,.1,.27,.15,.29,.46,.29,.45,0,.79-.26,1.16-.46,.16-.08,.29-.21,.44-.33-.1-.22-.18-.42-.26-.6-.13,.02-.22,.03-.3,.06-.53,.21-1.05,.43-1.59,.65Zm11.81-.93s.05-.02,.07-.03c.03-.21,.04-.43,.09-.64,.13-.67,.1-.85-.24-1.41-.04-.06-.06-.12-.1-.18-.24-.33-.39-.76-.86-.86-.14,.27-.1,.39,.21,.67q.09-.25,.26-.18c-.13,.34-.08,.66,.13,.96,.08,.11,.11,.24,.16,.37-.02,.01-.03,.02-.05,.03-.11-.13-.21-.26-.33-.4-.11,.35-.08,.65,.16,.91,.04,.04,.05,.1,.09,.15,.14,.2,.28,.41,.42,.61Zm-2.79-2.92c.05-.17,.12-.31,.14-.45,.03-.23,.07-.47-.06-.7-.08-.14-.16-.28-.25-.41-.1-.16-.21-.32-.32-.49-.26,.27-.65,.36-.65,.81,0,.37-.04,.72,.33,.97,.04-.18,.07-.35,.11-.51-.22-.31-.28-.52-.2-.7,.29,.48,.58,.96,.9,1.47Zm4.37,3.78c-.01,.07-.03,.12-.03,.18-.04,.4-.07,.79-.1,1.19-.02,.31-.05,.61-.06,.92,0,.27,.15,.4,.41,.41,.11-.93,.22-1.86,.33-2.79-.19,.03-.36,.07-.55,.1Zm-.87,.17c-.05,.47-.11,.93-.15,1.39,0,.06,.03,.14,.07,.18,.18,.14,.38,.27,.58,.41,.05-.71,.11-1.39,.16-2.1-.23,.04-.42,.08-.66,.12Zm-.16-3.29c-.04,.22-.11,.39-.1,.57,.01,.18,.1,.35,.16,.54-.07,0-.13,0-.21,0-.06,.61-.12,1.22-.18,1.82,.32,.02,.33,.01,.37-.2,.08-.46,.17-.92,.26-1.37,.15-.79,.24-.54-.22-1.22-.02-.03-.03-.06-.08-.14Zm-6.77,.93c-.1,.46-.2,.94-.3,1.41,0,.04,0,.09,.01,.13,.1,.26,.2,.52,.31,.77,.23-.69,.37-1.38,.42-2.1-.12-.1-.21-.24-.44-.22Zm6.99,1.96c.23-.04,.42-.08,.6-.11,.02-.03,.04-.05,.04-.07,.06-.37,.12-.74,.17-1.11,.02-.13-.02-.24-.12-.34-.11-.1-.2-.22-.33-.35-.13,.66-.31,1.28-.35,1.98Zm-1.84,.44c.03-.09,.06-.13,.06-.17,.02-.58,.01-1.16,.05-1.74,.02-.26-.08-.45-.23-.66-.18,.34-.18,.83-.02,1.09-.17,.16-.17,.16-.2,.42-.02,.19-.06,.38-.07,.58-.01,.12,0,.24,0,.39,.14,.03,.26,.06,.41,.09Zm.35-1.74c-.09,.57-.05,1.13-.09,1.71,.21-.06,.38-.08,.53-.15,.25-.12,.39-.33,.34-.64-.36-.2-.48-.62-.78-.93Zm-1.73,1.11s.05-.05,.05-.07c.03-.3,.06-.61,.08-.91,0-.04,0-.1-.03-.13-.12-.18-.25-.36-.41-.57-.05,.37-.09,.68-.15,.99-.09,.5-.08,.51,.4,.69,0,0,.02,0,.05,0Zm.59-3.09s-.05,0-.08,0c0,.46-.24,.95,.17,1.37,.04,.04,.04,.11,.07,.15,.04,.06,.09,.11,.16,.18,.04-.25,.09-.46,.11-.67,.01-.12,0-.25-.05-.36-.11-.23-.25-.45-.38-.67Zm5.56,7c-.2,0-.35-.22-.51-.08-.18,.56,0,.99,.4,1.39,.04-.44,.07-.85,.11-1.3Zm-4.53-2.31c-.05,.69-.1,1.32-.14,1.95,0,.06,.02,.13,.03,.19,.09-.18,.12-.37,.16-.56,.08-.41,.18-.81,.5-1.13-.17-.14-.33-.27-.55-.45Zm-3.28-3.88c-.15,.3-.15,.36,0,.55,.07,.09,.17,.17,.15,.35-.12-.12-.22-.22-.33-.33-.01,.22-.02,.4-.03,.55,.1,.07,.18,.13,.26,.2,.08,.06,.13,.16,.26,.1,.03-.17,.05-.34,.08-.5,.05-.37-.07-.66-.38-.91Zm.98,1.97c.02-.19,0-.35,.06-.47,.13-.25,0-.38-.16-.52-.09-.08-.18-.15-.3-.24-.02,.1-.03,.17-.04,.23-.02,.22-.04,.45-.06,.68,.16,.1,.31,.2,.5,.32Zm-.16-2.22q-.17,.06-.19,.14c-.11,.38,.07,.8,.45,1.02,.18-.43,.13-.82-.25-1.16Zm3.81,3.18c-.19-.02-.31,.01-.34,.19-.04,.24-.1,.49-.12,.73-.02,.24,.02,.27,.32,.39,.05-.44,.09-.87,.14-1.31Zm-2.21-.19c.02-.27,.03-.47,.05-.63-.16-.19-.3-.35-.46-.54-.04,.29-.08,.56-.12,.83,.16,.1,.32,.2,.53,.34Zm1.64,.32c-.26,.07-.5,.14-.75,.22,.08,.24,.39,.5,.71,.59-.04-.26,.13-.51,.04-.8Zm.32-3.06c.05-.23,.08-.38,.11-.54,.03-.16-.03-.31-.16-.38-.18-.1-.39-.16-.64-.25,.24,.41,.45,.77,.69,1.17Zm-5.84-.26c.06-.25,.11-.45,.14-.65,.04-.25-.02-.36-.29-.49-.2,.21-.07,.5-.16,.74-.01,.03,.03,.08,.06,.12,.06,.08,.13,.15,.25,.28Zm1.89-.24c.16-.4-.11-.61-.27-.89-.17,.56-.19,.69-.14,1.02,.14-.04,.27-.09,.41-.13Zm2.07,2.34c.01-.25,.08-.45,.02-.6-.09-.22-.27-.4-.42-.61-.17,.5,.01,.85,.4,1.22Zm-1.03-2.22c-.02,.24-.1,.44-.05,.59,.08,.23,.24,.42,.39,.67,.15-.5,.04-.88-.34-1.26Zm-3.98,.65c-.06,.21-.1,.39-.16,.56-.1,.27-.04,.51,.14,.77,.09-.43,.17-.83,.26-1.22-.09-.04-.14-.07-.23-.11Zm1.6,.3c.15,.09,.3,.19,.48,.31,.03-.19,.06-.33,.07-.48,.01-.14-.07-.22-.22-.23-.21-.01-.26,.04-.33,.4Zm-2,.28c.08-.19,.14-.3,.17-.42,.02-.09,.04-.23,0-.29-.12-.12-.25-.25-.49-.23,.03,.34,.24,.58,.33,.93Zm4.13-1.66c-.13-.26-.2-.52-.4-.73-.18,.48-.18,.53,.07,.83,.1-.03,.2-.07,.33-.11Zm-1.45,2.49s-.05,0-.08,.01c-.11,.63-.22,1.25-.34,1.88,.2-.56,.36-1.14,.5-1.71,.01-.05-.06-.12-.09-.18Zm-.86-2.48s-.04,0-.06,0c-.03,.21-.07,.43-.09,.64,0,.04,.04,.13,.07,.13,.06,0,.15,0,.18-.05,.1-.14,.16-.31,.06-.48-.05-.09-.11-.17-.16-.25Zm2.78-.99c-.04,.3-.19,.53-.05,.8,.06-.03,.1-.05,.14-.07,.21-.11,.24-.16,.13-.37-.05-.11-.12-.21-.22-.36Zm-4.82,1.16c.21,.08,.4,.16,.61,.25-.23-.41-.37-.5-.65-.45,.01,.06,.02,.13,.04,.21Zm6.3,.87c.1-.44,.08-.53-.21-.78-.06,.29-.05,.56,.21,.78Zm-.75-1.17c.11,.18,.2,.33,.3,.51,.1-.4,.07-.6-.09-.66-.05,.04-.11,.08-.21,.15Zm-2.99,.11c-.11,.2-.07,.38,.05,.54,.05,.08,.12,.1,.2,.05,.09-.05,.08-.13,.04-.2-.09-.13-.18-.25-.29-.39Zm-2.85,.11c.06-.22,.11-.38,.16-.54-.11-.02-.21-.13-.36-.04,.05,.17,.01,.36,.2,.59Zm.18,1.6c-.03,.3-.27,.53-.14,.82,.15-.24,.4-.46,.14-.82Zm8.34-1.02s.04,0,.06,0c.02-.13,.04-.26,.06-.41-.14-.06-.26-.1-.44-.18,.13,.24,.23,.41,.33,.58Zm-.97,4.72c.03,.24,.07,.33,.24,.53,.1-.33,.06-.42-.24-.53Zm-5.95-4.87c-.05,.07-.08,.13-.12,.18,.1,.13,.18,.26,.36,.25,.08-.23-.06-.33-.24-.43Zm3.79-.48c-.13,.07-.21,.12-.32,.19,.08,.13,.16,.25,.23,.36l.06-.02c.01-.16,.02-.32,.03-.53Zm-4.81-.36c.12,.11,.23,.21,.37,.34,0-.16,.02-.28,.02-.41-.12,0-.22,0-.32,0-.02,0-.03,.03-.08,.06Zm5.34-.34c-.1-.14-.17-.25-.29-.42,.06,.23-.04,.4,.07,.57,.07-.05,.14-.09,.22-.15Zm-4.44,.53c.02-.15,.04-.25,.06-.35-.11,.02-.21,.04-.33,.06,.05,.08,.09,.13,.13,.18,.03,.03,.07,.05,.14,.11Zm-.27,.09q-.05,.3,.18,.43c.04-.18-.08-.28-.18-.43Zm2.21-1.23c.02-.15,.04-.24,.06-.37q-.19,.18-.06,.37Zm1.22,1.93c.02-.1,.04-.18,.06-.27q-.2,.07-.06,.27Z"/><path class="cls-2" d="M191.8,31c0-.54-.63-1.16-1.12-1.21-.33-.03-.66-.06-.98,0-.16,.02-.31,.12-.49,.19-.22-.12-.25-.28-.02-.39,.22-.1,.47-.17,.72-.2,.41-.04,.82,.02,1.22,.15,.26,.08,.51,.21,.66,.47,.05-.13,.09-.24,.13-.35,.08-.21-.06-.38-.19-.48-.49-.39-.86-.88-1.23-1.37-.21-.28-.28-.56-.15-.89,.11-.28,.22-.55,.43-.77,.12-.13,.23-.28,.32-.44,.06-.12,.13-.16,.26-.17,.21,0,.35-.12,.33-.31-.04-.31,.15-.48,.33-.67,.02-.02,.03-.04,.06-.08-.29-.13-.56-.16-.87-.03-.81,.34-1.67,.52-2.55,.61-.05,0-.11-.02-.13,0-.23,.17-.48,.29-.76,.36-.04,0-.06,.08-.09,.13q-.27-.14-.48-.03c0,.44-.07,.89,.01,1.35,.03,.17-.02,.37-.08,.53-.12,.3-.48,.38-.75,.2-.05-.03-.08-.07-.15-.13-.04,.08-.08,.15-.11,.21-.19,.62-.5,1.18-.85,1.71-.51,.77-.99,1.56-1.44,2.37-.38,.69-.81,1.35-1.45,1.85-.13,.11-.26,.22-.41,.31-.45,.29-.73,.71-.91,1.21-.07,.19-.17,.37-.29,.54-.06,.08-.19,.12-.29,.16-.07,.02-.16,0-.27,0-.05,.24-.09,.47-.14,.7-.04,.19-.08,.38-.12,.57-.01,.08-.04,.17-.02,.23,.08,.25,.02,.49-.05,.73-.08,.26-.14,.53-.22,.79-.02,.08-.07,.16-.13,.22-.19,.21-.28,.21-.48,.02-.08-.07-.13-.15-.26-.15-.05,0-.12-.08-.14-.13-.05-.19-.16-.37-.13-.59,.03-.26-.16-.47-.42-.55-.3-.09-.4-.27-.3-.57,.05-.15,.13-.29,.19-.44,.2-.47,.4-.94,.6-1.41,.07-.17,.18-.32,.26-.48,.12-.24,.24-.49,.35-.74,.19-.44,.39-.87,.57-1.32,.06-.16,.08-.35,.11-.53,.02-.11-.02-.23,.01-.33,.19-.59,.19-1.19,0-1.78q-.19,.05-.4-.14c.33-.32,.74-.45,1.19-.56,.05,.08,.08,.15,.12,.21-.1,.16-.18,.31-.29,.46-.09,.13-.1,.27-.1,.42,0,.29,0,.59-.01,.88,0,.08-.03,.16-.05,.23-.17,.46-.32,.93-.51,1.38-.35,.82-.63,1.66-1.04,2.45-.23,.45-.34,.93-.43,1.43-.02,.11-.04,.22-.06,.33,.25,.15,.45,.36,.6,.6,.09,.14,.07,.35,.11,.56,.02,0,.08,.03,.15,.06,.2-.46,.26-.93,.32-1.4,.04-.39,.09-.79,.16-1.18,.07-.37,.27-.65,.65-.77,.33-.11,.47-.42,.69-.65,.29-.29,.58-.57,.88-.85,.04-.04,.11-.03,.16-.06,.11-.06,.23-.11,.31-.2,.56-.52,.94-1.16,1.26-1.84,.1-.23,.25-.43,.37-.65,.13-.22,.26-.43,.39-.65,.33-.54,.61-1.1,.85-1.68,.14-.35,.18-.75,.26-1.12,.05-.23,.11-.47,.13-.71,.03-.23,.2-.38,.3-.57,.03-.06,.16-.09,.24-.08,.13,0,.2,.1,.22,.23,.03,.25,.18,.44,.35,.64,.1-.39,.1-.77,.11-1.14,0-.11,.02-.22,.02-.34,0-.2,.08-.41-.02-.61-.01-.03-.02-.07-.02-.1-.02-.42-.04-.83-.06-1.25,0-.1-.02-.21-.06-.3-.08-.19-.13-.38-.11-.59,0-.1-.06-.22-.12-.31-.14-.24-.27-.49-.56-.61-.1-.04-.17-.13-.05-.24-.14-.21,.06-.38,.03-.59,.24-.03,.35-.26,.6-.3,.03-.4,.07-.83,.08-1.25,.01-.26,0-.52-.02-.78-.04-.37-.11-.74-.11-1.12,0-.26-.11-.53-.16-.79-.08-.44-.15-.88-.23-1.33,.15-.16,.27-.04,.38,.04,.12,.09,.14,.22,.08,.33-.13,.22-.05,.42-.04,.64,.02,.37,.14,.71,.24,1.06,.25,.85,.36,1.72,.54,2.6,.19,.05,.31,.16,.41,.33,.12,.19,.32,.32,.5,.46,.66,.51,1.38,.94,2.13,1.3,.31,.15,.67,.22,1,.32,.16,.05,.32,.09,.4,.24,.15,.28,.46,.37,.64,.6,.02,.02,.06,.04,.09,.05,.21,.03,.41,.13,.61,.18,.5,.13,.99,.26,1.44,.51,.03,.02,.06,.02,.12,.04,.03-.07,.07-.13,.09-.21,.06-.3,.08-.61,.16-.9,.05-.19,.16-.37,.27-.6-.05-.06-.12-.15-.21-.23-.24-.19-.48-.38-.74-.56-.35-.25-.6-.58-.82-.95-.19-.32-.41-.63-.61-.94-.07-.11-.12-.24-.18-.37-.05-.09-.09-.18-.14-.27-.1-.17-.19-.33-.3-.49-.09-.13-.17-.28-.29-.37-.37-.29-.48-.74-.71-1.11-.02-.03-.02-.07-.02-.1-.02-.57-.27-1.1-.31-1.66,0-.01,0-.02,0-.03,.03-.45,.03-.9,.03-1.35,0-.02,.02-.04,.04-.07,.17,.29,.18,.62,.17,.92-.01,.51,.13,.98,.27,1.46,.02,.08,.07,.16,.06,.23-.07,.49,.18,.87,.47,1.2,.38,.44,.64,.93,.93,1.42,.25,.42,.48,.85,.76,1.25,.25,.36,.55,.69,.86,1,.22,.23,.47,.44,.81,.5,.03,.08,.06,.16,.09,.25,.02,0,.04-.01,.05-.03,.1-.15,.19-.31,.29-.46,.14-.22,.27-.46,.43-.66,.13-.16,.31-.3,.48-.41,.08-.06,.22-.05,.33-.05,.03,0,.06,.08,.11,.13-.27,.13-.42,.36-.61,.55-.33,.34-.53,.76-.79,1.14-.26,.37-.32,.8-.13,1.24,.06,.14,.09,.3,.12,.45,.09,.38,.16,.76,.49,1.03,.05,.04,.07,.11,.1,.17,.05,.14,.09,.28,.13,.38,.14,.02,.26,0,.36,.06,.24,.12,.47,.28,.71,.41,.15,.08,.31,.16,.46,.23,.14,.07,.29,.14,.43,.21,.29,.16,.47,.37,.53,.74,.06,.36,.26,.7,.39,1.05,.04,.1,.09,.21,.12,.31,.08,.29,.92,.78,1.27,.6,.29-.15,.6-.29,.9-.41,.15-.06,.22-.15,.23-.3,0-.07,.04-.15,.12-.22,.01,.07,.04,.14,.04,.21-.04,.42,.13,.77,.36,1.09,.24,.33,.61,.42,1,.42,.34,0,.68,.01,1.02,.02,.06,.18,.02,.28-.14,.31-.1,.02-.2,0-.31,0-.25,0-.5-.02-.78-.03,.01,.39,.15,.73,.23,1.07,.08,.35,.11,.72,.28,1.08,.13-.1,.16-.18,.12-.3-.11-.4-.23-.81-.33-1.21-.03-.13-.03-.26-.04-.4,.18,.03,.2,.15,.23,.27,.07,.29,.14,.58,.22,.86,.03,.12,.09,.23,.13,.35,.19-.14,.25-.29,.18-.5-.05-.16-.09-.33-.14-.49-.04-.14-.08-.29,.01-.42,.29,.23,.15,.66,.39,.93,.06-.01,.11-.03,.14-.03-.03-.17-.07-.32-.08-.48-.02-.15-.1-.3,0-.51,.13,.32,.25,.6,.36,.88,.04,.09,.03,.18-.08,.23-.05,.02-.12,.05-.13,.09-.11,.48-.54,.69-.84,.99-.48,.48-1,.92-1.5,1.39-.17,.16-.38,.32-.29,.61,.01,.04-.04,.12-.08,.13-.04,.02-.12,0-.15-.03-.07-.06-.12-.14-.18-.21-.2-.26-.4-.52-.61-.79-.02,.06-.03,.1-.05,.17-.07-.06-.12-.11-.18-.17-.01,0-.05,.02-.07,.04-.04,.04-.07,.09-.1,.13-.1,.12-.18,.14-.33,.07-.31-.14-.59-.58-.56-.92,.02-.23,.13-.37,.32-.38,.11,0,.23-.02,.36-.04-.02-.33-.15-.63-.29-.92-.27-.59-.56-1.17-.83-1.76-.02-.05-.02-.12-.03-.23,.21,.15,.3,.33,.37,.5,.27,.61,.52,1.24,.77,1.86,.13,.32,.26,.65,.39,.98,.02,.04,.03,.09,.05,.12,.28,.34,.56,.67,.87,1.04,.11-.1,.21-.21,.31-.3,.26-.23,.55-.44,.78-.71,.1-.12,.15-.2,.11-.36-.16-.6-.32-1.21-.47-1.82-.1-.41-.2-.81-.31-1.22-.07-.28-.14-.55-.23-.82-.02-.06-.1-.1-.14-.14-.17,.15-.31,.27-.46,.4,.3,.62,.53,1.28,.71,1.96,.17,.67,.34,1.33,.46,2.03-.05-.03-.12-.06-.14-.1-.08-.23-.16-.45-.21-.68-.2-1.01-.53-1.98-.89-2.94-.05-.14-.12-.18-.26-.1-.05,.25,.12,.44,.17,.66,.08,.34,.21,.66,.31,1,.19,.66,.37,1.31,.55,1.97,.03,.13,.03,.26,0,.4-.2-.41-.28-.84-.42-1.26-.14-.44-.26-.9-.39-1.34-.13-.43-.27-.87-.42-1.33-.16,0-.34,0-.5,0-.07,.13-.06,.25,.03,.3,.3,.16,.39,.45,.49,.73,.16,.48,.34,.97,.47,1.46,.13,.49,.31,.97,.35,1.52-.12-.07-.14-.16-.17-.25-.24-.78-.48-1.57-.72-2.35-.05-.15-.11-.29-.19-.42,.24,.9,.49,1.8,.64,2.72-.02,0-.04,.01-.07,.02-.08-.24-.16-.48-.23-.72-.14-.5-.26-1.01-.41-1.51-.15-.49-.32-.97-.48-1.46-.04-.11-.08-.18-.21-.19-.41-.02-.61-.32-.79-.63-.14-.25-.25-.51-.34-.78-.08-.26-.26-.45-.41-.66-.03-.04-.06-.07-.1-.1-.31-.19-.63-.37-.94-.55-.17-.1-.35-.15-.55-.14-.26,.01-.51-.04-.6-.34-.01-.05-.07-.1-.11-.11-.36-.1-.63-.35-.96-.51-.08-.04-.17-.06-.25-.11-.16-.08-.18-.18-.11-.36,.08-.21,.15-.42,.23-.64-.2-.11-.37-.2-.56-.3-.2,.28-.48,.22-.77,.19-.03,.13-.11,.2-.25,.23-.51,.13-.83,.46-1.05,.93-.1,.21-.27,.4-.43,.56-.06,.06-.21,.03-.34,.04-.06,.11-.21,.19-.14,.37,0,.02-.02,.06-.03,.09-.13,.27-.25,.53-.38,.78,.15,.49,.43,.85,.74,1.2,.18,.2,.4,.37,.59,.55,.2,.19,.34,.4,.22,.7-.07,.16-.01,.27,.09,.41,.21,.27,.43,.53,.71,.73,.13,.09,.25,.19,.43,.17,.12-.01,.21,.07,.22,.18,.02,.17,.14,.23,.25,.31,.23,.15,.46,.3,.7,.44,.17,.1,.31,.18,.35,.42,.03,.19,.18,.37,.3,.53,.27,.35,.56,.69,.83,1.04,.07,.09,.12,.21,.18,.31-.02,.01-.04,.03-.06,.04-.16-.15-.32-.31-.48-.46-.23,.12-.13,.31-.12,.44,.01,.18,.06,.38,.26,.51,.02-.18,.03-.33,.04-.48,.28,.06,.33,.11,.34,.31,.01,.31-.08,.46-.38,.6-.07,.03-.15,.08-.18,.14-.15,.24-.39,.34-.64,.42-.35,.1-.62-.12-.62-.48,0-.09,.02-.18,.03-.29,.06-.03,.13-.06,.21-.1,0-.07,0-.15,0-.23,.1-.05,.18-.1,.32-.17-.48-.27-.95-.44-1.4-.66-.45-.22-.92-.41-1.37-.63-.46-.22-.97-.33-1.42-.6,.1-.1,.2-.09,.3-.05,.63,.26,1.27,.51,1.9,.79,.51,.23,1.01,.48,1.51,.74,.22,.11,.42,.27,.63,.4,.05,.03,.12,.05,.19,.08,.04-.3-.19-.68,.31-.83-.72-.47-1.48-.82-2.16-1.29,.34-.03,.59,.18,.87,.31,.27,.13,.53,.29,.82,.46-.09-.35-.37-.58-.33-.96-.06,.02-.12,.02-.14,.05-.1,.19-.26,.17-.41,.09-.18-.1-.39-.18-.47-.43,.07,0,.12,0,.18-.01,0-.02,0-.05,0-.05-.19-.13-.38-.25-.56-.39-.13-.1-.28-.15-.44-.16-.18,0-.36-.03-.55-.02-.11,0-.21,.04-.34,.07-.1-.11-.21-.23-.33-.35h0Zm-.23-7.27c.12,.34,.54,.35,.68,.65,.2-.1,.39-.2,.6-.3-.1-.15-.18-.27-.27-.4-.22,.07-.36,.03-.52-.17-.16-.21-.3-.5-.62-.54-.02,0-.05-.05-.05-.08-.07-.25-.28-.31-.48-.39-.25-.09-.51-.15-.74-.27-.75-.43-1.5-.86-2.18-1.39-.22-.17-.42-.38-.71-.5-.07,.49-.42,.75-.79,1.08,0-.14-.01-.22-.02-.35-.12,.12-.2,.19-.29,.28,.35,.37,.57,.8,.96,1.1,.2,.16,.29,.35,.2,.63-.19,.63-.18,1.28-.18,1.93,0,.14,.05,.19,.19,.18,.06,0,.12,0,.17-.03,.4-.2,.84-.25,1.28-.31,.3-.04,.6-.14,.9-.22,.43-.12,.85-.26,1.29-.37,.29-.07,.54-.17,.61-.52Zm10.66,6.22s-.04,.03-.06,.05c.32,.9,.42,1.86,.77,2.78,.06-.06,.09-.1,.13-.12,.18-.12,.2-.28,.14-.48-.08-.25-.14-.5-.21-.76-.11-.43-.2-.86-.3-1.29-.17-.07-.31-.12-.46-.18Zm-7.38,5.45c.26,.13,.44,0,.62-.08,.19-.08,.2-.26,.06-.42-.14-.16-.31-.17-.51-.12-.02,.18,.25,.22,.14,.43-.09,0-.2,0-.32,.01,0,.07,.01,.13,.01,.18Zm-2.23-4.51c-.22-.32-.44-.59-.77-.77,.1,.23,.21,.46,.32,.72,.12,.01,.27,.03,.45,.05Zm7.56,2.66c.15-.27,.17-.45,.07-.54-.04-.03-.13,0-.25,0,.06,.19,.11,.33,.18,.54Z"/><path class="cls-2" d="M204.77,22.85c.46,.3,.89,.58,1.31,.87,.42,.29,.83,.6,1.26,.87,.43,.27,.84,.56,1.26,.84-.21,0-.36-.12-.52-.21-.64-.39-1.28-.79-1.91-1.2-.47-.3-.92-.62-1.39-.93-.1-.07-.23-.14-.34-.14-.32,0-.57-.11-.84-.4,.02,.13,.01,.19,.04,.21,.24,.2,.47,.42,.75,.59,.42,.26,.81,.56,1.19,.87,.62,.52,1.22,1.06,1.84,1.58,.24,.2,.53,.36,.83,.56-.19,0-.33-.08-.45-.16-.24-.17-.48-.35-.72-.53-.26-.2-.53-.4-.79-.6-.47-.36-.94-.72-1.43-1.06,.27,.52,.72,.91,1.08,1.36,.36,.47,.77,.9,1.14,1.38-.07-.04-.14-.08-.2-.14-.29-.3-.59-.6-.87-.92-.52-.58-1.02-1.17-1.54-1.75-.07-.08-.16-.16-.28-.27,.06,.73,.53,1.23,.75,1.86-.13-.16-.27-.31-.41-.48-.02,.43,.15,.78,.39,1.11,.31,.43,.62,.85,.93,1.27,.06,.09,.12,.18,.15,.29-.48-.38-.81-.87-1.23-1.39-.05,.28-.11,.48-.12,.69-.01,.23-.02,.45-.18,.64-.06,.07-.08,.19-.11,.28,.15,.35,.32,.69,.43,1.04,.13,.39,.18,.8,.14,1.22-.01,.13-.09,.25-.16,.42,0,.01,.04,.07,.07,.12,.05,.1,0,.19-.09,.22-.11,.04-.18-.04-.18-.15,0-.16,0-.33,.05-.47,.14-.36,.08-.71-.02-1.06-.11-.39-.32-.73-.47-1.09-.11-.26-.2-.48,.08-.7,.06-.05,.09-.16,.1-.25,.02-.26,.05-.53,.01-.78-.1-.69-.22-1.37-.38-2.04-.1-.4-.19-.82-.44-1.17-.03-.05-.06-.1-.07-.15-.1-.27-.14-.28-.39-.13-.35,.21-.71,.42-1.05,.65-.17,.11-.31,.27-.38,.47-.07,.19-.14,.38-.22,.57-.02,.04-.05,.07-.08,.11-.09-.34,.09-.78,.49-1.25-.04-.06-.08-.13-.12-.19,.05-.16,.17-.14,.28-.14,.08,0,.16,0,.23-.03,.39-.22,.77-.45,1.15-.67,.21-.12,.33-.3,.36-.52,.02-.17,.09-.28,.21-.38-.17-.1-.28-.05-.41,.08-.42,.4-.86,.79-1.29,1.17-.06,.06-.15,.09-.24,.12,.18-.3,.46-.5,.72-.73,.26-.24,.49-.5,.76-.77-.08-.05-.13-.08-.18-.1-.29-.14-.37-.4-.19-.66,.15-.22,.33-.43,.49-.63,.27-.03,.43,.08,.49,.33,.18-.15,.33-.29,.45-.39-.1-.07-.19-.14-.29-.22,.04-.21,.07-.38,.09-.54,.02-.18,.04-.35-.15-.48-.18-.11-.22-.31-.25-.5-.02-.12-.02-.24-.03-.4-.32,.14-.49,.47-.83,.58,.18,.15,.19,.3,.14,.53-.06,.25-.06,.54,.17,.74-.03,.11-.06,.22-.1,.37-.37,0-.74,.16-1.15,0,.02-.19,.08-.37,.05-.53-.03-.17-.06-.32-.04-.57,.08,.09,.13,.15,.21,.23,.13-.28,.3-.37,.56-.2,.05-.1,.09-.18,.15-.28-.05-.02-.08-.05-.11-.04-.07,0-.13,.04-.2,.05-.25,.06-.48,.21-.76,.18-.08,0-.19,.06-.26,.13-.11,.1-.19,.22-.29,.34,.03,.09,.05,.19,.09,.28,.06,.14,.1,.28,.28,.32,.02,0,.04,.02,.06,.03,.29,.19,.35,.38,.23,.73-.15,.06-.31,.13-.46,.2,.01,.17,.03,.32,.03,.42,.22,.21,.42,.4,.63,.6,.26-.12,.35-.46,.63-.63,.05,.01,.11,.03,.2,.06-.15,.15-.27,.29-.4,.41-.26,.25-.56,.48-.79,.75-.2,.23-.32,.52-.49,.77-.23,.34-.46,.68-.72,1.01-.02-.23,.17-.37,.26-.54,.1-.18,.19-.36,.29-.54,.11-.19,.22-.37,.34-.55-.33-.17-.37-.16-.57,.11-.19,.25-.4,.49-.61,.71,.12-.4,.42-.69,.6-.97,0-.22,0-.38,.02-.52,.04-.2,.06-.4,.02-.61-.04-.19-.03-.38-.04-.57-.09-.04-.17-.07-.23-.11-.1-.06-.19-.12-.17-.27,0-.05-.07-.11-.15-.22,.08,.45,.15,.83,.22,1.22-.04-.05-.08-.09-.11-.13-.04-.06-.08-.11-.1-.18-.1-.27-.2-.53-.28-.81-.03-.11-.01-.29,.06-.34,.2-.16,.3-.37,.4-.58,.03-.07,.09-.13,.15-.21-.13-.06-.24-.12-.32-.16,0-.34,.3-.47,.35-.72-.03-.13-.27-.16-.21-.35-.23-.17-.21-.56-.58-.6,.08-.31,.08-.62,.35-.76-.04-.42-.07-.82-.1-1.22-.15-.14-.32-.29-.51-.48,.18-.15,.32-.28,.48-.4,.12-.09,.26-.15,.38-.23,.28-.18,.53-.1,.82,.02-.06,.21-.06,.41-.2,.56-.02,.02-.04,.06-.03,.09,.03,.16,.06,.33,.09,.51,.08-.02,.18-.05,.29-.08,.08,.08,.21,.15,.25,.26,.05,.15,.15,.34-.04,.49-.02,.02-.04,.06-.04,.09-.13,.54-.36,1.06-.37,1.63,0,.11-.03,.22-.04,.34,.24,.16,.34,.14,.48-.1,.13-.23,.29-.45,.35-.72,.03-.14,.13-.3,.35-.28,.05-.42,.19-.81,.14-1.26,.08-.09,.17-.24,.29-.29,.12-.04,.28,.03,.44,.06,0-.14,.03-.26,.02-.39-.01-.19-.09-.24-.27-.2-.27,.06-.47,.22-.63,.44-.07,.09-.11,.2-.19,.28-.04,.05-.12,.07-.21,.08,.07-.31,.19-.59,.46-.77,.3-.21,.6-.49,1.02-.31,.27,.4,.12,.84,.09,1.25-.03,.42-.21,.83-.34,1.27,.19,.15,.58-.09,.69,.28,.18,0,.35,0,.51,0,.11-.1,.1-.23,.06-.33-.06-.15-.02-.27,.08-.37,.08-.08,.19-.08,.4-.03,.06-.09,.13-.2,.21-.33,.03,.06,.08,.11,.07,.14-.05,.33-.12,.67-.18,1-.05,.28-.09,.55-.14,.85,.27,.2,.29,.34,.09,.66-.08,.12-.15,.24-.2,.4,.05-.05,.1-.1,.16-.14,.05-.05,.1-.1,.16-.16,.05,.14,0,.25-.08,.35-.14,.19-.28,.39-.44,.57-.15,.18-.32,.35-.48,.53,.06,.22,.13,.44,.2,.69,.13,.03,.3,.07,.51,.12,0-.07,0-.14,0-.22,0-.18,.14-.27,.3-.2,.27,.13,.54,.26,.81,.39,.03-.06,.04-.2,.1-.22,.12-.05,.28-.07,.39-.03,.43,.13,.62,.41,.6,.87,0,.12,.03,.2,.12,.27,.23,.2,.46,.37,.76,.46,.06,.02,.12,.05,.2,.09-.08,.1-.17,.08-.25,.07-.34-.06-.6-.28-.86-.48-.09-.07-.17-.11-.29-.12-.31-.02-.57-.15-.7-.48-.35,.08-.44,.42-.72,.61,1.09,.77,2.21,1.42,3.46,2-.13,.02-.19,.04-.23,.03-.65-.25-1.29-.54-1.88-.91-.4-.26-.82-.5-1.22-.76-.18-.11-.35-.24-.53-.37-.06,.07-.15,.16-.25,.29Zm-3.85-5.53c.13-.02,.27-.05,.41-.07,.04-.29,.18-.53,.12-.81-.15,0-.29,0-.42,.02-.17,.01-.2,0-.19-.18,.01-.27,.04-.54,.06-.82-.25,.14-.3,.18-.31,.33-.03,.27-.05,.53-.07,.79,.12,.06,.23,.11,.36,.18-.11,.04-.19,.06-.28,.09-.01,.12-.03,.23-.04,.35,.18-.01,.3-.15,.47-.04-.04,.06-.07,.12-.1,.17-.1,.04-.21,.08-.31,.14-.09,.05-.07,.14-.02,.21,.06,.08,.16,.06,.2-.01,.06-.1,.08-.22,.12-.34Zm2.35-1.1c-.24,.06-.24,.06-.28,.19-.05,.2-.09,.4-.15,.59-.11,.39-.23,.78-.35,1.17,0,0-.03,0-.08,.01,.07-.31,.17-.61,.07-.97-.26,.53-.29,1.08-.58,1.55-.04-.08-.07-.13-.09-.18-.02,0-.03,0-.05,.01,0,.09-.01,.19-.02,.28,.21,.07,.29-.1,.4-.17,.24-.15,.46-.32,.53-.63,.04-.16,.1-.32,.17-.48,.21-.43,.41-.87,.43-1.37Zm.75,6.16c.08,.26,.28,.24,.41,.2,.24-.06,.42-.22,.44-.51-.1-.07-.18-.18-.32-.08-.18,.13-.35,.26-.53,.39Zm.43-3.76c.24-.02,.32-.19,.4-.35,.07-.14-.02-.25-.18-.23-.11,.01-.22,.04-.35,.06-.09,.18-.03,.35,.13,.52Zm-3.8-3.58c.14-.16,.41-.23,.46-.5-.33,.04-.59,.18-.82,.43,.1,.02,.21,.04,.36,.07Zm.98,7.12c.01,.08,.02,.13,.03,.18,.17-.01,.17-.14,.21-.23-.12-.17-.22-.33-.48-.27-.02,.1-.04,.21-.06,.31,.11,0,.2,0,.3,0Zm.2-1.62c-.09-.07-.15-.11-.21-.16-.1-.08-.21-.1-.31-.03-.11,.07-.1,.18-.05,.31,.18-.04,.38,.09,.58-.12Zm-.39-1.88c-.08-.02-.14-.04-.21-.04-.15,0-.24,.11-.23,.27,0,.1,.06,.17,.16,.19,.11,.03,.18-.02,.21-.12,.03-.09,.05-.19,.07-.3Zm-.19-1.08c-.33,.35-.33,.5,0,.68,0-.24,0-.45,0-.68Zm4.21,3.87c-.04,.2-.19,.36,0,.55,.3-.17,.3-.22,0-.55Zm-2-3.57c-.29-.07-.39,0-.41,.3,.21,0,.32-.14,.41-.3Zm-.59,1.97c-.04-.12-.06-.18-.08-.25-.12,.1-.31,.07-.33,.28,.15,.13,.25-.04,.41-.02Zm-1.95,.22c.13-.08,.23-.15,.35-.22-.07-.1-.11-.16-.17-.24-.09,.14-.2,.25-.18,.46Zm2.55,.82c.2,.02,.25-.08,.29-.24-.22-.04-.24,.1-.29,.24Z"/><path class="cls-2" d="M191.8,30.99c-.06,.11-.13,.21-.19,.33-.3-.06-.54,.06-.8,.17-.41,.19-.54,.15-.81-.15-.18-.19-.38-.37-.55-.56-.2-.22-.39-.37-.72-.37-.38,0-.75-.03-1.13,.04-.19,.03-.3,.13-.3,.31,0,.2,0,.41,.02,.61,.02,.31,.04,.61,.07,.92,.03,.28-.14,.45-.34,.58-.19,.13-.39,.24-.6,.33-.16,.07-.32,.16-.52,.14-.19-.02-.31,.1-.38,.28-.14,.32-.15,.65-.08,.97,.07,.29,.05,.56-.09,.82-.18,.34-.14,.66,.08,.98,.27,.41,.6,.75,1.03,.99,.17,.09,.35,.17,.53,.23,.27,.09,.51,.21,.7,.41,.22,.24,.51,.38,.8,.51,.66,.31,1.33,.52,2.08,.5,.39-.01,.77,.12,1.11,.31,.18,.1,.36,.14,.56,.13,.51-.03,1.03-.02,1.53-.08,.34-.04,.69-.16,1-.32-.05-.5,.04-.61,.37-.52-.07,.1-.15,.2-.23,.32,.1,.06,.16,.1,.23,.14,.16-.1,.32-.19,.5-.3,.16,.34,.63,.43,.66,.85,.03,0,.06,.02,.07,.02,.35-.14,.39-.27,.16-.58-.11-.14-.24-.27-.36-.41-.05-.05-.05-.05-.01-.21,.26,.03,.43,.16,.51,.42,.03,.12,.12,.22,.17,.34,.14,.32,.11,.45-.14,.68,.16,.11,.3,.02,.45,0,0-.06,.02-.09,0-.12-.05-.25-.1-.51-.17-.75-.02-.09-.1-.17-.16-.24-.11-.14-.11-.18,.04-.35,.35,.42,.51,.91,.62,1.45,.24,0,.48,.01,.73,.02,.04,.09,.02,.15-.09,.16-.13,.01-.26,.03-.4,.05,.06,.15,.11,.27,.17,.41,.18-.03,.36-.07,.56-.1-.02-.11-.04-.22-.06-.31,.17-.2,.32-.37,.49-.57-.26-.13-.47-.31-.32-.69,.07-.05,.2-.09,.24-.27,.05-.21,.26-.22,.47-.19,.08-.16,.12-.31,.02-.48-.1-.16-.11-.33,.03-.47,.15-.15,.35-.22,.56-.16,.4,.12,.51,.31,.41,.72-.06,.26-.22,.46-.4,.62-.14,.12-.33,.23-.55,.02-.01,.15-.02,.25-.03,.37,.25,.05,.43,.16,.51,.4,.03,.11,.14,.1,.23,.09,.22-.02,.43-.06,.65-.07,.26-.01,.52,0,.78,0,.02,.14-.05,.15-.16,.15-.51,.01-1,.2-1.48,.24-.11,.25-.21,.46-.31,.7,.16,.14,.07,.44,.4,.53-.48,.32-1,.31-1.5,.45-.03,.1-.05,.21-.08,.31-.09,.33-.27,.38-.51,.15-.1-.09-.19-.19-.29-.28-.07,.05-.13,.12-.2,.14-.06,.02-.14,.02-.19-.02-.13-.09-.28-.19-.35-.32-.1-.18-.28-.29-.34-.51-.04-.15-.06-.28,.08-.36,.17-.09,.2-.23,.22-.4-.11,0-.23-.03-.34-.03-.1,0-.15-.02-.22-.11-.1-.14-.21-.11-.32,.03-.06,.08-.13,.16-.21,.2-.25,.12-.37,.04-.44-.23-.06-.21-.03-.4,.11-.58,.09-.11,.15-.24,.18-.4-.04,.02-.09,.04-.13,.07-.09,.07-.17,.16-.31,.11-.03-.01-.09,0-.12,.04-.23,.24-.56,.31-.85,.43-.18,.08-.4,.04-.61,.06-.33,.02-.66,.04-.99,.05-.46,.02-.9-.03-1.33-.22-.23-.1-.5-.12-.78-.15,.23,.12,.37,.26,.25,.54-.08,.05-.18,.11-.28,.16-.16,.08-.29,.2-.35,.36-.07,.18-.17,.26-.37,.22-.16-.03-.31,.03-.46,.1-.45,.21-.78,.56-1.09,.92-.29,.34-.56,.69-.81,1.06-.14,.2-.21,.45-.31,.68-.06,.14-.14,.28-.22,.46-.12-.07-.22-.12-.33-.18,.05-.13,.08-.24,.13-.33,.43-.71,.87-1.42,1.43-2.04,.25-.27,.53-.5,.82-.72,.11-.08,.24-.14,.37-.18,.35-.1,.62-.32,.85-.58-.1-.16-.2-.32-.29-.46-.48-.2-.95-.44-1.45-.6-.5-.15-.84-.54-1.3-.75-.08-.04-.16-.08-.24-.11-.38-.13-.73-.32-1-.63-.24-.28-.47-.56-.7-.84-.06-.08-.12-.17-.17-.26-.09-.16-.11-.31-.03-.49,.07-.15,.11-.33,.19-.48,.1-.2,.11-.4,.03-.6-.11-.24-.11-.48-.05-.73,.05-.22,.1-.44,.18-.66,.11-.3,.34-.42,.67-.4,.13,0,.27-.03,.4-.07,.17-.06,.32-.17,.49-.24,.17-.07,.23-.19,.21-.35-.02-.27,.04-.54-.1-.8-.05-.1-.03-.24-.04-.37,0-.19,0-.38-.01-.57-.01-.2,.07-.29,.28-.4,.34-.18,.69-.12,1.04-.1,.29,.02,.6,0,.83,.24,.41,0,.61,.31,.84,.58,.12,.14,.27,.25,.38,.39,.13,.16,.3,.16,.43,.08,.23-.14,.53-.14,.72-.37,.03-.04,.13-.04,.19-.02,.08,.03,.15,.09,.23,.14h0Zm6.47,10.48c-.1-.04-.2-.08-.3-.13,.36-.27,.37-.29,.25-.7-.13,.01-.27,.04-.4,.03-.12,0-.21,.04-.26,.13-.12,.22-.34,.32-.58,.44,.12,.11,.23,.2,.31,.28,.23-.1,.15-.39,.42-.46,0,.12,.01,.22,.02,.35,.11,.12,.24,.24,.39,.4,.06-.14,.1-.23,.14-.34Zm1.37-3.16c.14-.1,.21-.15,.28-.2,.14-.1,.14-.25,.13-.4-.01-.12-.11-.18-.25-.17-.12,.01-.21,.1-.16,.2,.08,.17,.03,.32,0,.57Zm-.25,.99c-.15,.11-.24,.18-.33,.26,.09,.02,.18,.04,.31,.07-.09,.09-.14,.14-.2,.2,.02,.04,.03,.07,.05,.09,.03,.05,.06,.09,.09,.14,.14-.14,.22-.31,.2-.48,0-.09-.07-.17-.12-.27Zm-.55,1.74c-.1-.19-.18-.35-.26-.51-.22,.06-.14,.19-.13,.29,.02,.12,0,.25,.09,.35,.09-.04,.17-.08,.29-.14Zm.39,.02c.19-.14,.2-.16,.18-.24-.06-.17-.21-.25-.41-.23,.07,.15,.15,.3,.23,.47Zm-3.63-1.47s-.05,.02-.08,.04c.01,.1,.03,.19,.05,.35,.1-.09,.16-.13,.22-.19-.07-.07-.13-.14-.19-.2Zm3.43-.67q.14-.13,.04-.32c-.07,.1-.15,.18-.04,.32Zm-1.72,1.53c-.09-.07-.16-.11-.25-.18q.01,.23,.25,.18Z"/><path class="cls-2" d="M228.56,45.35c.13,.09,.27,.16,.39,.25,.08,.06,.12,.18,.03,.23-.26,.14-.2,.4-.22,.6-.09,.66-.14,1.33-.2,2-.01,.13,0,.27,.03,.4,.03,.16,.02,.31,0,.52-.08-.08-.12-.12-.17-.17,0,.01-.02,.03-.02,.04,.04,.5,.21,.97,.39,1.44,.21,.54,.46,1.06,.74,1.57,.1,.18,.19,.37,.04,.59,.09,.08,.19,.15,.27,.25,.03,.04,.05,.14,.03,.18-.02,.04-.13,.06-.17,.04-.09-.04-.17-.11-.24-.18-.43-.45-.86-.91-1.27-1.37-.11-.12-.22-.15-.36-.16-.34-.03-.47-.1-.72-.29-.02-.14,.05-.2,.17-.18,.29,.05,.59,.09,.87,.17,.11,.03,.23,.13,.29,.23,.19,.32,.48,.57,.72,.86,.01,.01,.04,.02,.11,.04-.1-.21-.18-.39-.26-.56-.03-.06-.1-.12-.09-.18,.03-.24-.14-.39-.24-.58-.29-.55-.45-1.14-.55-1.75-.03-.16-.05-.32-.08-.47-.02-.11-.03-.21,.01-.33,.04-.12,0-.27,.02-.4,.08-.47,.15-.94,.25-1.41,.05-.21,.06-.34-.13-.51-.23-.21-.38-.5-.45-.82-.03-.16-.06-.31-.08-.47-.06-.52-.21-1.02-.39-1.52-.02-.04-.04-.08-.04-.13-.04-.44-.24-.83-.44-1.21-.07-.13-.1-.28-.15-.42-.04-.1-.11-.2,.04-.3,.03-.02,.02-.13,.01-.19-.03-.29-.03-.6-.1-.88-.08-.32-.21-.62-.33-.93-.17-.45-.39-.89-.49-1.37-.03-.14-.13-.21-.22-.29-.26-.23-.26-.27,0-.52-.2-.26-.39-.52-.61-.77-.18-.21-.29-.46-.38-.72-.09-.28-.3-.48-.5-.68-.15-.15-.2-.29-.19-.48,.01-.22,.03-.45,.04-.68-.1-.02-.21-.04-.32-.07-.03,0-.06-.03-.08-.04-.03-.14,.02-.22,.14-.25,.2-.05,.4-.08,.62-.12,.07,.24,.09,.47,.05,.68-.07,.37,0,.67,.31,.91,.07,.05,.1,.15,.14,.23,.13,.29,.29,.57,.47,.83,.16,.23,.3,.48,.41,.74,.08,.19,.21,.35,.36,.48,.17,.16,.2,.29,.03,.48,.3,.35,.6,.69,.91,1.04,0,.19-.17,.1-.31,.14,.07,.11,.12,.22,.19,.32,.09,.12,.17,.21,.06,.36-.03,.05-.03,.13-.01,.2,.09,.31,.21,.62,.28,.94,.04,.15,.11,.31,.01,.48-.02,.04,0,.13,.03,.19,.11,.27,.23,.54,.36,.8,.03,.07,.1,.12,.15,.18,.54,.49,1.15,.89,1.78,1.27,.83,.51,1.65,1.03,2.48,1.53,.44,.27,.91,.49,1.34,.76,.51,.33,1.07,.56,1.6,.85,.36,.2,.73,.38,1.09,.57,.07,.04,.16,.08,.23,.07,.23-.04,.32,.1,.43,.26,.11,.16,.24,.32,.43,.43,.2,.11,.27,.33,.3,.55,0,.07-.04,.16-.09,.21-.17,.18-.47,.21-.69,.08-.07-.04-.13-.09-.2-.13-.15-.1-.31-.17-.49-.22-.36-.11-.71-.26-1.04-.42-.53-.25-1.06-.52-1.59-.8-.57-.3-1.11-.63-1.69-.9-.46-.21-.89-.48-1.38-.64-.32-.11-.64-.25-.95-.39-.21-.1-.44-.11-.66-.13-.01,0-.03,.03-.06,.07Zm-.38-.59c.29-.07,.54,0,.77,.14,.15,.1,.31,.13,.49,.12,.11,0,.24,.02,.32,.08,.29,.22,.6,.39,.92,.58,.65,.38,1.35,.66,2,1.04,.78,.45,1.61,.82,2.41,1.22,.3,.15,.6,.28,.95,.24,.07,0,.16,.03,.23,.06,.13,.05,.25,.12,.37,.18,.11,.06,.19,.02,.26-.06-.1-.15-.19-.3-.29-.44-.18,.03-.34,.02-.51-.09-.27-.19-.55-.37-.84-.53-.29-.16-.6-.29-.89-.45-.36-.2-.7-.42-1.06-.63-.55-.32-1.1-.63-1.64-.96-.31-.19-.61-.4-.92-.59-.33-.2-.68-.37-1.01-.57-.5-.3-.98-.62-1.48-.92-.18-.11-.38-.2-.6-.32,.02,.24,.13,.4,.23,.56,.09,.13,.12,.26,.11,.41,0,.32,.07,.63,.17,.95Z"/><path class="cls-2" d="M217.82,18.5c-.49,.09-.99,.18-1.47,.27-.15-.31-.11-.42,.18-.42,.29,0,.58-.08,.89-.02,.15,.03,.34-.1,.51-.16,.09-.03,.17-.05,.26-.07,.18-.02,.36-.04,.54-.06,.41-.05,.77-.28,1.16-.39,.38-.1,.72-.27,1.07-.43,.37-.17,.75-.31,1.09-.56,.14-.1,.3-.17,.45-.25,.29-.14,.41-.13,.64,.1,.35,.36,.79,.52,1.27,.62,.1,.02,.22,.04,.28,.11,.26,.31,.64,.4,.98,.54,.5,.21,1.02,.38,1.53,.58,.41,.16,.81,.37,1.23,.5,.41,.13,.8,.34,1.25,.32,.03,.06,.03,.14,.07,.16,.32,.14,.23,.49,.37,.72-.07,.32,.1,.6,.13,.9,.06,.55,.27,1.05,.52,1.54,.18,.34,.34,.69,.49,1.04,.07,.18,.1,.37,.13,.56,.02,.17-.11,.25-.27,.18-.05-.02-.12-.05-.14-.09-.16-.31-.47-.46-.72-.67-.46-.37-.92-.74-1.34-1.17-.15-.15-.32-.29-.47-.42-.36,.02-.7,.06-1.04,.05-.33-.01-.57,.11-.77,.35-.38,.46-.86,.81-1.35,1.15-.5,.34-1,.68-1.53,.96-.42,.22-.83,.46-1.32,.52-.05,0-.1,.05-.15,.08-.05,.03-.1,.09-.14,.09-.24-.02-.41,.16-.63,.2-.21,.03-.42,.12-.62,.18-.11,.03-.21,.08-.32,.12-.17,.05-.31,.02-.4-.16,.12-.17,.31-.2,.47-.27,.1-.04,.2-.05,.3-.06,.26-.04,.51-.1,.75-.23,.28-.15,.6-.23,.89-.35,.72-.29,1.42-.63,2.1-1.01,.54-.31,1.03-.69,1.47-1.12,.29-.29,.56-.59,.83-.89,.09-.1,.19-.13,.31-.11,.21,.02,.43,.05,.7,.09-.37-.38-.67-.74-1.11-.95-.18-.09-.38-.15-.57-.24-.58-.27-1.15-.55-1.73-.83-.05-.02-.11-.06-.13-.11-.14-.32-.44-.34-.71-.38-.32-.05-.65-.04-.98,0-.32,.05-.65,.06-.98,.06-.51,0-1.02-.01-1.53-.05-.41-.03-.81-.1-1.22-.17-.26-.04-.52-.09-.77-.16-.15-.04-.29-.12-.43-.18,0-.02,0-.04,0-.05Zm12.77,4.8c-.08-.23-.14-.41-.2-.59-.14-.4-.28-.79-.42-1.19-.16-.47-.21-.97-.41-1.43-.1-.24-.24-.41-.45-.51-.47-.21-.95-.38-1.43-.57-.63-.26-1.27-.51-1.86-.86-.36-.21-.75-.38-1.13-.56-.46-.22-.93-.42-1.39-.65-.2-.1-.39-.16-.62-.09-.34,.12-.69,.23-1.02,.38-.58,.27-1.17,.5-1.76,.74-.21,.09-.43,.15-.65,.21-.32,.09-.64,.18-.98,.27,.11,.04,.2,.1,.29,.12,.34,.08,.69,.18,1.04,.2,.69,.04,1.38,.16,2.08,.1,.4-.03,.8-.03,1.19-.04,.2,0,.42,.04,.61,0,.37-.08,.7,.06,1.04,.13,.21,.04,.39,.14,.57,.28,.3,.24,.64,.44,.98,.62,.24,.12,.49,.25,.78,.2,.17-.03,.31,.03,.43,.14,.19,.18,.37,.37,.55,.56,.34,.38,.65,.78,1.04,1.12,.5,.42,.96,.88,1.49,1.25,.06,.04,.13,.08,.23,.15Z"/><path class="cls-2" d="M195.36,45.16c.13,.08,.24,.17,.36,.23,.12,.06,.24,.1,.39,.16,.58-.72,.93-1.6,1.49-2.35,.04,.23-.13,.39-.2,.58-.08,.19-.18,.37-.31,.61,.22-.1,.28-.27,.37-.39,.1-.13,.2-.27,.33-.43,0,.43-.18,.76-.36,1.07-.3,.54-.66,1.04-.99,1.56-.05,.07-.07,.18-.24,.12,.05-.1,.09-.19,.14-.29,.05-.09,.09-.19,.14-.27,.06-.08,.16-.15,.03-.32-.12,.36-.36,.53-.65,.66-.21-.2-.17-.57-.52-.66-.04,.05-.08,.1-.13,.14-.54,.39-.97,.9-1.33,1.45-.23,.34-.23,.34-.26,.91,0,.03,.02,.08,0,.1-.14,.28,.02,.5,.14,.73,.02,.03,.03,.06,.05,.09,.28,.4,.24,.81,.07,1.23-.13,.31-.21,.63-.11,.96,.07,.22,.17,.42,.39,.53,.21,.11,.4,.26,.61,.37,.07,.04,.17,.04,.26,.04,.49,0,.9-.23,1.28-.51,.4-.3,.8-.61,1.2-.91,.05-.04,.11-.08,.17-.1,.21-.07,.28-.03,.36,.18,.02,.04,.03,.08,.05,.15,.25-.17,.37-.51,.76-.45,.07,.07,.16,.17,.28,.29,.08-.07,.16-.14,.23-.21,.25-.25,.5-.5,.74-.76,.08-.09,.18-.14,.34-.09-.02,.07-.01,.15-.05,.21-.06,.09-.15,.17-.23,.25-.19,.22-.38,.45-.57,.68-.04,.05-.08,.11-.13,.16-.2,.22-.43,.22-.65,0-.03-.03-.06-.07-.08-.1-.18-.05-.26,.07-.33,.19-.12,.2-.28,.35-.49,.45-.2-.11-.21-.32-.26-.49-.11-.06-.18-.02-.26,.05-.34,.29-.67,.59-1.02,.86-.2,.15-.42,.28-.64,.39-.27,.13-.55,.22-.83,.32-.23,.09-.36,.05-.5-.17-.1-.15-.22-.24-.37-.33-.36-.22-.68-.49-.82-.92-.11-.36-.03-.68,.17-.97,.26-.37,.23-.74,.03-1.12-.1-.2-.2-.41-.3-.61-.1-.21-.08-.33,.08-.49,.05-.05,.11-.08,.18-.14-.26-.18-.17-.35-.04-.55,.25-.35,.47-.72,.75-1.15-.21,.07-.36,.1-.49,.16-.52,.22-1.06,.33-1.62,.37-.28,.02-.57,.07-.85,.06-.21,0-.43-.08-.63-.15-.18-.06-.2-.19-.1-.46-.54-.02-1.07-.05-1.61-.05-.43,0-.84-.05-1.26-.14-.23-.05-.41-.2-.57-.36-.21-.22-.44-.39-.72-.51-.1-.04-.17-.14-.25-.23-.03-.03-.03-.09-.03-.13,.03-.24,.35-.54,.59-.54,.05,0,.1,.04,.18,.08-.06,.17-.12,.32-.19,.5,.26,.23,.52,.47,.79,.69,.08,.06,.18,.1,.27,.14,.45,.16,.92,.17,1.39,.16,.6-.01,1.21-.04,1.81-.06,.3,0,.35,.04,.43,.34-.09,.08-.18,.18-.28,.27,.1,.15,.24,.09,.35,.09,.38-.02,.75-.05,1.12-.09,.41-.04,.76-.24,1.14-.36,.49-.16,.95-.39,1.4-.63,.11-.06,.23-.09,.38-.14Z"/><path class="cls-2" d="M201.67,35.2c.03,.43,.28,.7,.61,.9,.35,.22,.4,.34,.29,.75-.03,.13-.04,.27-.06,.4-.02,.14-.02,.27-.1,.41-.11,.19-.03,.4,.13,.58-.16,.07-.14,.19-.11,.32,.06,.25,.09,.51,.05,.78-.02,.14,.03,.28,.04,.43,.03,.43,.17,.82,.4,1.18,.19,.29,.23,.37,.6,.31,.26-.04,.53,.02,.77-.12,.04-.03,.14,.04,.24,.07,.36-.49,.58-1.02,.64-1.62,.24,0,.3,.03,.28,.21-.04,.26-.07,.53-.17,.76-.15,.33-.35,.64-.55,.94-.09,.15-.25,.2-.42,.14-.29-.1-.58-.06-.87,0-.2,.04-.35,0-.51-.12-.29-.22-.46-.53-.61-.85-.2-.45-.16-.93-.2-1.4-.02-.18-.03-.35-.05-.53-.21-.05-.34-.01-.47,.14-.25,.3-.36,.3-.76,.11-.09-.24-.04-.58-.49-.61l.07-.08c.13-.05,.28-.07,.39-.14,.12-.08,.2-.21,.32-.35-.18-.05-.35-.1-.53-.15-.11-.03-.19-.08-.21-.2-.03-.15-.07-.29-.08-.44-.02-.21-.09-.4-.3-.54-.22,.1-.45,.23-.69,.3-.33,.1-.66-.11-.81-.46-.01-.03-.02-.06-.03-.1-.05-.26,.03-.34,.35-.33,0,.13-.01,.27-.02,.4,.11,.11,.19,.26,.38,.24,.06-.16,.12-.32,.19-.52-.04-.03-.1-.09-.17-.15-.04-.03-.12-.04-.14-.08-.12-.2-.3-.25-.53-.24-.08,0-.16-.1-.25-.17-.04,.13-.05,.27-.11,.39-.06,.12-.17,.22-.25,.32-.11,.13-.24,.21-.41,.2-.13,0-.22-.08-.27-.18-.03-.06-.02-.13-.04-.21,.39,.06,.62-.06,.75-.36,.11-.24-.05-.38-.23-.53-.24,.23-.51,.27-.77,0,.04-.2,.08-.41,.13-.65,.26-.2,.37,.09,.54,.22,.13-.1,.14-.23,.08-.34-.11-.21-.19-.48-.51-.48-.07,.11,.11,.21-.02,.31-.12,.1-.21,0-.33,.02,0-.2,0-.36,0-.53,.23-.07,.43-.03,.66,.06,.02-.16,.03-.3,.05-.46,.33-.03,.49,.24,.69,.41,.21,.18,.37,.42,.39,.7,.02,.28-.01,.57-.02,.87,.21,.12,.44,.2,.72,.11,.19-.06,.41-.04,.61-.03,.31,.02,.5,.36,.42,.73,.24,0,.47-.01,.6-.26,.05,.03,.09,.05,.13,.07,.02-.02,.05-.03,.06-.05,.25-.54,.07-.79-.47-.84-.1,0-.2-.03-.32-.04-.01-.12,.06-.2,.17-.2,.36,0,.71,.02,.93,.38,.04,.07,.14,.11,.22,.17Zm-1.12,1.88c.03,.09,.05,.2,.07,.2,.18,0,.26,.16,.39,.22,.32,.14,.65,.25,1,.38,.03-.17,.05-.31,.07-.48-.21-.14-.41-.28-.63-.42-.26,.23-.57,0-.91,.1Zm-2.72-3.59c0,.13,0,.22,.02,.3,.02,.11,.05,.22,.08,.33,.05,.23,.16,.39,.46,.42,0-.12,.02-.24-.02-.33-.1-.27-.22-.53-.53-.72Zm1.88,2.67c.22,.02,.32-.12,.42-.26,.07-.11,.04-.2-.05-.27-.17-.11-.35-.19-.55-.09,.06,.21,.12,.4,.18,.62Zm1.96,.7c.16,.14,.3,.22,.49,.27,.03-.22,.14-.42-.05-.65-.14,.13-.27,.24-.43,.38Zm.1-.43c-.18-.17-.32-.08-.48-.09,.02,.11,.04,.19,.06,.32,.15-.08,.27-.15,.42-.23Zm-.34,2.2c-.15-.03-.26-.06-.4-.09q.2,.31,.4,.09Zm.49-.46s-.05,0-.08,0c-.02,.09-.14,.18,.03,.26,.02,.01,.06,0,.11,0-.02-.1-.04-.18-.06-.26Z"/><path class="cls-2" d="M216.21,16.22c-.17-.17-.23-.38-.19-.62,.02-.15,0-.32,0-.47-.02-.19-.08-.35-.3-.42-.07-.02-.12-.1-.18-.15-.11-.1-.09-.2-.01-.31,.01-.02,.03-.04,.04-.05,.1-.13,.29-.27,.29-.4,0-.21-.1-.43-.19-.63-.04-.09-.09-.17-.08-.28,0-.17-.07-.29-.2-.41-.5-.49-1.14-.68-1.79-.84-.17-.04-.32,.03-.45,.13-.37,.3-.74,.6-1.13,.93-.02-.07-.04-.15-.06-.23-.05,0-.11,0-.16,.03-.36,.16-.74,.3-1.06,.55-.22,.17-.47,.32-.72,.46-.37,.2-.67,.49-1.01,.74-.47,.35-.93,.71-1.42,1.03-.37,.24-.72,.51-1.14,.66-.22,.08-.38,.3-.58,.48,.16,.08,.29,.02,.42,0,.47-.08,.57,0,.49,.47-.03,.21-.11,.42-.2,.61-.15,.32-.44,.36-.69,.1-.15-.16-.29-.34-.47-.55,.1-.06,.2-.11,.3-.16,.17,.18,.33,.35,.48,.51,.26-.11,.28-.31,.3-.54-.09,0-.17-.01-.24-.01-.21,0-.42,.02-.6-.1-.07-.05-.15-.11-.2-.18-.04-.08-.05-.16-.15-.21-.04-.02-.07-.1-.06-.15,.06-.25-.07-.47-.13-.7-.02-.08-.05-.16-.04-.23,0-.06,.04-.16,.08-.17,.15-.03,.27-.18,.45-.13,.13,.04,.22-.02,.27-.15,.02-.06,.08-.12,.13-.16,.5-.44,.53-1.04,.55-1.63,.02-.61-.16-1.19-.25-1.79-.07-.49-.13-.99-.2-1.48-.01-.09-.02-.19-.06-.27-.1-.2-.14-.36,.08-.53,.13-.1,.05-.3,0-.45-.34-.22-.69-.38-1-.65-.36-.32-.53-.73-.76-1.12-.21-.35-.38-.72-.57-1.08-.08-.15-.08-.23,.02-.29,.12-.09,.25-.06,.33,.1,.09,.18,.17,.37,.25,.56,.27,.64,.54,1.28,1.12,1.73,.14,.11,.31,.2,.48,.26,.35,.14,.45,.28,.45,.67,0,.07,0,.14,.02,.2,.07,.51,.14,1.02,.2,1.52,.04,.29,.05,.59,.08,.88,.06,.65,.12,1.3,.18,1.96,.02,.16,.04,.31,.07,.46,.02,.13,.03,.26,.17,.35,.14,.09,.16,.24,.1,.4-.06,.16-.1,.31-.22,.45-.11,.13-.14,.34-.23,.57,.34-.24,.62-.44,.96-.56,.1-.03,.17-.14,.25-.22,.11-.1,.21-.21,.33-.29,.26-.18,.54-.33,.8-.52,.2-.14,.38-.29,.56-.45,.17-.16,.35-.28,.57-.38,.17-.08,.33-.19,.49-.3,.55-.38,1.16-.62,1.77-.86,.02,0,.04-.02,.07-.04,.04-.2,.06-.42,.3-.53,.21-.1,.42-.17,.65-.07,.16,.07,.34,.07,.49,.14,.39,.15,.79,.31,1.16,.49,.2,.1,.37,.26,.53,.42,.08,.07,.15,.2,.14,.3-.02,.37,.2,.67,.3,1,.05,.16,.06,.27-.06,.4-.1,.1-.18,.23-.28,.37,.06,.05,.11,.13,.17,.15,.26,.09,.3,.3,.31,.52,0,.17-.02,.34-.02,.51,0,.1,0,.21,.03,.3,.07,.17,0,.26-.14,.34h0Z"/><path class="cls-2" d="M182.8,17.31c-.14,.14-.25,.16-.37,.03-.11-.12-.22-.23-.32-.35-.41-.48-.72-1.02-.94-1.61-.15-.39-.34-.77-.51-1.15-.22-.5-.44-1-.67-1.49-.17-.37-.34-.73-.53-1.12-.02,.3,.22,.53,.07,.82-.04-.1-.09-.2-.13-.31-.21-.67-.42-1.35-.72-1.99-.05-.1-.09-.21-.12-.32-.06-.26-.22-.46-.43-.6-.21-.14-.27-.33-.28-.55,0-.07,0-.14,0-.21,0-.24,.06-.46,.31-.52,.07-.53,.3-.94,.71-1.23,.44-.31,.93-.52,1.45-.68,.06-.02,.14,0,.19,.03,.11,.05,.22,.12,.35,.2-.04,.4-.04,.8,.08,1.18,.6,.15,1,.56,1.41,.93-.04,.19-.14,.16-.24,.11-.16-.09-.31-.19-.48-.27-.3-.14-.61-.24-.96-.24-.31,0-.48-.19-.48-.5,0-.23,.02-.45,.01-.68,0-.08-.03-.15-.04-.24-.33,.04-.55,.25-.74,.45-.23,.25-.38,.55-.48,.9-.09,.31-.14,.59-.04,.91,.24,.74,.38,1.52,.7,2.24,.35,.77,.66,1.56,1,2.34,.19,.43,.41,.84,.61,1.26,.12,.25,.23,.5,.34,.75,.29,.65,.68,1.23,1.15,1.76,.03,.03,.05,.07,.09,.13Z"/><path class="cls-2" d="M173.24,28.99c.1,.38,.38,.58,.6,.82-.11,.14-.22,.1-.3,.02-.15-.14-.31-.28-.41-.45-.21-.36-.42-.73-.37-1.18-.12-.19-.05-.45-.24-.63-.07-.07-.09-.21-.08-.31,.01-.27,.04-.55-.05-.81-.15-.43,.3-1.14,.72-1.26,.34-.1,.66-.23,1.04-.36-.21-.26-.43-.51-.64-.78,.06-.27,.29-.43,.41-.66,.09-.16,.18-.32,.27-.47,.07-.12,.15-.23,.22-.34,.06-.08,.12-.17,.18-.25,.21-.3,.41-.61,.63-.9,.09-.12,.17-.24,.15-.37-.05-.28,.08-.48,.24-.67,.41-.45,.83-.88,1.41-1.12,.3-.12,.61-.17,.93-.07,.03,0,.04,.05,.07,.08-.08,.1-.18,.1-.28,.09-.18-.01-.34,.04-.49,.12-.2,.1-.44,.16-.61,.3-.43,.33-.81,.7-.84,1.3-.01,.25-.2,.43-.34,.62-.33,.42-.61,.88-.88,1.35-.06,.11-.13,.21-.19,.32-.06,.11-.12,.22-.15,.34-.12,.41,.06,.68,.47,.77,.35,.08,.43,.24,.27,.56-.14,.28-.39,.44-.66,.56-.07,.03-.18,.06-.23,.03-.2-.14-.37-.02-.55,.03-.48,.12-.64,.63-.59,.99,.03,.19,.03,.38,.02,.57-.03,.34,.04,.65,.21,.95,.06,.1,.11,.18,.23,.23,.1,.05,.18,.16,.26,.25,.09,.1,.15,.23,.25,.32,.18,.17,.43,.28,.57,.48,.16,.23,.37,.34,.59,.43,.17,.08,.37,.09,.56,.15,.18,.05,.35,.11,.52,.16,.09,.03,.14,.09,.11,.18-.03,.09-.11,.09-.2,.08-.37-.06-.74-.12-1.11-.18-.22-.04-.41-.14-.58-.28-.34-.29-.67-.59-1-.88-.04-.03-.07-.07-.14-.13Zm-.05-.58c-.1-.06-.19-.1-.28-.15-.01,.01-.03,.03-.04,.04,.06,.1,.12,.19,.19,.31,.05-.08,.09-.13,.13-.2Z"/><path class="cls-2" d="M192.35,8.43c-.47,.31-.59,.79-.71,1.26-.08,.32-.1,.66-.19,.97-.15,.5-.14,1.03-.27,1.53-.07,.29-.15,.57-.27,.85,.04-.29,.07-.57,.11-.86,.01-.11,.02-.22,.03-.34,0-.06-.02-.12,0-.17,.15-.39,.08-.81,.21-1.2,.03-.1,.03-.23-.03-.36-.05-.13,.01-.31,.03-.47,.06-.4,.12-.81,.19-1.21,.08-.44,.28-.82,.69-1.09,.13,.05,.3,.08,.44,.16,.08,.04,.16,.17,.15,.25-.02,.18,.06,.28,.16,.42,.23,.32,.45,.66,.61,1.02,.16,.37,.46,.55,.8,.7,.21,.09,.4,.19,.65,.18,.23,0,.44,.13,.5,.35,.07,.3,.29,.47,.49,.63,.41,.32,.78,.66,1.07,1.1,0,0,.02,0,.06,.02,.06-.32,.38-.51,.41-.87,.01-.17,.11-.36,.31-.47,.12-.07,.19-.24,.26-.38,.06-.12,.14-.13,.27-.08-.6,.62-.83,1.41-1.11,2.18,.25,.52,.5,1.04,.76,1.58-.17,.09-.25,.01-.32-.11-.1-.19-.2-.38-.3-.57-.22-.42-.41-.86-.68-1.25-.21-.3-.5-.56-.79-.79-.23-.18-.43-.37-.58-.62-.13-.22-.3-.34-.54-.37-.33-.04-.61-.17-.87-.36-.19-.14-.4-.25-.6-.38-.39-.26-.66-.61-.82-1.06-.02-.07-.08-.13-.12-.2Z"/><path class="cls-2" d="M201.37,45.51c.11,.13,.16,.19,.24,.27,0-.01,0,0,0,.03-.09,.71-.17,1.42-.29,2.13-.12,.71-.27,1.41-.41,2.11-.04,.22-.06,.43,0,.66,.08,.27,.25,.42,.47,.55,.09,.05,.18,.1,.28,.16,.18-.14,.29-.31,.28-.54-.02-.28-.06-.57-.08-.85-.01-.17-.03-.34-.02-.51,.01-.2,.13-.38,.3-.42,.55-.11,.73-.53,.92-.96,.28-.64,.22-1.27,.02-1.9-.1-.31-.06-.61-.04-.91,.01-.15,.09-.18,.4-.18,.02,.07,.06,.14,.07,.21,.06,.43,.1,.86,.17,1.29,.09,.54,.06,1.06-.21,1.56-.14,.26-.28,.52-.42,.78-.11,.19-.26,.35-.48,.4-.18,.05-.22,.18-.21,.34,.02,.26,.04,.52,.08,.78,.04,.26,0,.48-.11,.72-.17,.35-.35,.68-.67,.93-.03,.02-.06,.03-.11,.06-.09-.11-.18-.2-.25-.33-.09-.17-.22-.32-.34-.46-.05-.06-.12-.11-.19-.14-.26-.11-.28-.15-.3-.41-.03-.51,.12-.99,.26-1.47,.05-.15,.08-.31,.11-.46,.11-.57,.21-1.14,.31-1.71,.03-.18,.07-.35,.12-.53,.03-.12,.04-.21-.08-.3-.05-.03-.09-.14-.07-.2,.06-.22,.15-.42,.25-.68Z"/><path class="cls-2" d="M204.79,20.61c.08-.11,.13-.2,.2-.26,.24-.2,.4-.49,.7-.62,.12-.06,.11-.19,.11-.3-.01-.16-.03-.32-.05-.47-.01-.06-.06-.12-.1-.17-.1-.13-.21-.26-.32-.4,.18-.19,.34-.33,.56-.43,.26-.12,.38,.14,.6,.23,.04-.1,.08-.19,.11-.28,.06-.17,.08-.2,.27-.15,.21,.05,.42,.11,.62,.18,.22,.08,.28,.26,.15,.46-.18,.28-.42,.47-.81,.4,.03,.26,.22,.42,.33,.63,.16,0,.17,.16,.26,.24,.04,.04,.15,.08,.17,.06,.05-.04,.08-.12,.09-.19,0-.09-.01-.19-.02-.31,.37,.26,.36,.55,.02,.73-.05,.02-.12,.05-.13,.09-.15,.38-.52,.47-.81,.66-.15,.1-.31,.2-.49,.04-.04-.04-.15,0-.23,.02-.16,.04-.32,.11-.49,.15-.29,.08-.51-.05-.72-.3Zm1.07-2.18c.14,.18,.23,.4,.48,.47,.13,.04,.14,.17,.03,.27-.1,.09-.22,.14-.36,.22,0,.25,.09,.52,.25,.73,.1,.13,.29,.18,.45,.26,.02,.01,.07,0,.1-.02,.24-.08,.34-.32,.23-.55-.04-.08-.1-.15-.15-.23-.12-.19-.24-.38-.36-.58-.06-.11-.12-.21-.02-.34,.05-.07,.01-.2,.01-.3-.24-.04-.46-.18-.67,.06Zm-.05,1.7c-.2,.12-.38,.21-.52,.39,.2,.16,.37,.07,.54-.02,.04-.02,.09-.05,.14-.08-.06-.1-.1-.18-.17-.28Zm1.06-1.98c.02,.17,.04,.32,.24,.36,.08-.08,.15-.16,.23-.24q-.2-.14-.47-.12Z"/><path class="cls-2" d="M197.65,36.56c.11,.29,0,.54-.07,.8,.28,.07,.3-.21,.45-.28,.13-.04,.27-.07,.4-.12,.27-.09,.36-.07,.46,.21,.07,.17,.12,.34,.15,.52,.05,.25-.04,.36-.3,.38-.04,0-.09-.01-.13-.02-.12,.19-.22,.38-.35,.55-.07,.09-.19,.17-.3,.22-.2,.09-.35,.03-.44-.17-.06-.13-.13-.28-.12-.42,.02-.19-.05-.32-.16-.48-.11,.1-.22,.19-.34,.29-.34-.16-.45-.4-.37-.73,.09-.34,.27-.57,.63-.63,.04,0,.07-.04,.11-.06-.01-.04-.02-.07-.03-.07-.38-.15-.68-.39-.93-.7-.13-.17-.29-.31-.44-.47-.08-.08-.03-.14,.08-.2,.57,.44,1.03,1.02,1.68,1.37Zm.26,1.99c.41-.29,.46-.39,.37-.71-.08,.04-.18,.07-.24,.13-.09,.08-.17,.18-.22,.28-.05,.11-.01,.22,.09,.3Zm.4-1.31c.17,.22,.21,.5,.54,.57-.05-.26-.09-.48-.13-.71-.07,.2-.23,.12-.41,.14Zm-1.33,.37c.15-.13,.3-.23,.42-.37,.05-.05,.04-.16,.05-.25-.13-.03-.22-.06-.26,.09-.01,.07-.06,.14-.12,.18-.17,.11-.17,.1-.1,.35Z"/><path class="cls-2" d="M215.93,23.87c-.03-.1-.05-.19-.08-.3,.58-.43,1.22-.71,1.84-1.01,.09-.04,.18-.1,.25-.16,.22-.19,.45-.34,.72-.45,.5-.21,.99-.45,1.48-.68,.18-.27,.54-.23,.74-.45,.03-.04,.11-.03,.16-.05,.21-.09,.43-.15,.59-.31,.12-.11,.26-.17,.43-.16,.08,0,.17-.07,.25-.09,.06-.02,.13-.01,.21,.04-.15,.07-.29,.13-.44,.2-.26,.12-.51,.26-.77,.35-.3,.11-.56,.29-.84,.42-.23,.11-.4,.33-.67,.36-.34,.37-.84,.49-1.21,.79,.88,.08,1.76,.15,2.65,.25,.87,.1,1.75,.2,2.58,.55-.23-.01-.47,0-.69-.03-.88-.11-1.76-.25-2.64-.34-.44-.05-.88-.03-1.32-.05-.36-.02-.73-.05-1.09-.06-.06,0-.14,.01-.19,.05-.3,.19-.6,.38-.9,.57-.06,.04-.13,.05-.19,.08-.15,.08-.33,.14-.44,.26-.13,.14-.27,.21-.44,.24h0Z"/><path class="cls-2" d="M194.36,36.71c.09-.16,.18-.3,.27-.47,.18,.14,.39,.16,.43,.42-.06,.01-.1,.02-.14,.02-.18,.02-.23,.1-.17,.26,.03,.1,.06,.21,.1,.34,.07,.03,.17,.08,.28,.13,.06-.06,.11-.11,.17-.18,.1,.06,.18,.12,.31,.2,0-.09,.01-.14,0-.17-.19-.26-.07-.53-.03-.79,.02-.13,.13-.17,.23-.1,.11,.08,.22,.15,.37,.15,.12,0,.26,.02,.29,.14,.03,.13-.01,.28-.04,.42,0,.05-.11,.09-.1,.13,.04,.32-.22,.48-.36,.7-.05,.07-.07,.16-.12,.28-.31,.11-.68,.08-1.06,.03-.11-.02-.21-.05-.33,.01-.14,.07-.27,0-.38-.08-.03-.02-.05-.09-.04-.12,.02-.04,.08-.09,.12-.09,.15,0,.29,.04,.44,.06,.21,.03,.42,.06,.65,.09,.05-.25-.2-.35-.17-.54-.15-.02-.23-.05-.36,.06-.27,.24-.51,.11-.6-.22-.03-.12-.03-.24-.05-.38,.06-.03,.13-.06,.21-.11-.49-.03-.95-.06-1.45-.18,.12-.14,.23-.13,.34-.12,.41,.03,.82,.05,1.21,.08Zm1.5,.97s-.01-.05-.02-.07c-.13-.01-.23,.09-.35,.14-.02,0,0,.08,0,.18,.15-.1,.26-.17,.37-.25Z"/><path class="cls-2" d="M181.24,30.21c.11-.25,.19-.42,.28-.61-.19,0-.36,0-.59-.01,.11-.07,.19-.12,.26-.17-.03-.03-.05-.05-.08-.08,.34-.2,.6-.48,.82-.8,.34-.49,.69-.96,.92-1.51,.03-.08,.1-.15,.16-.22,.11-.11,.21-.23,.19-.43,.06,.06,.11,.11,.18,.18,.05-.06,.1-.13,.17-.23,.03,.09,.07,.15,.05,.19-.13,.47,0,.93,.03,1.39,.02,.35,.04,.7,.05,1.05,0,.07-.03,.15-.05,.26-.17-.1-.14-.25-.15-.37-.03-.49-.05-.97-.08-1.46,0-.02-.02-.04-.03-.07-.14,.15-.22,.31-.22,.52,0,.4-.03,.79-.06,1.19-.01,.14-.05,.28-.08,.43-.17-.02-.15-.11-.14-.2,.04-.32,.08-.63,.11-.95,.01-.11,0-.22,0-.37-.35,.37-.56,.77-.69,1.21-.06,.2-.13,.41-.34,.54,.06-.2,.13-.41,.21-.67-.22,.13-.3,.28-.38,.44-.1,.21-.21,.43-.33,.64-.02,.04-.1,.06-.22,.13Zm1.68-2.68c-.16,.22-.33,.44-.52,.7,.25-.1,.46-.37,.52-.7Z"/><path class="cls-2" d="M199.77,6.82c-.07-.26-.04-.36,.18-.48,.27-.15,.55-.27,.83-.4,.28-.13,.56-.26,.84-.37,.35-.13,.71-.24,1.07-.36,.21-.07,.42-.13,.62-.18,.08-.02,.16-.03,.24-.03,.18,0,.21,.08,.13,.3-.3,.02-.59,.02-.88,.17-.31,.16-.67,.21-1,.34-.37,.14-.74,.31-1.09,.48-.16,.08-.3,.2-.45,.3-.13,.09-.22,.2-.15,.37,.04,.1,0,.21-.12,.2-.26-.02-.42,.15-.6,.29-.51,.41-.83,.96-1.09,1.55-.17,.38-.23,.77-.28,1.17-.01,.09-.01,.16-.15,.15-.07-.15-.19-.3-.1-.5,.01-.03,.02-.07,.01-.1-.1-.37,.09-.69,.19-1.03,.04-.14,.13-.26,.25-.36,.14-.11,.26-.26,.35-.42,.23-.39,.54-.7,.93-.93,.09-.05,.17-.11,.27-.18Z"/><path class="cls-2" d="M199.55,19.75c-.06-.03-.12-.06-.18-.1-.1-.06-.11-.14-.07-.24,.08,0,.17,.04,.24,.02,.07-.02,.12-.1,.18-.15-.07-.18-.1-.36-.3-.46-.1-.05-.18-.2-.11-.36,.05-.12,.09-.25,.14-.38,.05-.13-.01-.29-.13-.35-.22-.12-.74,0-.89,.2-.06,.08-.11,.18-.04,.28,.03,.04,.08,.09,.12,.09,.04,0,.1-.05,.12-.09,.04-.1,.07-.21,.1-.33,.11-.07,.23-.08,.3,.03,.04,.06,.02,.17,0,.25-.06,.2-.4,.44-.61,.44-.2,0-.36-.14-.42-.38-.06-.2,.02-.36,.19-.49,.35-.26,.73-.29,1.16-.2,.04-.22-.08-.32-.23-.41-.21-.12-.38-.28-.54-.52,.36-.15,.61-.41,.86-.67,.12,.06,.27-.07,.39,.1-.16,.21-.14,.45-.07,.7,.07,.24,.07,.47-.03,.7-.08,.21-.11,.42,.12,.59-.04,.1-.08,.19-.13,.28-.11,.21-.04,.37,.2,.42,.08,.01,.16,.02,.23,.04,0,0,.02,.01,.05,.05-.09,.07-.19,.14-.3,.22,.03,.07,.06,.15,.11,.25-.15,.15-.31,.3-.48,.45h0Zm-.1-3.44c-.15,.07-.27,.13-.39,.2-.03,.01-.05,.05-.06,.08-.04,.1,.15,.34,.29,.35,.06-.04,.13-.08,.2-.12-.01-.18-.02-.34-.03-.5Z"/><path class="cls-2" d="M216.37,29.33c.05-.1,.09-.18,.13-.27,.06,.03,.1,.05,.13,.08,.25,.3,.56,.51,.96,.52,.22,0,.45-.04,.68-.06,.03,0,.07-.02,.1-.03,.36-.13,.67-.06,.9,.26,.08,.12,.19,.15,.33,.12,.15-.03,.29-.05,.44-.07,.23-.03,.44-.11,.59-.31,.03-.03,.07-.06,.13-.1,.08,.08,.16,.15,.25,.24-.13,.2-.27,.38-.24,.62,0,.04-.05,.1-.09,.13-.18,.13-.21,.29-.13,.48,0,.02,.03,.04,.03,.06,.02,.11-.05,.26-.15,.27-.08,0-.17-.04-.23-.09-.05-.04-.08-.12-.08-.18,.03-.25-.03-.53,.17-.78-.24,.06-.49,.11-.73,.18-.2,.06-.24,.05-.34-.1-.04-.07-.07-.14-.11-.21-.12-.2-.25-.27-.48-.23-.14,.02-.27,.05-.4,.08-.73,.18-1.32-.07-1.84-.63Z"/><path class="cls-2" d="M183.07,25.49c-.08,.21-.24,.32-.4,.4-.55,.29-1.12,.57-1.68,.84-.06,.03-.13,.04-.2,.06-.2,.06-.39,.13-.59,.17-.46,.1-.92,.21-1.36-.06-.13-.08-.24-.19-.36-.29-.24,.34-.46,.37-.74,.03-.13-.15-.2-.35-.26-.54-.04-.14,.2-.33,.34-.27,.09,.03,.15,.05,.25,.02,.17-.04,.33,.09,.38,.27,.03,.12,.05,.24,.07,.36,.2-.06,.37-.11,.57-.16-.02,.12-.03,.2-.05,.28,.23,.2,.52,.19,.78,.14,.39-.07,.77-.21,1.15-.32,.17-.05,.35-.1,.52-.16,.15-.06,.28-.13,.42-.21,.07-.04,.13-.1,.21-.12,.26-.09,.5-.21,.73-.36,.07-.04,.15-.06,.22-.09Z"/><path class="cls-2" d="M183.96,24.27c-.2,.16-.4,.33-.6,.48-.39,.28-.81,.5-1.28,.63-.31,.09-.62,.15-.94,.1-.09-.02-.19-.02-.26-.06-.12-.06-.28-.12-.32-.23-.06-.12-.02-.29,0-.43,.02-.12,.12-.14,.34-.06,.03-.12,.07-.23,.1-.34-.01,0-.03-.01-.04-.02-.05,.06-.09,.12-.14,.16-.04,.03-.11,.03-.15,.01-.04-.02-.08-.11-.07-.14,.06-.13,.13-.27,.23-.37,.12-.12,.43-.05,.44,.18,.01,.31-.02,.61-.17,.89,.43,.17,1.24,0,1.97-.42-.12-.01-.21-.03-.29-.03-.1,0-.2,.04-.3,.04-.24,0-.48-.01-.72-.03-.03,0-.08-.08-.07-.1,.02-.04,.07-.1,.11-.1,.06,0,.15,0,.2,.04,.1,.08,.19,.04,.29,.04,.39,.02,.75-.1,1.11-.24,.05-.02,.11-.03,.17-.03,.14,0,.28,0,.42,0Z"/><path class="cls-2" d="M198.9,34.02c-.27-.03-.37-.17-.45-.37,.04-.05,.09-.12,.13-.18-.38-.38-.82-.69-1.33-.85-.06,.16-.11,.32-.2,.46-.08,.14-.2,.14-.32,.04-.08-.07-.13-.18-.27-.2-.04,0-.09-.14-.08-.2,.07-.27,.17-.53,.28-.85,.07,.15,.09,.26,.16,.31,.05,.03,.16-.02,.26-.04,.04,.11,.07,.21,.11,.35,.12-.12,.24-.07,.36,0,.54,.28,.75,.44,1.19,.96,.03-.08,.08-.15,.08-.21-.02-.28-.16-.49-.38-.66-.06-.04-.18-.03-.25,0-.14,.04-.28,.07-.37-.06-.04-.06-.04-.18,0-.25,.08-.14,.24-.13,.37-.11,.11,.02,.21,.09,.3,.15,.33,.22,.58,.51,.65,.92,.06,.32-.07,.57-.25,.8Zm-2-1.05c.12-.18,.1-.38,.08-.59-.29,.25-.3,.25-.08,.59Z"/><path class="cls-2" d="M177.64,21c.25,.19,.45,.31,.74,.18,.14-.06,.29-.1,.45-.14,.25-.06,.44,0,.65,.12,.25,.14,.33,.43,.18,.67-.08,.13-.3,.18-.46,.1-.26-.13-.48-.3-.51-.63,0-.03-.03-.06-.04-.09-.79,.29-1.09,.28-1.44-.22q.16-.18,.44-.21c-.07-.16-.23-.29-.17-.49,.18-.23,.44-.33,.72-.34,.11,0,.22,.03,.32,.09,.14,.08,.18,.25,.09,.38-.16,.24-.33,.47-.67,.48-.08,0-.17,.05-.29,.09Zm.22-.53c.25,.17,.27,.17,.49-.15q-.27-.1-.49,.15Zm1.31,.85c-.01,.24-.02,.25,.07,.29,.08,.04,.15,.02,.18-.1-.05-.09-.11-.19-.26-.19Z"/><path class="cls-2" d="M182.01,20.8c-.21-.04-.26-.27-.42-.37-.11-.06-.19-.18-.29-.27-.46-.39-.95-.74-1.47-1.03-.14-.08-.32-.11-.47-.16,0,.2,0,.38-.01,.56-.02,.18-.19,.32-.34,.32-.18,0-.34-.15-.37-.34-.04-.28,.03-.51,.3-.66-.03-.05-.05-.1-.09-.17,.05-.04,.11-.08,.2-.16-.22-.04-.41-.07-.46-.29,.29-.24,.73-.29,1.04-.12,.12,.07,.23,.37,.18,.51-.02,.06-.06,.12-.1,.19,.18,.12,.35,.25,.53,.34,.69,.37,1.24,.91,1.77,1.48,.03,.03,.02,.08,.03,.12,0,.01-.02,.03-.03,.04Zm-3.21-1.51c.14,.07,.26,.12,.4,.02,0-.12,0-.24-.14-.27-.18-.03-.21,.12-.26,.25Zm.73-.88c-.33-.16-.37-.15-.42,.14,.15-.01,.32,.05,.42-.14Zm-.33,1.06c-.13,.01-.2,.02-.29,.02,.1,.2,.17,.15,.29-.02Z"/><path class="cls-2" d="M199.55,19.74c.1,.17,.17,.35,.39,.41,.03,0,.05,.05,.06,.08,.06,.22,.15,.43,.18,.66,.02,.14-.05,.28-.08,.44-.35-.03-.69,.1-.97-.21,.02-.36,.36-.62,.4-1-.14,.02-.27,.05-.41,.05-.24,.02-.48,0-.68-.16-.16-.13-.16-.2-.03-.37,.14-.18,.26-.37,.39-.55,.16-.21,.22-.21,.47-.04,0,.15-.15,.18-.24,.21-.18,.07-.27,.21-.34,.36-.08,.16-.02,.29,.15,.29,.19,0,.38-.05,.57-.09,.05-.01,.1-.05,.15-.07h0Zm.14,.97c-.07,.09-.15,.17-.09,.32,.06-.02,.14-.03,.16-.07,.07-.1,.03-.19-.08-.25Z"/><path class="cls-2" d="M177.48,22.8c0-.06-.03-.15-.01-.16,.19-.08,.16-.28,.24-.42,.04-.07,.06-.15,.11-.21,.12-.16,.38-.21,.55-.1,.1,.06,.13,.16,.1,.27-.06,.26-.13,.53-.2,.81,.1,.07,.22,.16,.34,.25,0,.13-.02,.24-.02,.36q-.19-.29-.46-.37c-.1,.1-.22,.19-.29,.32-.12,.19-.34,.22-.51,.33-.1,.06-.24-.02-.29-.16-.07-.22-.01-.42,.12-.6,.09-.12,.21-.22,.32-.33,.12,.16,.29,.15,.46,.12,.05-.01,.12-.05,.13-.09,.09-.22,.16-.45,.23-.67,.01-.04-.03-.12-.06-.14-.05-.02-.14-.01-.18,.02-.23,.18-.29,.41-.19,.7-.14,.02-.27,.05-.4,.07Z"/><path class="cls-2" d="M203.84,44c-.1-.29,.05-.52,.19-.73,.22-.33,.36-.72,.7-.96,.03-.02,.06-.07,.07-.11,.12-.47,.42-.86,.62-1.29,.1-.2,.22-.4,.45-.49,.1,.07,.09,.16,.06,.25-.04,.1-.07,.19-.12,.28-.26,.46-.51,.94-.8,1.39-.37,.57-.78,1.11-1.17,1.67h0Z"/><path class="cls-2" d="M215.9,24.66c.08-.2,.19-.2,.32-.15,.32,.11,.64,.23,.97,.34,.65,.22,1.33,.29,2.02,.25,.2-.01,.41,0,.61,.01,.14,.01,.16,.1,.1,.24-.34-.07-.65,.04-.98,.06-.23,.02-.47-.04-.71-.06-.82-.06-1.55-.41-2.34-.68Z"/><path class="cls-2" d="M179.93,17.35c-.15,.05-.39-.05-.37-.17,.03-.2-.11-.34-.16-.5-.07-.2-.05-.27,.15-.33,.25-.08,.5-.15,.77-.15,.21,0,.35,.08,.45,.25,.11,.17,.07,.32-.06,.47-.08,.09-.14,.18-.22,.26-.11,.1-.22,.2-.39,.16-.05-.01-.11,.02-.16,.03Zm.31-.61c-.1,.08-.18,.14-.25,.21,.27,.17,.45,.07,.56-.29-.35-.19-.57-.18-.78,.03,.14,.02,.29,.04,.47,.06Z"/><path class="cls-2" d="M201.61,40.56c.12,.07,.18,.13,.13,.27-.05,.16-.09,.34-.06,.5,.12,.66,.05,1.32,.07,1.98,0,.1-.03,.2-.07,.29-.15-.45-.06-.94-.16-1.47-.26,.37-.49,.68-.69,1.01-.2,.32-.37,.65-.56,.98-.06,.11-.13,.21-.22,.31-.03,.03-.11,.01-.17,.02,.11-.13,.23-.22,.29-.34,.27-.6,.6-1.15,.99-1.68,.15-.21,.28-.44,.31-.71,.01-.11,.07-.22-.07-.3-.01,0-.03-.04-.03-.05,.11-.26,.03-.57,.24-.82Z"/><path class="cls-2" d="M179.09,27.62c.18-.02,.31-.04,.43-.03,.42,.03,.81-.05,1.19-.23,.34-.15,.67-.33,1.04-.41,.02,0,.04-.02,.06-.03,.31-.21,.62-.42,.93-.63,.09-.06,.2-.09,.31-.1-.1,.14-.18,.24-.35,.32-.29,.14-.51,.4-.78,.58-.2,.13-.43,.21-.64,.31-.35,.17-.72,.29-1.09,.38-.29,.07-.58,.08-.87,0-.07-.02-.12-.08-.22-.16Z"/><path class="cls-2" d="M182.01,22.17c-.02,.08-.05,.15-.06,.22-.01,.06-.01,.12-.02,.22,.16-.14,.24-.27,.2-.45-.04-.18-.19-.25-.36-.15-.06,.04-.1,.1-.16,.12-.07,.03-.14,.02-.23,.03-.03-.2,.05-.33,.18-.4,.13-.07,.3-.13,.45-.12,.28,.01,.49,.38,.4,.68-.06,.19-.16,.38-.26,.55-.06,.12-.17,.19-.31,.15-.14-.04-.27-.22-.26-.36,0-.08,.03-.16,.04-.24,.03-.23,.08-.27,.4-.26Z"/><path class="cls-2" d="M215.21,38.52c-.19,.73-.36,1.47-.43,2.22-.07,.74-.15,1.49-.08,2.25-.17-.03-.2-.15-.2-.25,0-.53-.05-1.06,.03-1.6,.06-.37,.07-.75,.13-1.12,.05-.34,.13-.67,.21-1,.05-.2,.13-.39,.33-.52Z"/><path class="cls-2" d="M217.14,44.1s-.09-.05-.09-.08c-.12-1.41-.05-2.81,.27-4.19,.04-.15-.01-.38,.23-.49,.04,.34-.15,.63-.16,.94,0,.32-.09,.63-.12,.95-.03,.32-.04,.63-.05,.95-.01,.32-.07,.63-.03,.95,.04,.31,.01,.63,.01,.94-.02,.01-.05,.02-.07,.03Z"/><path class="cls-2" d="M184.61,11.42c-.26-.41-.5-.83-.79-1.23-.29-.41-.61-.79-.92-1.18-.04-.05-.08-.11-.12-.16-.08-.11-.04-.19,.06-.26,.19,.06,.33,.18,.43,.34,.25,.38,.51,.75,.74,1.14,.15,.25,.27,.52,.41,.78,.07,.14,.17,.27,.24,.4,.02,.04,.01,.09,.02,.14-.02,0-.05,.02-.07,.02Z"/><path class="cls-2" d="M183.54,22.44c-.03,.13-.04,.31-.11,.47-.06,.15-.2,.19-.34,.11-.18-.1-.35-.21-.5-.34-.07-.06-.1-.18-.11-.27-.01-.13,.01-.27,.03-.4,.05-.3,.27-.42,.52-.25,.23,.15,.38,.39,.51,.69Zm-.65-.42c-.28,.36-.18,.57,.33,.74,.09-.33,.01-.52-.33-.74Z"/><path class="cls-2" d="M222.72,20.63c-.02-.16,.01-.25,.15-.26,.28-.02,.57-.06,.85-.07,.33,0,.66,0,.99,.02,.2,0,.41,.04,.61,.06,.2,.02,.4,.02,.6,.05,.06,0,.12,.07,.22,.14-.51,.1-.95,.03-1.39-.03-.23-.03-.46-.02-.69,.02-.08,.01-.16,.02-.24,.03-.3,.02-.59,.03-.89,.04-.07,0-.13,0-.21,0Z"/><path class="cls-2" d="M204.89,15.98c-.12,.13-.2,.22-.28,.31-.14,.15-.32,.18-.5,.15-.13-.02-.26-.15-.26-.28,0-.19-.01-.38,.19-.51,.22-.15,.44-.19,.68-.1,.05,.02,.1,.09,.13,.15,.03,.09,.04,.2,.06,.29Z"/><path class="cls-2" d="M221.99,32.47c-.2-.07-.39-.12-.56-.2-.12-.06-.23-.15-.32-.25-.13-.14-.23-.31-.34-.47-.08-.1-.07-.21-.03-.32,.05-.11,.15-.15,.25-.08,.09,.06,.18,.15,.24,.24,.19,.28,.4,.52,.7,.67,.19,.09,.19,.16,.06,.41Z"/><path class="cls-2" d="M209.93,40.88c-.05-.08-.1-.12-.1-.16,.01-.15,.03-.3,.07-.43,.18-.56,.37-1.13,.56-1.69,.13-.38,.26-.75,.39-1.13,.03-.07,.08-.14,.12-.22,.16,.08,.15,.2,.11,.32-.08,.22-.17,.44-.26,.67-.2,.53-.39,1.07-.59,1.6-.11,.28-.2,.55-.23,.85,0,.05-.04,.1-.08,.19Z"/><path class="cls-2" d="M218.07,40.74c-.22,1.35-.42,2.7-.34,4.08-.19-.03-.18-.14-.19-.22-.04-.96,0-1.9,.19-2.85,.06-.3,.1-.61,.16-.91,0-.05,.07-.08,.11-.13,.02,0,.04,.02,.06,.03Z"/><path class="cls-2" d="M178.96,30.08c-.22,.15-.45,.32-.69,.45-.27,.14-.56,.26-.85,.35-.22,.07-.45,.04-.67-.07-.09-.05-.18-.1-.3-.17,.07-.03,.12-.07,.18-.08,.16,0,.32,.01,.47,0,.2-.02,.41-.05,.6-.12,.35-.13,.71-.24,1.03-.46,.07-.05,.18-.08,.23,.1Z"/><path class="cls-2" d="M200.86,21.93c-.27,.26-.54,.51-.8,.77-.21,.22-.41,.45-.62,.67-.08,.08-.15,.17-.33,.12,.1-.16,.19-.31,.29-.45,.24-.33,.49-.64,.74-.97,.05-.06,.09-.13,.14-.19,.17-.17,.35-.29,.56,.05Z"/><path class="cls-2" d="M184.42,21.14s-.06-.07-.08-.1c-.29-.43-.58-.85-.88-1.28-.12-.16-.24-.32-.38-.46-.42-.4-.81-.83-1.3-1.15-.08-.05-.17-.07-.24-.12-.09-.06-.23-.07-.23-.24,.16-.08,.29,.03,.4,.09,.35,.19,.64,.44,.92,.73,.61,.62,1.09,1.32,1.59,2.03,.1,.14,.17,.31,.25,.47-.02,0-.03,.02-.05,.03Z"/><path class="cls-2" d="M210.45,41.17c-.17-.04-.16-.15-.13-.25,.08-.34,.13-.69,.25-1.02,.18-.52,.41-1.04,.62-1.55,.04-.1,.08-.21,.25-.25,0,.07,.01,.14,0,.19-.15,.38-.3,.76-.45,1.14-.21,.5-.35,1.01-.45,1.54-.01,.07-.05,.14-.07,.21Z"/><path class="cls-2" d="M177.4,24.7c.17,.05,.29-.01,.43-.15,.09-.1,.29-.12,.44-.13,.21-.01,.3,.11,.35,.41-.18,.26-.46,.3-.74,.34-.18,.03-.3-.1-.42-.18-.09-.06-.12-.16-.04-.29Z"/><path class="cls-2" d="M211.48,39.37c0,.1,0,.2-.01,.29-.1,.42-.21,.84-.32,1.26-.1,.39-.18,.77-.16,1.18,0,.09,0,.19-.16,.21-.02-.07-.06-.13-.06-.2,0-.14-.02-.28,.01-.41,.11-.5,.23-1,.34-1.49,.03-.13,.05-.27,.08-.4,.04-.16,.06-.33,.19-.45,.03,0,.06,.01,.09,.02Z"/><path class="cls-2" d="M181.72,19.73c.11,0,.19-.03,.22,0,.49,.5,.99,1,1.4,1.57,.07,.1,.14,.2,.22,.3,.37,.45,.6,.98,.84,1.51,.02,.04,0,.09,0,.14-.68-1.31-1.55-2.47-2.68-3.52Z"/><path class="cls-2" d="M181.41,19.36c-.18,.04-.32,.02-.46-.13-.18-.19-.32-.38-.31-.65,0-.14,.1-.19,.32-.17-.03,.04-.05,.08-.07,.1-.02,.03-.05,.05-.08,.08,.07,.13,.14,.25,.22,.4,.06-.08,.11-.14,.16-.21,.09-.14,.21-.17,.36-.13,.17,.04,.28,.17,.3,.33,.02,.19-.05,.34-.24,.53-.11,0-.15-.07-.19-.16,.23-.14,.25-.2,.13-.52-.09,.11-.16,.2-.23,.3,.04,.09,.08,.16,.11,.22Z"/><path class="cls-2" d="M199.77,40.56c.11-.24,.32-.2,.49-.22,.45-.05,.91-.08,1.36-.13,.1-.01,.19-.07,.32-.11-.01,.07,0,.17-.03,.18-.2,.08-.35,.29-.62,.23-.14-.03-.26,.16-.42,.08-.29,.15-.61,.04-.91,.07-.06,0-.12-.07-.19-.1Z"/><path class="cls-2" d="M179.69,24c-.39-.15-.5-.32-.45-.68,.03-.18,.33-.4,.51-.37,.23,.03,.39,.27,.34,.51-.05,.25-.19,.43-.4,.55Zm.14-.65s-.1-.05-.16-.04c-.13,.02-.16,.13-.14,.23,.01,.09,.1,.12,.19,.09,.12-.04,.13-.14,.11-.28Z"/><path class="cls-2" d="M192.38,32.44c.92,.32,1.77,.8,2.65,1.24-.08,.15-.16,.1-.24,.06-.52-.24-1.04-.48-1.55-.72-.25-.12-.5-.23-.74-.36-.06-.03-.11-.1-.16-.15,.02-.02,.03-.05,.05-.07Z"/><path class="cls-2" d="M184.88,11.7c.04,.07,.1,.13,.12,.2,.26,.69,.53,1.37,.79,2.06,.04,.11,.06,.23,.06,.36-.27-.4-.53-.79-.66-1.25-.13-.45-.26-.89-.39-1.34,.03,0,.05-.02,.08-.02Z"/><path class="cls-2" d="M184.79,21.06c-.35-1.32-.97-2.49-1.89-3.52,.05,.01,.11,0,.14,.03,.22,.18,.4,.39,.56,.63,.33,.48,.63,.97,.86,1.51,.01,.03,.03,.06,.04,.09,.09,.35,.18,.7,.27,1.06,.02,.06,.01,.13,.02,.2Z"/><path class="cls-2" d="M227.02,51.46c-.16,.1-.29,.08-.4-.02-.25-.25-.49-.5-.73-.76-.11-.12-.21-.26-.29-.41-.03-.04,0-.12,0-.18,.06,.01,.13,.01,.18,.04,.07,.05,.13,.12,.19,.19,.31,.36,.62,.73,.99,1.03,.02,.02,.03,.06,.06,.1Z"/><path class="cls-2" d="M216.28,42.19c0,.18,0,.29-.01,.39-.04,.33-.1,.65-.13,.98-.04,.4-.09,.8,.05,1.18,0,.02,.02,.04,.01,.06-.01,.08,.05,.21-.08,.23-.13,.02-.13-.1-.15-.19-.08-.49-.07-.97,0-1.46,.04-.26,.07-.52,.11-.78,.02-.13,0-.28,.21-.43Z"/><path class="cls-2" d="M180.91,23.53c.18-.08,.25-.19,.23-.38-.02-.22-.16-.31-.37-.23q-.16,.06-.32-.01c.08-.18,.19-.32,.4-.31,.21,.01,.41,.09,.49,.31,.06,.17,.09,.35,.13,.53,.02,.12,0,.22-.13,.28-.14,.07-.24,.05-.33-.06-.03-.03-.05-.07-.09-.13Z"/><path class="cls-2" d="M218.42,42.37c.14,.2,.07,.36,.05,.51-.04,.35-.09,.7-.13,1.05-.04,.33,.01,.66,.11,.98,.03,.09,.05,.17-.03,.26-.12,0-.16-.09-.19-.2-.08-.4-.13-.8-.05-1.22,.08-.39,.11-.79,.17-1.18,0-.05,.03-.1,.06-.2Z"/><path class="cls-2" d="M185.26,27.32c.05-.31-.11-.57-.19-.85-.06-.22-.12-.44-.18-.66-.08-.29-.15-.59-.27-.88-.07-.17-.08-.32-.03-.5,.12-.03,.19,0,.22,.13,.05,.27,.1,.54,.16,.81,.12,.53,.24,1.06,.35,1.6,.03,.12,.09,.24-.06,.35Z"/><path class="cls-2" d="M179.81,22.25c.07-.18,.13-.35,.2-.52,.09-.21,.29-.25,.47-.29,.1-.02,.2,.04,.22,.16,.06,.3,.02,.59-.16,.84-.12,.16-.29,.22-.58,.19,.26-.15,.52-.22,.55-.51,.02-.16,.02-.31,.02-.47,0-.01-.06-.03-.12-.06-.11,.21-.21,.42-.32,.62-.02,.04-.08,.09-.12,.1-.05,0-.1-.04-.17-.07Z"/><path class="cls-2" d="M179.59,25.79c.09,.05,.16,.08,.26,.13-.04-.47-.09-.9-.13-1.38,.18,.29,.34,.54,.51,.8-.25,.12-.09,.28-.07,.46,.1-.08,.17-.14,.24-.19l.04,.02c-.03,.09-.07,.17-.1,.25-.14,.05-.27,.09-.4,.14-.21,.08-.26,.05-.34-.24Z"/><path class="cls-2" d="M211.5,42.61c-.16-.04-.19-.14-.19-.25,0-.15,0-.3,.04-.44,.15-.48,.32-.94,.49-1.41,.01-.03,.06-.05,.11-.09,.07,.3-.1,.52-.16,.77-.06,.22-.16,.43-.2,.65-.04,.19-.14,.39-.02,.6,.02,.03-.05,.12-.08,.18Z"/><path class="cls-2" d="M222.22,32.93c.05-.1,.1-.21,.14-.3,.24,.09,.45,.18,.66,.25,.15,.05,.23,.13,.26,.28-.26,.25-.52,.2-1.06-.23Z"/><path class="cls-2" d="M199.38,41.93c.26-.35,.5-.71,.85-.99,.15-.12,.19-.11,.41,.02-.27,.24-.41,.59-.79,.72-.15,.05-.27,.2-.4,.3-.02-.02-.04-.04-.07-.05Z"/><path class="cls-2" d="M208.45,23.41c-.65,.1-1.45-.16-2.18-.66,.14-.09,.27-.02,.38,.02,.16,.06,.31,.16,.47,.21,.29,.09,.59,.16,.89,.25,.13,.04,.25,.1,.44,.18Z"/><path class="cls-2" d="M199.44,34.16c-.03-.12,.05-.18,.14-.18,.15,0,.29,0,.41,.12,.17,.16,.18,.38,.21,.58,.02,.14-.08,.26-.24,.28-.07,0-.18,.02-.22-.02-.04-.04-.02-.15,0-.21,.17-.37,.13-.46-.28-.54,0,0-.02-.01-.03-.02Z"/><path class="cls-2" d="M212.64,44.29c-.2-.08-.21-.21-.19-.33,.07-.49,.15-.98,.23-1.47,0-.04,.03-.08,.06-.16,.19,.24,.15,.45,.12,.65-.04,.29-.11,.58-.16,.87-.02,.14-.04,.28-.06,.45Z"/><path class="cls-2" d="M223.52,48.13c-.23-.4-.16-1.48,.09-1.86,.11,.05,.08,.15,.07,.23-.03,.34-.07,.67-.11,1.01-.02,.13-.05,.26,.02,.39,.02,.04-.04,.12-.08,.23Z"/><path class="cls-2" d="M219.02,44.29c.03,.16,.07,.26,.06,.37-.03,.55,.15,1.07,.17,1.66-.32-.44-.46-1.59-.24-2.03Z"/><path class="cls-2" d="M183.94,28.83c-.04-.41-.1-.83-.12-1.24-.02-.41,0-.83,.02-1.24,.18,.82,.17,1.65,.18,2.49h-.08Z"/><path class="cls-2" d="M201.28,43.02c-.02,.1-.02,.17-.04,.22-.34,.62-.68,1.24-1.03,1.88,.03-.44,.64-1.73,1.07-2.1Z"/><path class="cls-2" d="M201.29,41.45c-.01,.1,0,.14-.02,.16-.44,.63-.87,1.25-1.31,1.87-.02,.02-.05,.03-.09,.05,.09-.36,.87-1.5,1.43-2.08Z"/><path class="cls-2" d="M216.78,43.9c.06,.29,.11,.5,.07,.73-.04,.26-.02,.52,.1,.76,.02,.04,0,.12-.02,.18-.05-.02-.13-.03-.16-.08-.15-.2-.16-.44-.15-.68,0-.26,.04-.51,.07-.77,0-.03,.03-.05,.08-.14Z"/><path class="cls-2" d="M201.32,43.91c-.26,.59-.52,1.18-.78,1.79-.06-.39,.32-1.34,.72-1.83,.02,.01,.04,.02,.06,.03Z"/><path class="cls-2" d="M181.73,23.21c.34-.08,.51,.03,.52,.3,0,.13-.07,.23-.18,.26-.11,.03-.26,.06-.36,0-.07-.03-.09-.2-.09-.3,0-.08,.06-.17,.11-.27Zm.23,.5c.02-.13,.12-.25-.05-.31-.03-.01-.09,.02-.11,.04-.09,.15,.04,.18,.16,.26Z"/><path class="cls-2" d="M226.9,48.85c.3,.34,.38,.9,.16,1.39-.05-.08-.12-.13-.12-.19-.02-.4-.03-.8-.04-1.2Z"/><path class="cls-2" d="M217.52,45.19c.11,.13,.14,.28,.13,.42-.01,.26,0,.52,.1,.77,.02,.05-.02,.12-.04,.22-.08-.05-.15-.07-.18-.12-.11-.19-.11-1-.01-1.28Z"/><path class="cls-2" d="M211.9,12.6c0,.08,0,.12,0,.14-.06,.07-.11,.15-.18,.2-.4,.27-.72,.65-1.16,.86,.34-.5,.86-.79,1.34-1.2Z"/><path class="cls-2" d="M200.09,42.39c.29-.49,.58-.98,.87-1.49,.06,.01,.12,.03,.21,.05-.34,.5-.67,.99-1,1.48-.03-.02-.06-.04-.08-.05Z"/><path class="cls-2" d="M180.45,20.9c0-.08,.03-.15,.03-.23,0-.13,0-.28-.05-.4-.1-.25-.26-.26-.44-.06-.03,.03-.05,.1-.08,.1-.06,.02-.13,0-.19,0,0-.06-.01-.14,.02-.18,.19-.22,.6-.2,.79,.02,.17,.19,.16,.53-.08,.75Z"/><path class="cls-2" d="M193.33,35.94c.4,.08,.8,.16,1.21,.25-.26,.27-.9,.16-1.21-.25Z"/><path class="cls-2" d="M207.74,18.06c.45-.13,.49-.13,.82,.13-.06,.33-.16,.4-.59,.41,.12-.1,.23-.2,.36-.3-.17-.16-.41-.09-.59-.24Z"/><path class="cls-2" d="M184.69,26.81c-.04-.5-.27-.98-.14-1.49,.21,.48,.16,.99,.14,1.49Z"/><path class="cls-2" d="M201.42,44.85c-.2,.38-.4,.76-.6,1.14-.08-.16-.09-.17-.03-.28,.1-.19,.21-.37,.33-.55,.07-.12,.15-.24,.23-.36,.03,.02,.05,.03,.08,.05Z"/><path class="cls-2" d="M217.99,46c.17,.36-.02,.72,0,1.15-.09-.09-.16-.13-.16-.16,.02-.33,.05-.66,.08-.99,.03,0,.05,0,.08,0Z"/><path class="cls-2" d="M219.85,45.73c.2,.2,.04,.42,.1,.6,.06,.19,.1,.39,.14,.58-.18-.08-.18-.08-.22-.21-.08-.31-.15-.62-.03-.97Z"/><path class="cls-2" d="M181.06,20.93c.25-.05,.54,.07,.86,.32-.17,.07-.62-.09-.86-.32Z"/><path class="cls-2" d="M179.15,26.23c-.18-.06-.19-.19-.18-.3,.01-.28-.19-.55-.03-.88,.08,.42,.15,.8,.22,1.18Z"/><path class="cls-2" d="M184.06,25.3c.25,.32,.3,.81,.11,1.15-.04-.4-.07-.76-.11-1.15Z"/><path class="cls-2" d="M222.99,19.95c.21-.08,.42-.16,.63-.23-.14,.25-.42,.18-.58,.36-.02-.04-.03-.09-.05-.13Z"/><path class="cls-2" d="M182.04,20.76c.17,.17,.33,.33,.5,.5,0,.02-.02,.04-.03,.06-.05,0-.13,0-.15-.03-.12-.16-.23-.33-.34-.49,0-.01,.02-.03,.03-.04Z"/><path class="cls-2" d="M227.39,50.5q-.18-.12-.09-.41c.13,.12,.18,.22,.09,.41Z"/><path class="cls-2" d="M215.53,39.42c.01,.22,.06,.44-.11,.62-.02-.22,0-.42,.11-.62h0Z"/><path class="cls-2" d="M203.84,44c-.04,.11-.04,.24-.2,.32-.03-.19,.06-.27,.21-.31h0Z"/></g></g></svg>